<mxfile host="app.diagrams.net" modified="2021-02-26T08:36:28.282Z" agent="5.0 (Macintosh; Intel Mac OS X 11_0_1) AppleWebKit/537.36 (KHTML, like Gecko) Chrome/88.0.4324.182 Safari/537.36" etag="LjYrcVuejNk62lpBk1GH" version="14.4.3" type="github">
  <diagram id="YQsdVBsKoyDZ6Q6LEy1Y" name="Page-1">
    <mxGraphModel dx="880" dy="621" grid="1" gridSize="10" guides="1" tooltips="1" connect="1" arrows="1" fold="1" page="1" pageScale="1" pageWidth="827" pageHeight="1169" math="0" shadow="0">
      <root>
        <mxCell id="0" />
        <mxCell id="1" parent="0" />
        <mxCell id="ysf9oXTdcwBOKVJ4BXTu-18" style="edgeStyle=orthogonalEdgeStyle;rounded=0;orthogonalLoop=1;jettySize=auto;html=1;exitX=1;exitY=0.5;exitDx=0;exitDy=0;" edge="1" parent="1" source="ysf9oXTdcwBOKVJ4BXTu-1" target="ysf9oXTdcwBOKVJ4BXTu-17">
          <mxGeometry relative="1" as="geometry" />
        </mxCell>
        <mxCell id="ysf9oXTdcwBOKVJ4BXTu-26" style="edgeStyle=none;rounded=0;orthogonalLoop=1;jettySize=auto;html=1;exitX=1;exitY=0.5;exitDx=0;exitDy=0;" edge="1" parent="1" source="ysf9oXTdcwBOKVJ4BXTu-1">
          <mxGeometry relative="1" as="geometry">
            <mxPoint x="250" y="300" as="targetPoint" />
          </mxGeometry>
        </mxCell>
        <mxCell id="ysf9oXTdcwBOKVJ4BXTu-1" value="国美家" style="rounded=0;whiteSpace=wrap;html=1;" vertex="1" parent="1">
          <mxGeometry x="40" y="120" width="120" height="60" as="geometry" />
        </mxCell>
        <mxCell id="ysf9oXTdcwBOKVJ4BXTu-19" style="edgeStyle=orthogonalEdgeStyle;rounded=0;orthogonalLoop=1;jettySize=auto;html=1;exitX=1;exitY=0.5;exitDx=0;exitDy=0;entryX=0;entryY=0.5;entryDx=0;entryDy=0;" edge="1" parent="1" source="ysf9oXTdcwBOKVJ4BXTu-2" target="ysf9oXTdcwBOKVJ4BXTu-3">
          <mxGeometry relative="1" as="geometry" />
        </mxCell>
        <mxCell id="ysf9oXTdcwBOKVJ4BXTu-25" style="edgeStyle=none;rounded=0;orthogonalLoop=1;jettySize=auto;html=1;exitX=0.5;exitY=1;exitDx=0;exitDy=0;entryX=0;entryY=0.5;entryDx=0;entryDy=0;" edge="1" parent="1" source="ysf9oXTdcwBOKVJ4BXTu-2" target="ysf9oXTdcwBOKVJ4BXTu-10">
          <mxGeometry relative="1" as="geometry" />
        </mxCell>
        <mxCell id="ysf9oXTdcwBOKVJ4BXTu-2" value="锅美优食" style="rounded=0;whiteSpace=wrap;html=1;" vertex="1" parent="1">
          <mxGeometry x="40" y="190" width="120" height="60" as="geometry" />
        </mxCell>
        <mxCell id="ysf9oXTdcwBOKVJ4BXTu-28" style="edgeStyle=orthogonalEdgeStyle;rounded=0;orthogonalLoop=1;jettySize=auto;html=1;exitX=1;exitY=0.5;exitDx=0;exitDy=0;" edge="1" parent="1" source="ysf9oXTdcwBOKVJ4BXTu-3" target="ysf9oXTdcwBOKVJ4BXTu-6">
          <mxGeometry relative="1" as="geometry" />
        </mxCell>
        <mxCell id="ysf9oXTdcwBOKVJ4BXTu-3" value="分账流水" style="rounded=0;whiteSpace=wrap;html=1;" vertex="1" parent="1">
          <mxGeometry x="250" y="190" width="120" height="60" as="geometry" />
        </mxCell>
        <mxCell id="ysf9oXTdcwBOKVJ4BXTu-15" value="" style="edgeStyle=orthogonalEdgeStyle;rounded=0;orthogonalLoop=1;jettySize=auto;html=1;" edge="1" parent="1" source="ysf9oXTdcwBOKVJ4BXTu-6" target="ysf9oXTdcwBOKVJ4BXTu-14">
          <mxGeometry relative="1" as="geometry" />
        </mxCell>
        <mxCell id="ysf9oXTdcwBOKVJ4BXTu-6" value="付款单" style="whiteSpace=wrap;html=1;rounded=0;" vertex="1" parent="1">
          <mxGeometry x="480" y="150" width="120" height="60" as="geometry" />
        </mxCell>
        <mxCell id="ysf9oXTdcwBOKVJ4BXTu-13" value="" style="edgeStyle=orthogonalEdgeStyle;rounded=0;orthogonalLoop=1;jettySize=auto;html=1;" edge="1" parent="1" source="ysf9oXTdcwBOKVJ4BXTu-10" target="ysf9oXTdcwBOKVJ4BXTu-12">
          <mxGeometry relative="1" as="geometry" />
        </mxCell>
        <mxCell id="ysf9oXTdcwBOKVJ4BXTu-10" value="挂账" style="whiteSpace=wrap;html=1;rounded=0;" vertex="1" parent="1">
          <mxGeometry x="250" y="270" width="120" height="60" as="geometry" />
        </mxCell>
        <mxCell id="ysf9oXTdcwBOKVJ4BXTu-12" value="sap" style="whiteSpace=wrap;html=1;rounded=0;" vertex="1" parent="1">
          <mxGeometry x="480" y="270" width="120" height="60" as="geometry" />
        </mxCell>
        <mxCell id="ysf9oXTdcwBOKVJ4BXTu-14" value="银盈通" style="whiteSpace=wrap;html=1;rounded=0;" vertex="1" parent="1">
          <mxGeometry x="660" y="150" width="120" height="60" as="geometry" />
        </mxCell>
        <mxCell id="ysf9oXTdcwBOKVJ4BXTu-27" style="edgeStyle=orthogonalEdgeStyle;rounded=0;orthogonalLoop=1;jettySize=auto;html=1;exitX=1;exitY=0.5;exitDx=0;exitDy=0;" edge="1" parent="1" source="ysf9oXTdcwBOKVJ4BXTu-17" target="ysf9oXTdcwBOKVJ4BXTu-6">
          <mxGeometry relative="1" as="geometry" />
        </mxCell>
        <mxCell id="ysf9oXTdcwBOKVJ4BXTu-17" value="分账流水" style="rounded=0;whiteSpace=wrap;html=1;" vertex="1" parent="1">
          <mxGeometry x="250" y="120" width="120" height="60" as="geometry" />
        </mxCell>
        <mxCell id="ysf9oXTdcwBOKVJ4BXTu-31" value="" style="edgeStyle=orthogonalEdgeStyle;rounded=0;orthogonalLoop=1;jettySize=auto;html=1;" edge="1" parent="1" source="ysf9oXTdcwBOKVJ4BXTu-29" target="ysf9oXTdcwBOKVJ4BXTu-30">
          <mxGeometry relative="1" as="geometry" />
        </mxCell>
        <mxCell id="ysf9oXTdcwBOKVJ4BXTu-39" style="edgeStyle=orthogonalEdgeStyle;rounded=0;orthogonalLoop=1;jettySize=auto;html=1;exitX=0.5;exitY=1;exitDx=0;exitDy=0;" edge="1" parent="1" source="ysf9oXTdcwBOKVJ4BXTu-29" target="ysf9oXTdcwBOKVJ4BXTu-38">
          <mxGeometry relative="1" as="geometry" />
        </mxCell>
        <mxCell id="ysf9oXTdcwBOKVJ4BXTu-41" style="edgeStyle=orthogonalEdgeStyle;rounded=0;orthogonalLoop=1;jettySize=auto;html=1;exitX=0.5;exitY=1;exitDx=0;exitDy=0;" edge="1" parent="1" source="ysf9oXTdcwBOKVJ4BXTu-29" target="ysf9oXTdcwBOKVJ4BXTu-40">
          <mxGeometry relative="1" as="geometry" />
        </mxCell>
        <mxCell id="ysf9oXTdcwBOKVJ4BXTu-42" style="edgeStyle=orthogonalEdgeStyle;rounded=0;orthogonalLoop=1;jettySize=auto;html=1;exitX=0.5;exitY=1;exitDx=0;exitDy=0;" edge="1" parent="1" source="ysf9oXTdcwBOKVJ4BXTu-29" target="ysf9oXTdcwBOKVJ4BXTu-32">
          <mxGeometry relative="1" as="geometry" />
        </mxCell>
        <mxCell id="ysf9oXTdcwBOKVJ4BXTu-29" value="订单" style="rounded=0;whiteSpace=wrap;html=1;" vertex="1" parent="1">
          <mxGeometry x="230" y="555" width="120" height="60" as="geometry" />
        </mxCell>
        <mxCell id="ysf9oXTdcwBOKVJ4BXTu-30" value="分账规则" style="whiteSpace=wrap;html=1;rounded=0;" vertex="1" parent="1">
          <mxGeometry x="500" y="555" width="120" height="60" as="geometry" />
        </mxCell>
        <mxCell id="ysf9oXTdcwBOKVJ4BXTu-32" value="分账流水" style="whiteSpace=wrap;html=1;rounded=0;" vertex="1" parent="1">
          <mxGeometry x="70" y="700" width="120" height="60" as="geometry" />
        </mxCell>
        <mxCell id="ysf9oXTdcwBOKVJ4BXTu-35" style="edgeStyle=orthogonalEdgeStyle;rounded=0;orthogonalLoop=1;jettySize=auto;html=1;exitX=0.5;exitY=1;exitDx=0;exitDy=0;" edge="1" parent="1" source="ysf9oXTdcwBOKVJ4BXTu-34" target="ysf9oXTdcwBOKVJ4BXTu-29">
          <mxGeometry relative="1" as="geometry" />
        </mxCell>
        <mxCell id="ysf9oXTdcwBOKVJ4BXTu-34" value="国美家订单" style="rounded=0;whiteSpace=wrap;html=1;" vertex="1" parent="1">
          <mxGeometry x="150" y="420" width="120" height="60" as="geometry" />
        </mxCell>
        <mxCell id="ysf9oXTdcwBOKVJ4BXTu-37" style="edgeStyle=orthogonalEdgeStyle;rounded=0;orthogonalLoop=1;jettySize=auto;html=1;exitX=0.5;exitY=1;exitDx=0;exitDy=0;entryX=0.5;entryY=0;entryDx=0;entryDy=0;" edge="1" parent="1" source="ysf9oXTdcwBOKVJ4BXTu-36" target="ysf9oXTdcwBOKVJ4BXTu-29">
          <mxGeometry relative="1" as="geometry" />
        </mxCell>
        <mxCell id="ysf9oXTdcwBOKVJ4BXTu-36" value="锅美优食" style="rounded=0;whiteSpace=wrap;html=1;" vertex="1" parent="1">
          <mxGeometry x="310" y="420" width="120" height="60" as="geometry" />
        </mxCell>
        <mxCell id="ysf9oXTdcwBOKVJ4BXTu-38" value="挂账" style="whiteSpace=wrap;html=1;rounded=0;" vertex="1" parent="1">
          <mxGeometry x="230" y="700" width="120" height="60" as="geometry" />
        </mxCell>
        <mxCell id="ysf9oXTdcwBOKVJ4BXTu-45" value="" style="edgeStyle=orthogonalEdgeStyle;rounded=0;orthogonalLoop=1;jettySize=auto;html=1;" edge="1" parent="1" source="ysf9oXTdcwBOKVJ4BXTu-40" target="ysf9oXTdcwBOKVJ4BXTu-44">
          <mxGeometry relative="1" as="geometry" />
        </mxCell>
        <mxCell id="ysf9oXTdcwBOKVJ4BXTu-40" value="付款单" style="whiteSpace=wrap;html=1;rounded=0;" vertex="1" parent="1">
          <mxGeometry x="390" y="700" width="120" height="60" as="geometry" />
        </mxCell>
        <mxCell id="ysf9oXTdcwBOKVJ4BXTu-44" value="银盈通" style="whiteSpace=wrap;html=1;rounded=0;" vertex="1" parent="1">
          <mxGeometry x="390" y="820" width="120" height="60" as="geometry" />
        </mxCell>
        <mxCell id="ysf9oXTdcwBOKVJ4BXTu-47" value="&lt;h1&gt;订单情况&lt;/h1&gt;&lt;p&gt;国美家：直接给出分账列金额&lt;br&gt;&lt;/p&gt;&lt;p&gt;锅美优食：总金额，分账规则表&lt;/p&gt;" style="text;html=1;strokeColor=none;fillColor=none;spacing=5;spacingTop=-20;whiteSpace=wrap;overflow=hidden;rounded=0;" vertex="1" parent="1">
          <mxGeometry x="520" y="370" width="190" height="120" as="geometry" />
        </mxCell>
        <mxCell id="ysf9oXTdcwBOKVJ4BXTu-50" value="" style="edgeStyle=orthogonalEdgeStyle;rounded=0;orthogonalLoop=1;jettySize=auto;html=1;" edge="1" parent="1" source="ysf9oXTdcwBOKVJ4BXTu-48" target="ysf9oXTdcwBOKVJ4BXTu-49">
          <mxGeometry relative="1" as="geometry" />
        </mxCell>
        <mxCell id="ysf9oXTdcwBOKVJ4BXTu-48" value="订单" style="rounded=0;whiteSpace=wrap;html=1;" vertex="1" parent="1">
          <mxGeometry x="110" y="930" width="120" height="60" as="geometry" />
        </mxCell>
        <mxCell id="ysf9oXTdcwBOKVJ4BXTu-52" value="" style="edgeStyle=orthogonalEdgeStyle;rounded=0;orthogonalLoop=1;jettySize=auto;html=1;" edge="1" parent="1" source="ysf9oXTdcwBOKVJ4BXTu-49" target="ysf9oXTdcwBOKVJ4BXTu-51">
          <mxGeometry relative="1" as="geometry" />
        </mxCell>
        <mxCell id="ysf9oXTdcwBOKVJ4BXTu-49" value="订单行" style="whiteSpace=wrap;html=1;rounded=0;" vertex="1" parent="1">
          <mxGeometry x="310" y="930" width="120" height="60" as="geometry" />
        </mxCell>
        <mxCell id="ysf9oXTdcwBOKVJ4BXTu-51" value="金额" style="whiteSpace=wrap;html=1;rounded=0;" vertex="1" parent="1">
          <mxGeometry x="510" y="930" width="120" height="60" as="geometry" />
        </mxCell>
        <mxCell id="ysf9oXTdcwBOKVJ4BXTu-53" value="&lt;table width=&quot;268&quot; style=&quot;border-collapse: collapse ; width: 201.00pt&quot;&gt;&lt;colgroup&gt;&lt;col width=&quot;268&quot; style=&quot;width: 201.60pf&quot;&gt;&lt;/colgroup&gt;&lt;tbody&gt;&lt;tr style=&quot;height: 58.50pf&quot;&gt;&lt;td class=&quot;et3&quot; height=&quot;78&quot; width=&quot;268&quot; style=&quot;color: rgb(0 , 0 , 0) ; font-size: 10pt ; font-weight: 400 ; font-style: normal ; text-decoration: none ; text-align: left ; vertical-align: middle ; border-width: 0.5pt ; border-style: solid ; border-color: rgb(0 , 0 , 0) ; background: rgb(255 , 255 , 255) ; height: 58.5pt ; width: 201pt&quot;&gt;&lt;span class=&quot;font2&quot;&gt;1-实付金额（约定佣金+约定服务费）&lt;span&gt;&amp;nbsp;&lt;/span&gt;&lt;/span&gt;&lt;span class=&quot;font0&quot;&gt;&lt;br&gt;2-约定佣金&lt;br&gt;3-约定服务费&lt;br&gt;4-待清分金额（实付金额-退款部分）&lt;br&gt;5-待分账佣金（约定佣金-退款部分）&lt;br&gt;6-待分账服务费（约定服务费-退款部分）&lt;/span&gt;&lt;/td&gt;&lt;/tr&gt;&lt;/tbody&gt;&lt;/table&gt;" style="text;whiteSpace=wrap;html=1;" vertex="1" parent="1">
          <mxGeometry x="100" y="1030" width="290" height="110" as="geometry" />
        </mxCell>
        <mxCell id="ysf9oXTdcwBOKVJ4BXTu-55" value="" style="shape=image;verticalLabelPosition=bottom;labelBackgroundColor=#ffffff;verticalAlign=top;aspect=fixed;imageAspect=0;image=data:image/png,iVBORw0KGgoAAAANSUhEUgAABDYAAAOcCAYAAAC18zFKAAAgAElEQVR4AeydZ7gUVda2v9/vzLzjvJOTYdRRR0edURAVCZKzgBIUREFEkCiiCIIoKkElCYgIklVQEAUURIJEySBRQXIOnfso82d919pMtZ1Pd5/uPt1V94+6qk+FXVVr3XvvtZ+zw/8LBv8jbNgABmAABmAABmAABmAABmAABmAABmCgGBn4f8X40rwzmQ0GYAAGYAAGYAAGYAAGYAAGYAAGYEAZQNigxwo9dmAABmAABmAABmAABmAABmAABmCgaBlA2ADeooUXdRZ1FgZgAAZgAAZgAAZgAAZgAAZgAGEDYQNhAwZgAAZgAAZgAAZgAAZgAAZgAAaKlgGEDeAtWnhRZlFmYQAGYAAGYAAGYAAGYAAGYAAGEDYQNhA2YAAGYAAGYAAGYAAGYAAGYAAGYKBoGUDYAN6ihRdlFmUWBmAABmAABmAABmAABmAABmAAYQNhA2EDBmAABmAABmAABmAABmAABmAABoqWAYQN4C1aeFFmUWZhAAZgAAZgAAZgAAZgAAZgAAYQNhA2EDZgAAZgAAZgAAZgAAZgAAZgAAZgoGgZQNgA3qKFF2UWZRYGYAAGYAAGYAAGYAAGYAAGYABhA2EDYQMGYAAGYAAGYAAGYAAGYAAGYAAGipYBhA3gLVp4UWZRZmEABmAABmAABmAABmAABmAABhA2EDYQNmAABmAABmAABmAABmAABmAABmCgaBlA2ADeooUXZRZlFgZgAAZgAAZgAAZgAAZgAAZgAGEDYQNhAwZgAAZgAAZgAAZgAAZgAAZgAAaKlgGEDeAtWnhRZlFmYQAGYAAGYAAGYAAGYAAGYAAGEDYQNhA2YAAGYAAGYAAGYAAGYAAGYAAGYKBoGUDYAN6ihRdlFmUWBmAABmAABmAABmAABmAABmAAYQNhA2EDBmAABmAABmAABmAABmAABmAABoqWAYQN4C1aeFFmUWZhAAZgAAZgAAZgAAZgAAZgAAYQNhA2EDZgAAZgAAZgAAZgAAZgAAZgAAZgoGgZQNgA3qKFF2UWZRYGYAAGYAAGYAAGYAAGYAAGYABhA2EDYQMGYAAGYAAGYAAGYAAGYAAGYAAGipYBhA3gLVp4UWZRZmEABmAABmAABmAABmAABmAABhA2EDYQNmAABmAABmAABmAABmAABmAABmCgaBlA2ADeooUXZRZlFgZgAAZgAAZgAAZgAAZgAAZgAGEDYQNhAwZgAAZgAAZgAAZgAAZgAAZgAAaKlgGEDeAtWnhRZlFmYQAGYAAGYAAGYAAGYAAGYAAGEDYQNhA2YAAGYAAGYAAGYAAGYAAGYAAGYKBoGUDYAN6ihRdlFmUWBmAABmAABmAABmAABmAABmAAYQNhA2EDBmAABmAABmAABmAABmAABmAABoqWAYQN4C1aeFFmUWZhAAZgAAZgAAZgAAZgAAZgAAYQNhA2EDZgAAZgAAZgAAZgAAZgAAZgAAZgoGgZQNgA3qKFF2UWZRYGYAAGYAAGYAAGYAAGYAAGYABhA2EDYQMGYAAGYAAGYAAGYAAGYAAGYAAGipYBhA3gLVp4UWZRZmEABmAABmAABmCg7AycO++Vms0ekx79hsmefYeyHhu6XAGpWLuVjBg/QwKBi1lPP1UG9u0/Ko92e17aPdlf9n9/vNzeI9X35bqys40NnWNDhA2EDQp1GIABGIABGIABGICBPDKwefs+eaznCznZ1ny9I21ftu8+UP7nr7fJjZWbyKnTrrTvL63xOHnWfJP+PQ0fNmmPmjBTHu7SL6Nt+JtTMnq/dRu/kSv/Vdu8h37rLVWbydFjZzNKq7Tv5bxzGtP4unB8jbCRx0oM8AsHfHyBL2AABmAABmAABsqLgQWLV4Ua2NrIzuY268PP0mqsz5izyDz/19feLZu37U3r3lTtV7lBW/OMaR8sMOm3fKxPxt/cpG33tN9x/qIV8pu/VzbPbPjgk9KsXU/z+446reX4yfNpp5fqd3MdZQwM5I8BhA2EDQpzGIABGIABGIABGICBPDJw8PBJmTlnUambDt1Q0eO311Uu9Vorve8OHEvZl7v2HpTf31DFPEMFjkSNsMXL1kmL9r3lwMETCa9JdK/2lNBv0N4Sbk/Q3G8JG9r7QtO2Nv0GvfbaivVDx6xzr42das6lK2yMmzxbfnFlBXNv287PicdbYrYWHZ42x264q7Fs2ron7e9K9L0cz19DFltj63AGEDbyWImFG57fZEQYgAEYgAEYgAEYgIFkDOzc871pfP/ln/dmveF97MQ5uanyfSb9Xs8PT5i+zolxX9vu5roqDduFxIlk7x1+rmOvQebeF4aNDz3DEjY+/3Jd6Jjeo6KMChs3V2kacVzPLVm+3pxLVdjQ9+770ihzj6bZ/bmhEfN7eH0/yIOdnjXntbdKMmEn/Hv4TZ6FgcJkAGEDYSOm4iCzFmZmxS/4BQZgAAZgAAbsxcChI6ek98DX5dPPv4obj6UibKxat02qNn5EdHhLqnzoZJ56jzb467boJNrIT3bvyVMu0Z4Nen2XPi8nvTY8Hb1PRYNfXnWHaC8V61yuhY0VqzeLNfzlsqsrmUlLrWeH732+H6XPCyPkZ5ffbr5Ne3Ewqai98li4v/ltb98ibCBshCoZMru9Mzv+xb8wAAMwAAMwUFgMPP/qWNOgrtqoXdx4LBVho/Xjz5g0tEdCKv5VUcOaY6J+y85y4YI/pfs2bN4tv7rmTvOsSTPmpXRPv8GjzfVtnugbcX2uhA1d0cVKW0WY2+59IKVhJtobRIe/6D067EeHveiQlVTsyTWFlafwh3P9gbCBsEGhDQMwAAMwAAMwAAMwUA4MaI+GP95Y1TSol67cEOOD0oQNXb5U54/4+RUVUlqmVYefWD01GrfpJm73pTkvUm0MqqChjX8VOFToSHbfyrVbQ3NbTJw2N+JaS3zI1lAUtePTA9+Qy/5WybyfvmP7bgNEe8TouVS2fd8dER3movfqpkKHrt5y/oIv4t2TfTPnnNuoxvfl73uEjXKoxAC//MHHB/gABmAABmAABmCgEBh4+Y2JpiGtq3VEv09pwkbnpwebe3Viz+h7o//+eNEK+cfdl4aT3P9or5i5MlTk0OVPd+89JKvXbxddSWTyzI9FJ/h89sWR0qHHC9L04R6iQzu04X97zZYJezWcO+81S8daIsE70yN7eFjChn5z+LK3Vu+TP/yjasRxvabRQ13Nc6Pn2Phg3mLROUisZ9Vs9pg8M2hE6G/reKp7fZYl/ug9f72lhsz+eEmp9o22N39TvsBAfhlA2EDYoKCGARiAARiAARiAARgoJwZOn3HL766/xzTEv960K8IPyYQNXZrV6q1RWu+JHv2GRTT0teGuS52q0PGXm2tE9HRIVQDQ6wYOHRfxvlZD7slnXol4XiJhI51nWddGCxtqBxVbKtRqFZqrRIeW1GjWIe5mzadR/b72cc+roKPfsWjpGiNwqG+0N4f1bezz21jF3tg7VQYQNsqpEkvVQVxHZoYBGIABGIABGIABezOg82Now117LIT7OpmwUa/lE+aeTr1firgn/H7r96Bhb0UIDZZI8L9XVjRDYXTYxa3Vmsvd9duIzrvx0BN9pVvfIUa40OEY0z5YYCYnXfP1DjPk5f25i016OilotKiycMnq0LlqTR41vxMJGyPfmiE60ae1zZ7/hbn+7xXrh45Z50a/PcucixY29Bu37NgXseKJ9d3x9vrO+v2pzi3CZKL2znvxGOFYcfocYQNho9TKkMxdnJkbv+E3GIABGIABGCgOBlTA0J4EusypTu5p+S2RsHHs+FkzMaYO2dDhI9b1ifY618TKNVtEezfs/faw6P3hz0l0X7LjOvxFBYKKtVuFhqToKiNX317XHH9ryhwz74Vek0jYyNYcG8neM/pcusJG9P38XRx5Cj85z08IGwgbpVaGFAzOKxjwOT6HARiAARiAgfwysHjZOlFhINzuiYQNvcbv/1F27DoQcX34vbn+feDgCTOERnt7hPfa0Lk3rCVhdUJPhI38cpRrv5M+/ixUBhA2EDbKrUIs1EzBe1FgwwAMwAAMwAAM5IoBnaTz+MnzKW069EOFgT/fVD2l6610013tJNNv3bhld8wkpPMWLg/14MinsKG20klPS9t0+I3adNlXG0u9VtPK1DbcRxkCA/llAGEDYYMCGwZgAAZgAAZgAAZgIE8MjH93jmlYa+M6V5s+I16jSldG+ec9TbOyaVrxnhF+LJGwUeeBTubbl6/aFJHGdweOmeM6JCc8Hf2tE4KqveLNsaHnw5d6zaZdA4GLMe8S/W78nd8GLPbG3vEYQNjIUyUWz/gcI1PCAAzAAAzAAAzAgLMYmDFnkVmNRFckKW3TSTS1kf7zKyqUem14WvqMeFxNn73QpJeNhr+mFe8Z4ccSCRs3Vb7PvIcuH1vW5V6t57Xt/JyZfFUnYE22Waui6Bwhya6zzlnps3dWPsXfxedvhA2EjVIrJTJ28WVsfIbPYAAGss2AjvXX5Q9109/ZTp/0YBYGYhlINsdGJvayhI2GDz5pJh3ViUfT3fReFUbKImz837V3ZSywJOqxkao9mDw0lrNUbcd12K6QGUDYQNggOIUBGIABGIAB2bX3oLw6cpJZ3jFe4PLsiyNDDRH9He+ars++Kk/0Hiwz5ywKjbGPd511zO0JmvH5meytNBLt72n4sNxWo4VZvjLRNRwnSC90BnIlbDRr1zNuHk7FHnpvWYSNYyfOmft1rosvV26MWNY10+Veo9977YYd8tnStXG/MZmwoWXX62OnyeGjp+PeG/0c/qYMgYHCYQBhg2CWghsGYAAGYMDhDHi8JXL9nY1MY0O7vG/ZsS+GidKEjc3b95nlKrXBU6t5x5j7o4O/b3YfCAklmXSLVyFG0zx7zisnT7nMpqtEWM/57XWVTfq/vvbu0DHrHPvCCUTxRXJf2FHY0AlHNc9XqNUqJm+WZY4NiyVrwlVddlZFU+u4tU8kbGj5ocN59N2WrtwQc591P/vkzGIf7FNeDCBsODyYLS/weC6FHgzAAAwUFgPvz10cEhoeaP9UTFBfmrCh49W1QaDCyKate2Luj/Z3toSN2vc/HnrvcEEGYaOw+Ir2P3+n5h87ChtzFywzeVbn1ojmIBvChqZZuUFb84wJUz6MeUYiYWP+ohXmnkp1Hoy5J/o9+Ts1frETdsonAwgbCBsU3jAAAzAAAzBgGKh+X/uQSKD/9QwPSJIJG7M+/Cx0X+enB0fcF55G+O+Dh0+GJu5r0KpL6P6//PPe0HGdvO+PN1YNnWvcplvo3KEjp8xzEDYInMO5sttvOwobKmioCPrmO+/HlBXZEjasMum2ex+IeUYiYcMqh6a+/2nMPXbjiu+h3LQjAwgbBLMU3jAAAzAAAzBgGNBx6bpigPa66Nl/eAQXyYSN7s8Nld/8vbIRIY4dPxtxXyrB0+Zte0PiRbUmj0bcf0ed1qFze/YdijinaSNsEKCnwlixXmM3YePcea9YvalWrdsWk5+zJWz4fD/KdXc0MGXH15t2RTwnnrCxfed+U/bp8BUdmlesvPDelIdOZgBhg2CWwhsGYAAGYMCBDOgEfvu+OxKzTftggWhDIPqc9sTQ/7Lqpr+jz+swEO1iHn1c/9ZnJQu2EDYIxpPx4eRzuRI2bq7S1EwUPHDouLT3eq+WA5msijJ55sfm3msr1hcVH6J9m0zYWPjFanNvqqui6CSg+p7RIm08YaNb3yHmWp1AOfqd+JvyCQaKgwGEDQcGs2TO4sic+Ak/wQAM5JIBXb3EEipyvddnJfsWhA1YT8aHk8/lStjIRp7PRNio0axDUgEhWtg4cvSMfH/opOi+Q49LQ1jadxsQU57oCkg68Wf4dk2FeuZZv7rmzojj1rffcNdP11/2t0rmWu2xEZ6G/lYhx8kM8u2Uz8XCAMIGwgaFNQzAAAzAgAMZKG9hQ4e96DweuukSi1ZjQ1dKsI7r/p/3XPrvsJ7/8JMvQ+dUDNFgi6EoBN3FEnRn8p65EjZUCBj99qyMNr1X82O6wobbHZTLb60pKjQk6sUVLWyMGD8jVDZYZYRO8hltSx0KZ53P9l6XpY1+Hn9T7sBA4TGAsOHAYJaMWHgZEZ/gExiAgXwzMGrCTGnQukvSTf9baTUStDFi/dalYUu7N/y8Piv6+7SxYKWXyV4FD00TYYO8E82Wnf7Whn7Vxo9Io4e6xuShTL7zk89Wik6oqfPiZHK/3qP3ahqaVmlp6NCOGys3kQ/mLTbXqlDz0msTEt6nc3BMmjFPZs//wlyjqyc1fPBJs7XvPlDmLVwedwjLiVMX5PjJ8znbSvtOzlMOwUD5M4CwgbCRsHIhg5Z/BsUH+AAGYKC8GNC5Nn597d1GfNDVUnScuiVA/O76e6RVxz6iqwdogyKTd0TYgO1MuOEeuIEBGIABGIjHAMIGwkZGAWk8mDhGIQMDMAADxc/Arr0HpfkjvUIiho4v127j4auiWAKH7lWgqNW8o2iX8XirliRiQofCPP7Ui2ar0rBd6Hn6n2DruO51+Vfrebr8q3Xu+VfHmvqLHhvFz1wiRjiOb2EABmAABlJlAGEDYQNhAwZgAAZgAAZEVzVR0cCaRE/FhPotO4d6ZIQLG516v2SEjH9Vvz8kOljiQ81mj4n29tDx9KkGIypYWPdrL5Dw+1julaA2nAd+wwMMwAAMwEA8BhA2CGYjAsh4kHCMwgMGYAAG7MnAmbMemfLeJ1K3RaeQsKACw8+vqCDPDBoRMZY9XNjQ3xYTK1ZvFl2lwBq2YgkUf76puvR6frhs++a70LXWPeH7Cxf8Yk3897PLbzerH4SfL03YaNG+t5mQUCcl3LHrQOhZv73u0mSC+l7h6fHbnizjV/wKAzAAA85mAGEDYYOADwZgAAZgwIEMjHxrhvzftXdFCBoqSuiwkPWbdsYwkUjYsAJJnbiv3+DRIZHCEjh0KMmp066Y9Kz73p31SegdKtV5MOa60oQNK53ovTXZKcKGswPdaC74Gx5gAAZgwJ4MIGw4MJglM9szM+NX/AoDMJAOA3u/PRwhbOhcGioyBAIXY8QFTffbA8dk5dqtZtPfiZ51+OhpM9HoZVdXMoKFppno2o1bdovVs0KFEGvejPDrUxE2dCUFv//H0HNWr98eEkv+dGO10PHwdPlNfoEBGIABGIAB+zCAsIGwQcAHAzAAAzDgUAZ0KUZd8WTugmUJBQ0r6NMeHhVqtTLba2OnlsqMLlOZ7Lqz57xyTYV6IQFC5+vQY9bzrH0qwoY1gagOabni1lryy6vuCKVbsXarmDSttNnbJ6DFl/gSBmAABpzNAMKGQ4NZMr6zMz7+x/8wAAPpMhA+D0eyXhjppDtx2lyzqsrvb6gi3+z+aX6M8DRSETYGDh0XEjKsITDWfvTbsxA2iHVgAAZgAAZgwOYMIGzY3MHhwSG/acjAAAzAAAxYDBw9dlYOHTmV0nbw8En53fX3hMSDJcvXp3Sflb4+y3pu9H7hktUyb+HyhOfnzF8qb0/9SF56bYJ89OmXos+OnpD0q3VbRXtthG8tOjwtk2bMS5hu9HvwN3kDBmAABmAABoqXAYQNhA2CPhiAARiAAQcycGPlJiGhwurdkKu9PqusweLkmR+H3vfRbs+XOb2yvg/3F2/wi+/wHQzAAAzYjwGEDQcGs2Rk+2VkfIpPYQAG0mUAYQNm0mWG62EGBmAABmCgUBlA2EDY4L9eMAADMAADDmTg4S79pGazx0rdrrujQainRHiPjj/fVL3Ue6309VnxAqHZ87+Qv9xcI6UtfPUUXXEl1fumz14Y99nx3odjBOwwAAMwAAMwUJwMIGw4MJglsxZnZsVv+A0GYCDfDOzbf9SsMmIJGpUbtA0tEfuzy2+XHv2GicsVyFg4UNHBSjtX+3emM89GvrnheZRVMAADMAAD+WYAYQNhI+OANN+w8jwKSBiAARjIHwO6XKsuwWoJDlf9u44cO35WFixeJZf9rVLouF7z9aZdGdUlOmnoDXc1Tmn76y01Qs/U3hup3vfBvMUZvRus5Y+1crP1Ba8Edu4R/5Kl4psyRbyvvCyeHl3F3flxcXd4RNxtW4u7ZXNxN2skrgZ1xFWzqrhqVGHDBhkz4Js0ifKIthcM5IgBhI0cGbbcKmm+h8ICBmAABmCgjAzM+vAz+dON1UJCws+vqCCLl60L2fXDT740y7Raoscvr7pDXh05Sfz+H0PXZLseZPJQBwgNZeQ2IXOBixL47nvxL/pcvKNHi6d7V3Hff1/GjVPEDcSdTBlA2KAcS1hO5ar8c1C6CBsOcjYZicIUBmAABmAgEQM+349mOdVKdR4MCRoqXKio8ca46TGCxRcrvparb68bca0OVZk8a76cPuOOuT7Rc1M9jrABu6myotcFtn0j3nFjxdOz26XeFvQyQMgpAAYQNijH0inHuDY9XhA2EDayHnySCdPLhNgLe8EADJQXAx5viaxYvVl69h8uV/6rdoRIoaLGH2+sKvMXrUhYTxw7cU6aP9Ir5r5fXXOntOjwtOjkoG53MOZ+fe72nfvT2l4ZOSn0HH1muvfrM8vLzjw3P3k8cOSE+KZNF3eb1jTiC6ARn2mvBjvfh7CRn7KAMteZdkbYQNgg0IMBGIABGHAYA4eOnJKGDz4pv/l75ZBYYA0r0b3OoaFih86pkUqAOGPOIrm5StO4af3hH1WlffeBcvDwyVBau/YejHtt+Dtk+7c+M5Vv4ZriC4j9y1aI56me6c2BUbeGEUA8PbubuTW8E98W38fzxb9mnfi3bJfAzr1m+Erg0DEJnDwrwfMeCeZwqBXcFR93+AyfwUBhMYCw4bBglgxYWBkQf+APGICB8mLg1mrNY8SFayvWlwFDxsm3B46lLQLoUJap738q/7wnVuC4pWoz8fp+CKWJsAH32eA+sGOXeLp2Kb13Rs2q4m7fTrzDh4pv/icS2PudBAMXQzxm411IA6ZhAAZgoHwZQNhA2KBihwEYgAEYcCADoye+Z4QNFSJ02dZFS9dkZfJPnUB02VcbpVvfIaGlYj/5bGUEY4ePnja9OLQnR742fSZBZ/kGndmyv/ag8AwamFzQqHOveF4YYHpgBF1+fO/AMi5bvJGOPcoN/Gh/PyJsUNBT2cMADMAADDiQgXPnvbL328M59b324li1bltOn0Gwav9gNdzHvk8+FVejeglFDV2i1TdjpgRPX4A7B5Zr4azw21llA/7G3wgbFPpU/DAAAzAAAzAAAzBQ2Aycc4vn2T4JBQ1Pl07iX7u+sL8BxvAPDMAADOSMAYQN4MoZXCinKKcwAAMwAAMwAANlZcC/dYe4WzaPK2q4Oz12abgJ8RzxHAzAAAw4mgGEDTKAozNAWYMt7idghwEYgAEYgIEcMRC4KL7p08VVq1qsqFHnXvFNncokoMSxxLEwAAMwYBhA2AAECgMYgAEYgAEYgAEYKCwGvCXieb5frKBRo4q4H3vULMWKoJQjQYm8UFh5AX/gDxhIiQGEDUBJCRSCB4IHGIABGIABGICBvDBw5oJ4OneKK2p4R7whQW8JsQvxKwzAAAzAQAQDCBsAEQFEXgIWbI7NYQAGYAAGYAAG4jAQ+P6IuB9qGStqNKgt/i++xGZxbEbshuAIAzAAA/8RhA0qCIIEGIABGIABGIABGCh3BvzbdoirSYMYUcP9SBsJ7D9U7u9Hw4HGIwzAAAwULgMIGwQyBAowAAMwAAMwAAMwUK4M+JevFFe9mjGihqd7Vwme95Tru9GQKdyGDL7BNzAAAxYDCBsEMgQLMAADMAADMAADMFBuDPjefTdG0HDVqCLewS9K0Md8GlbQzp4GHAzAAAwkZgBhg0Cm3AIZMmbijIltsA0MwAAMwIDtGdCVTwYOiC9qvPUW8QkxKgzAAAzAQMoMIGwAS8qw2D7AggVYgAEYgAEYgIG8MBA4fV7cT3SMFTVqVxf/os/z8g7ENYiHMAADMGAfBhA2CGAIHmAABmAABmAABmAgbwz4N20V9/33xYoaTRqIf8u2vL0HDRr7NGjwJb6EARhA2CCQIYCAARiAARiAARiAgdwzELgovsmTxVWzaoyo4W7TWgKHjub+HfAzNoYBGIABWzKAsAHYtgQb1RbVFgZgAAZgAAYKh4HA8dPi6dYlRtDQSUI9PbpK8Bwrn8Br4fCKL/AFDBQfAwgbCBsIGzAAAzAAAzAAAzCQMwb8X60WV5MGcUUN75BXJej/MWfPpnFSfI0TfIbPYAAGMmEAYYNAhmACBmAABmAABmAABrLOQODoSfG8NCiuoOFqUEd8n3ya9WdmEgxzD40oGIABGCh+BhA2CGQIKmAABmAABmAABmAgewx4S8Q3fbq46teKK2roaiiBQ8ey9zx8hy1hAAZgwPEMIGyQCRyfCVBoi1+hxYf4EAZgAAYKgwH/ug3ifqhlXEHDVbu6+CZNYugJsSexJwzAAAxknQGEDaDKOlQEl4URXOIH/AADMAADMJAXBjxB8S36TDxdOsUXNGpUEXfnxyWwex8xB3EnDMAADMBAThhA2ACsnICVl0AK3+E7GIABGIABGCg3BgL7D4l3/Hhx3Rd/YlBd8cTdtJH45n8iwcDFcntPYhIEPhiAARiwPwMIGwREBBowAAMwAAMwAAMwUDoDgYsS2PaNeCdMEPcjbRP2zlBBw1Wzqnhff02CZ12lp4vtk9ro7DmvuN3BpNdku9Hm87FSTbZtSnr2b1jj4/L1McIGlWleK0oyfPlmeOyP/WEABmAABtJiwFsi/tXrjEjhbt4kuZihgka9muIdPlQCBw4RX2QhxqzW5FH52eW3y5vvvJ8Xe44YP0P+8s975ZlBI3LyvNFvz5JKdR6UxcvWhdL3eEukbotOcv+jvULH4jG699vDSc9H3/P4Uy/KdXc0kI1bdie9r1XHPvLUgNeSXhOdNn9TjsJA4TGAsJGFSgewCw9sfIJPYAAGYAAGYCB9BnSJVv+Xy8U7btjzfXcAACAASURBVJx4enQVV734K5uYXhkqZPx30yEn3nfekcDp8zQQsxhbqtDwP3+9Te6s+1Be7Pr1pl3meddUqCd+f3Z7bUycNteINH/4R1XZvP2n+Va0N4p+459urBb3G48dPytPPvOK/OLKCtJ74Otxr4mX15u162nSXb1+e8J7jhw9Y665qfJ9Ca+JlzbH0i9bsBk2yzUDCBtZrHxy7SzSp0CAARiAARiAARjIGgMXfOLfsFl8M2aI5/l+4m7WOCRUWIJF0n2takb88H00V4Ke/A6VyJoNyiEOXL5qk3TrOySlrX23AabhrQ1/7YGQ6n36jHAbvffR5zJ20gcpbX+9pYZ5Zr+Xx6R0vaYd/qx4v6fPXig/v6KC/PKqO+SzpWsjrk8kbJw775U3xk2XP95Y1bzPdZUayqwPP4u4V5+1dsMOmf3xkpjtrnptzH2vjpwUc+7bA5eWG16weJW5RkWQeO/NMcpbGCgeBhA2yqFCI4MUTwbBV/gKBmAABmCgaBnwBCVw5IQEvtkt/tVrxbdgkfhmzTJDRdyPPWrmwUgqXIT1yAhdV6+WePr1Fd+nCyR45gKNwQziyPHvzjGNaRUrcrXpM8K5rVCrVc6epWmHPyv8t4oWA4eOk/+9sqJ5/qQZ82KujRY2du75Xnr2Hy7as0Pt8/sbqsiQUZMTzjMSLv6kas8p731i3uPlNyaaZ/R9aVTMe4V/B7+pB2Cg8BlA2MigQgLswgcbH+EjGIABGICBomTA94MEz3kkcPy0BA4elcDe7ySwfaf4N2424oQOE/Ev+lx8H88X3wezxTdtupnM0zt8mHj6PyeeJzuLu01rcTWqm17vi3gihjXM5L6G4n3lZfEvW0HPjCzEjTt2HRBt4EdvDz3R1zSyb7irccy58GtVtNCeD9qIHzBkXNxr9Rnh/FvChs4lMXT0u1nZNC19h0TCxpcrN8otVZuZa/S622q0iHgn6/0sYeNX19wpDVp3McNV9Hqd6+PZF0eKDhexro23/+SzlXG/51/V7zfP7t53SMz5LTsuDYVp0b63uUZ7bLwy4p24myWCxHs2x6hnYKBwGEDYyEIFBdCFAzS+wBcwAAN5YUAbnoePS2D3PtOVXxubvo8/Ec9TPbPWmAz9hzxJg5NrfprjAVtkyRb1a4nnySfEO3KE+BYsNMIKS7Xmp1w9cPCE6dmgQza+++9QiXjl2TvT5yUVFOLdYwkb4XNbxLsunWOaVjxh4+Qpl3Tq/VJIoLB6XlSsHdmzY993R8ykqE3adjfpaFq6VWnYTlRMUMEj+n3SmfcjlTk2dHiL9dxE+xrNOsS8R/R78Xd+8gh2xs7JGEDYQNigsIYBGIABGAj+RwKnzol/3QbxzZwl3rFvinfoEPEM6C+ep3qIu2N7cbe6X1wN6iBcILTYh4G6NcXTpZN4R7xhhpYE9nwriBjl23Bo899eGy8MGx+3XNaG/c1VmprGeCpzW1iNgHwKG/MWLjfvp8NP+rwwQtZv2mn+toSNTz//KqInhyUo/Prau2XD5uQrmOgkqg+0f0rcUXO66JK4x0+ej9gaPdTVPFfn9Ag/d+asx9hWhRV9tjV3h87fEb4NGvaWOa9zm1h2ZF+++QP7Y/9kDCBs0KChsIYBGIABxzEQ+PZ78S9dZlZx8DzX95JoQYPdPg12fJm6LxvVFU/PbuIdO1b8i5ewTGse64MVqzdL9DbyrUuroFxbsX7MOb3WWiVFh2noUI/o+79atzVueT555scybMwU0RVG5i5YJrfXbFmm7YN5i01amqamHd7YcLkC0rhNN7GGe+icGSogWMKGCgv/uLux6Znx4vAJ5hv0vE4SGp5O9O8LF/xy2d8qyRW31oq5rm3n58wzLJEk2V6Hu2jaOo+HXvf8q2Nj0tPz1lwob02JnK8k+r34m8Y2DBQGAwgbeazAgL4woMcP+AEGHMTAGZf4N28V37yPxTtqpHh6dhdXk/qpN/oSNZAb1BZ3y+aiEzBqmtqzwztsqLi7dil72omeyXFsmy8GGtcXT68eZslX/xdLJfD9kbgNP8rSzMvSQOBiyg3xZI306HO/u/6eUn01edb8Mj87ncZ+tLCh3Ph8Py0lq71QrJVYdJiNCiJbd3wbsamI82i35817N3zwyZhvHDVhprR+/JmUNp1L48SpC/Lb6yqb9PRZ+k4qKr099aNQ2k/0HmzO6xK4sJ4569gO2+WLAYQNhA0KaxiAARiwFQP+tevFO2qUER1ctaql3RhWwcIzcID4pkwR30cfiX/xF6JpBnbsksDBIxI867KVvfIVcPCcFINbnTz0vEcCJ85cmjx0337D3qXJQ9eJmTz0s8U/TR46PfeTh+r8JToUyzt+vJlXBl+m6MskdYslbOiEmb2eH56V7WeX3y6pCBseb4mcPuOO2b5Y8bXUa/mEacz/+abqogJIvOv0mKaRKgfxhI3oe3v0G2aeGy3UxPs7ernY6LRS+fuVkZPM83RJWL1ehRZ91q3Vmoe+S3uYqH+8mieT+JJzZc8P2BAbZoMBhA0KKgprGIABGCh6BrTR5x03TtyPPpy2kGEmShwzRsx/pg8fK3pbZCM4IA2bBJnxlnudOVO8rw0X9xMdxVXn3rTzixE5Hn1YfFOnSuAQ+SXTvGIJGyogxEtDV0HRoRLhk2WeO+8VnRAz0SodOqdFKsJG+PO00a5zYujQEUtEuPJfteXw0dNx38u6V8+/O+vSkqnWsUT73XsPyZ9urCbJJuHU91Bhpd/LY0RFjuhNxR/taZFoqI0+W99p3/6jSTedoFXn59Bv1O+1RJJTp13m73saPmy+++ixs2byU53INNF3cdwm5SQxoG0YR9gAZtvATAVDBQMDzmIgsO0bM0eG+/EOKTfOTG+MAc+Lb/p08a/fYP4zDjfO4gZ/h/nb94MEdu0V3yefinfECLMaiqterZTzk4ocOvmo76O5LAObZjyZTNgY/fYs06jW1VF0CIbFrM5r8YsrK5gGuK46onNZWOd0n6qwoSLCyjVbjHhgDQHRZ6loUv2+9iZ9FVbC07Z+n7/gk8Gvv20EFBUGVGywzpX3vkGrLubdLYEm3v6myveZ9x076QNp+Vif0Lvv//64ubd+y87m2LQPFpi/uz83NHRNeX8fzw8ru9LMb9jOGbZD2CBjUGDDAAzAQNEwYBphU6eKp2vn1BpfDWqL58UXzBwbgZ17iuY7CcKcEYQVpJ8DFyWwb7/4Fi4S7+uvibtZ45Tyml6nw7eC59zksxTqlHjChg6H0NVQtEGuQsPU9z+NseXnX64TnThUr7mjTmvRHggWR8mEDU1b55C4r233kCihaVxToZ55prW87JGjZ0R7kej8EzqExEr70JFT8vrYaXL17XXNs3UJ15demyDWCiPWdfH2OgmnDvEo66a9KOKlbx0bOvpdafdk/6SbrtJiXR++3/bNd+a7WnR42pzXeTW69R0iHy9aEff68Hv5TXkNA4XBAMJGCpUPsBYGrPgBP8CAMxkIfPe9+Ga9J55e3VNqYJn/Ij/T2/wXOXD0JEEp9RwMlIWBwEXxb94m3jfHpLZ6UIM64h0zWgLHTmH3JHaPFja279xvVgmxRI1kwzz2fntYrOVbr7ujgezYdcDYOpmwofWnNfmm3qNDO5au3BAxiaeumPLQf5eb1ffQ+Semz14oOlmn1VPkN3+vLP0GjzaTb6ZaJ7/8xkQjGmiaZdkOHs5dea49WPTdVBhJ9bu4zpkxCX4vXL8jbCSpdAC3cMHFN/gGBuzPgH/ZCvH0fSZ1MUO7xE+dJoE93xGYUrfBQI4YCOzcK96JE0ufz6bOveJ9+20JuiOHS1B2Xyq7w4UNFQ90kkptWOvcDwu/WF0qvzonhM4Hoff85eYasnHL7lKHohw/eV7irfChy6jqMrLWsJQW7XubpVnDRYjLrq5knrXsq5+GxqTqS0vY0DlDtOdIupv17ETChh6PXva2tL8tMcj6Bl3lRb9Xl5JNZ2JU63729o9J8HHh+xhhI0cVP/AXPvz4CB/BQGEyoKuQeHr3SknQcLd7SLzjxop/09ZSGwL4uzD9jV+K1y+B/YfEO3q0uOonnpfD3foB8a9YSf6MijfDhY1dew+KDu3QYSIbNu+WgUPHpbR9s/uA6eVRuUFbOXnKVaqwEZ3XdHjJkFGTQxNp3li5iSxYvMr4Spc91Yb+bTVaiPYQ+fTzr8zfD7R/Km1fWsKG9hKJfgf9W4eHaE+R8KEv4deVJmzoUq/hIkwqv60hJ9ZznnzmlVAaM+Ysivue1rXsi7fMwnf29h3CRlRFA/D2Bh7/4l8YKFwGfAsWiqf7k6UKGu7mTcQ7bKj4V14KwPFp4foU3zjEN2ddZpUUd7NGCfOvp89TEjh0lAbjf+POcGFD84mKG7pf8/WOUAO7tAb6pq17Qsux6r2lDUXRa3Sp1vfnLjYTher1+oz/u/YuM1+G2x0M+ee9jz435/5esX7omK4QotdrbwhNK9WtNGHj8ltrmnR1RZN4aZYmbOgwkr4vjYrZrr+zkUm3Q48XYs7p5KDhz6ra6NK36fdVa/JoxLnw6/idut+xFbbKNwMIG2kUzPl2Ds+jQIABGLA9A/4fzcSe7s6PJ2wQ6ZwZZonJR9peWn3hLJMT2p4L6ubibFhd8Il34tviqlsjfn5uUFtUwITf/0i0sGHZxBI2KtZuJR9+8mXc7d/VHzANdhU2rPt0n0zYWLxsndRt0Ul+edUd5l5twGs6OuHm94d+mrtCV1rRlUD0vG4/u/x2OXvOa56zaOkac0xFgPDnlvY7mbChz9bnqLiiNomXVmnChnWPvnv48rgNWl9aJUWH6eg1OhRHl561rrf2+n2/vvZu02vmtnsv2VZ7zljn2ROLwUBxMICwQfBEwQ0DMAAD+WfA5Rff7DnifuyR+A2g/4oZRtB4oKn4pk2T4IVLwTUBRnEEGPjJuX4KHDomnoEDEuZtzwsDHJ+fSxM2dOnSRHmoZrPHjBiQjrCx77sjZh4PnUNCh4TEm2tj3sLlckvVZiZtbeDrEBcVHVav3x56F2s52NnzvwgdS/Se1vFkwsb8RSvMM2o175gwvVSFDRVkdHJTq+dHuLChQ3VUvIgnyuiStfqdj3R93vRm0d+PP/Viwvexvou9c8s4fF+YvkfYoEFDwQ0DMAAD+WPgzAXxzZwpOjeG1RMj4b5+LfGOHyeBIz8tZ0gwUZjBBH7BL/EY0NVU3I89Gjevu1u3kMCOXfkrewqsnM+3sKH+2brjW/H6foix+cq1W6VGsw6mca/CgPbi0Ot69BtmjoWv0LJk+XpzTCcatXpCxPN9+LFkwsaDnZ416am4EH5P+O9UhA0dRqPL1GpPF+vecGFDj7Xt/Jx51qp120LX6CSsf7qxmjmuPVLULyrqqAhS2vKy1nPYU/7BQGEwgLBRYBUdGaMwMgZ+wA8wkF0GAsdPi2/KFNHGTEIhI6yXhnf4MAns+TYUfOKP7PoDe2LPvDGgw80mTxZXrWqxeb/2veKbMVOCCYYg5O0dyyEWLE3YuLVacxk3eXbc7abK95mGeDo9NqJtqULA1Pc/Da2sor0UmrXrKd8eOBYqdzv2GmSeo6u2hN9vTbSpgkB4b47wa8J/j3xrhlz17zpmQtTw4zo8Rp+rS8nqBKXnL/hkzvylZh9+3YvDJ8iAIePkzFlPxHuEXzN55scmrdfHTgtdEy1s6Lvq83SiUuteTVeP6SSp1jAWnYNEj2nPGFZIoay0WGFf+CwgbJRDZUbGKPyMgY/wEQxkjwHfvI/F3eqB2EZNmJBhiR2eFwaywgn1UqjRQT7MXj4sb1v6t+5IKGx6nu0jQZffUX4vTdjQhnVpW7rChj5TJ/7UoSjWhJ36DJ1r46NPv4yxv67Soue1J0M4PyoAWL0ffnf9PZLJErDaG8Ia9qJpafr6Xvo87S3R8rE+MuvDz0Lze4Q/P/q3DjPRITa6ssyx42dD7xotbOh9OgGq9gA5ceqCGY6j76/P/HLlT8vYWr029Hin3i+F0ot+Ln/bp3zCl/bwJcIGASQFNgzAAAzkhAHtZu7p3y81QePpp1jlBA5zwiEBawEFrOc94n15cNwywd3+YUcNO0skbGjD/J3p81LatHFu8a0TZ+pEn9pQt46F718YNl6uvr1uSCz5/Q1V5InegyV8WEb49efOe41QoI377Tv3x6SpQ1Us4UOFiPWbdsZcE56e9Vsn8Bwz8T35y801zLvccFdjIzLo+a/WbZWe/YfL326rE3rPX11zp+lhocNlrDSi9937DjHXD39zSsQ18YQNfU/tHbJ81abQ93V99tWI+zR9nYNEv0u/f/Tbs2LOR78DfxdQOUNd6lheETaA37HwUwlRCcFAjhgIXDTDTlz1asVtwFi9M3Svq6H4Fn1GOURdBAMOYsC/ZKm4GtWLKR/c9zUU/5af5j+wcxmdSNhI55u/2X1Adu753kyW+crISaYRrpN7xktj9MT3zHmdS2PyrPkxwz30Hn2nI0fPGIGh+SO9zPU630S89PSYiik6XOPeph0kfKlYPafDRnQJW12KdcacRfLsiyPNqiyX/a2SSVcFg6YP95BjJ87FpK89Qpau3CA65OWPN1YNXX93/Taiy7S6PT8tS6vP0uEz2rNCj+twFj2my9peV6mhuVdtpMesbcHiVSHRoknb7uLz/Rg6Z12je2vJWx0qE91rJfw6fv9kW2yBLcqTAYSNsIKuPB3BsykIYAAG7MCAf9Ua8XTtEtNgCRczrN/et9+OG0zawQ58A/kZBpIzEDh0NP4kwrWri3/R57YvG7IhbFjig4oE1qYTf8ZjTxvvKjTEO6fHdBiI9viw0tG9Du8orUGvAob2wohOt92T/SPSstK9pkI901Mk3qos0Wno35q+zpuh91lp6DCVeNfqsQq1WpklbXXpW71e5yoJv1bfVSdI1XM6p4j2TAk/H/2738tjzLXh83JEX8PfyfM69sE++WIAYQNhI2mBni8QeQ6FHgwUNwOBE2fEO3JkSoKGrpLgX7mKsof6BwaczsAFr+j8GpbYGb73jhtn+0lFtZeBCgqZ1n9zFywTXVVEN53oc+GS1aEJMNNNc/P2fVK18SOmsa+roYwYPyM0RCTdtPT6DZt3S72WT5hlUwe//rbMnLMoYmLSdNPUSTx1dRbttaE9VRLdP2TUZKl9/+NS54FO0velUaLfFX3t21M/kudfHWt6qESfi/5be4/0Gzw6pbk+ou/l7+KOa/Bf8fkPYcPpQQXfH1PhUZAVX0GGz8rXZ74FC8Xd9sG4jZPwhor+9r7+mgROx/53Dx+Wrw+xP/YvNwYCF8U7fnzc8sPT9xkJugPU08RqMAADMAADpTKAsAEkpUJSbsEOvsE3MFDQDOhyrJ5BL8RtkEQLGu6WzUUFEMoTGtAwAAPxGPB/sVRc9WrGlCfuTo9J4FTsPAzx0uAYbMEADMCAcxlA2KDhREMDBmAABtJmwDdzprga149phEQLGvq3Z+AACexPPLabIMS5QQi+x/fhDOhKSu6mjWLKFXeLZhLYuSftcio8bX7DGgzAAAzYmwGEDRo0BAowAAMwkDID/m07xNOrR0zDI56g4apfS3zvvZdy2gQc9g448C/+TYWBwOHj4n44ztC2OveKb+48yhPqKxiAARiAgbgMIGwARlwwUgk+uIYgFQacxYBv4SJxNWmQkqih4od/y3bKF+oYGICB9Bk45xZPz+5xyxrPS4MkGLXcJ3WRs+oi/I2/YQAG4jGAsEHAkX7Agc2wGQw4jgHvxLfjNjLi9dRgGVcCjngBB8fgIi0GfD+Id9SouOWO++GHRHuPpZUe9Rb2ggEYgAFbM4CwAeC2Bpygh0AaBsrGQOD4afG8MDBu4yJa1HC3f5hlXKlTqFNgIKsM+FesFFeD2rFlUM2q4h07llVT4C2rvBEzlC1mwH7YrzwZQNigQqBCgAEYgIG4DPg3bhZ3x/axDYoaVWKOebp2lsCBQ3HTKc9KjmcTZMFA8TMQ2H9I3G1bx5Q7Kq66Wz8g/s8WSzBwkfKHugwGYAAGHMwAwoaDnU+wV/zBHj7Eh7liwPfxfHHVj/Nf0niixjNPS/DMBYIJ6hMYgIHcMXDBJ94Rb8QVN4zA0fFR8a9eh8ABg7ljENtiWxgoaAYQNgC0oAHNVaONdBEEYCAxA95xYxM2HqKHn3gGDaQMoR6BARjIGwP+rzeJu2XzhGWU+4Gm4n1zjOjSsZTzict5bINtYAAG7MYAwgbBCBU/DMAADBgGAoeOiadf34QNhmhRwzt8GOzADgzAQP4ZuOAV72vDSy2r3G1ai058rMPqgr6S/L8nbGBzGIABGMgbAwgbwJY32OymCvI9KN12YsC/dr24H2lTakPBEjfMpH2Un5SfMAAD5ciA9srwdO6UWrlVv5Z4+jwlvhkzJfDNboaslKPf7FR38i3EgjBQOAwgbFCwE5TBAAw4nAHfnA/FVat6ao2DGlXEN306zDicGQK5wgnk8MV/xL9shXie6iGumlVTLsdcdWuI+6FW4unZXbyvvGx6dujcQv4168S/ZbsEdu6VwLffi/ZkC5w8K8HzHgn6f6Tso+yDARiAgQJlAGGjQB1DoELQCAMwkA8GvKNGpt4QqFFF/F8spUKn3oABGChIBgJHTohv6lTRIShW7zL2satYYZPys4lv0qSCzDv5iDd4BnFtrhlA2CA4oYCFARhwKAOeAf3TCv6ZjI+gJNdBCenDWLYY8G/dYSYRdXd6LL2eHHFWfkIIKD8hwG62R9igjMtWGUc6sSwhbDi0QUNmiM0M2ASbOIkBT99nUhc1GtVjOVfqCgRQGCheBs57xL9qjXjfGi+eJ58QV+3Uh97ZrWHN95SvSIOwQazppFgz39+KsEGgUryBCr7DdzCQEQOe3r1SFjXcD7XM6Bn5rsx4HsEiDMBAygz4fhAdtqJzafi/+FJ8778v3jffFF2+2tOjq7g7Py7uDo+Iu21rs7Ssu1kjcTWoQ88PerOkXHcmEpAQNiinUi6niHHTjj8RNoAmbWjIkBTKMFC8DGjQnijgij7u6d6V8oE6AgZgAAZgAAZgAAZgoOAZQNgA0oKHlEZ08Tai8V1h+c7TJcVlEWtUMf+txH+F5T/8gT9gAAZgAAZgAAZgID4DCBsIGwgbMAADDmDA3bF9yj013K0fgAkHMEFgFD8wwi7YBQZgAAZgAAaKjwGEDYJXGjAwAAM2Z8D9SNuURQ1X43oS9P8AEzZngoCt+AI2fIbPYAAGYAAGYCAxAwgbBK80YGAABmzMgLtNq9RFjRpVJHDqHDzYmAcCosQBEbbBNjAAAzAAAzBQvAwgbBDA0oiBARiwKQPuls3TEzX2H4QFm7JAoFa8gRq+w3cwAAMwAAMwUDoDCBsEsTRkYAAGbMiAu1njtEQN/7YdcGBDDgiESg+EsBE2ggEYgAEYgIHiZwBhg0CWxgwMwIDNGNB5MqKXbk32t3/VWhiwGQMEaMUfoOFDfAgDMAADMAADqTOAsEEwS4MGBmDARgy46tVMT9T4bDH+t5H/CYBSD4CwFbaCARiAARiAAfswgLBBQEujBgZgwCYMuGpWTUvU8M35EN/bxPcEZvYJzPAlvoQBGIABGICB9BlA2CCopWEDAzBgAwbcrVukJ2q8OwW/28DvBD7pBz7YDJvBAAzAAAzAgP0YQNggsKVxAwMwUOQMeJ7tk5ao4R0zBp8Xuc8JyOwXkOFTfAoDMAADMAADmTOAsEFwSwMHBmCgiBnwjhuXnqjx6iv4u4j9TcCTecCD7bAdDMAADMAADNiXAYQNAlwaOTAAA0XKgG/BorREDU+f3vi6SH1NIGbfQAzf4lsYgAEYgAEYKDsDCBsEuTR0YAAGipAB/9cb0xI13K0fkMC3B/B1EfqaYKfswQ42xIYwAAMwAAMwYG8GEDYIcmnowAAMFBkDgb3fpSVquGpUEf+y5fi5yPxMAGbvAAz/4l8YgAEYgAEYyB4DCBsEujR2YAAGioiBwMmz4mpYNy1hwzd1Gj4uIh8T5GQvyMGW2BIGYAAGYAAGnMEAwgbBLg0eGICBYmEgcFE8XTqlJWp4Xx6Mf4vFv7wnrMIADMAADMAADMBARgwgbABORuCgfDpD+cTPheVn79AhaYka7ic6SuD0efI45TwMwAAMwAAMwAAMwICtGUDYAHBbA07DvLAa5vgjc3943xqflqjhalhH/Ju3kr8p42EABmAABmAABmAABmzPAMIGkNsechrTmTemsV1h2M733nvpiRo1qohv/ifkbcp3GIABGIABGIABGIABRzCAsAHojgCdBnphNNDxQ/p+8C36LG1Rw/vmm+RrynYYgAEYgAEYgAEYgAHHMICwAeyOgZ1GdfqNamxWvjbzr16XtqjhebYPeZpyHQZgAAZgAAZgAAZgwFEMIGwAvKOAp6Fevg117J+6/QPf7BZ3y+ZpCRvuh1pKYP9B8jTlOgzAAAzAAAzAAAzAgKMYQNgAeEcBT8M69YY1tipHW7n84unaOS1Rw1WjivhXfEV+pkyHARiAARiAARiAARhwHAMIG0DvOOhpsJdjg538llJ+8454I21RwzdjRkppwz/8wwAMwAAMwAAMwAAM2I0BhA0aWjSGYAAGCogBXc1Ee1+ks3lffQUfFpAP7RYo8D0EvzAAAzAAAzAAA4XOAMIGwTANIhiAgQJhwMyrcV/DtEQNT5dOEjzrxocF4sNCr/R5PwJTGIABGIABGIABOzKAsEEwTIMIBmCgEBgIXBTPUz3TEjXMvBobNuG/QvAf7wCHMAADMAADMAADMFBuDCBsAF+5wWdHpZBvQgHPlAHv2LFpixq+SZPIv5ThMAADMAADMAADMAADjmcAYYNM4PhMkGlDlPsQMbLFgP+zz9MWNTw9u5F3Kb9hAAZgAAZgAAZgAAZgIPgfQdggI5ARYAAGypGBwL794m7RLG1hw88QFLgtR26zJeqRDgIxDMAADMAADMBANhhAcokalgAAIABJREFU2CAwpHEAAzBQjgx4+j6TtqjBEBQCgGwEAKQBRzAAAzAAAzAAA3ZhAGGjHBs0doGI76BAhIHMGPBOnJi2qMEQlMxsDaPYDQZgAAZgAAZgAAbsywDCBsIG/62HARgoBwb8Xy5PW9RgFRT7VsYEWvgWBmAABmAABmAABjJnAGGjHBo0AJs5sNgO29mBgcDBo+Ju0yptYYMhKPBvB/75BjiGARiAARiAARjINgMIGwgb/LceBmAgzwx4Bj6ftqjBEBQCgGwHAKQHUzAAAzAAAzAAA3ZhAGEjzw0au4DDd1AIwkBmDPimTk1b1GAISma2hlHsBgMwAAMwAAMwAAPOYABhA2GD/9bDAAzkiQH/qjUZiRoMQXFGhUzghZ9hAAZgAAZgAAZgIDMGEDby1KAB0MwAxW7YzS4MBI6fFnf7dmkLGwxBIQ/YJQ/wHbAMAzAAAzAAAzCQKwYQNhA2+G89DMBAHhjwDnklbVGDIShU/rmq/EkXtmAABmAABmAABuzEAMJGHho0dgKGb6EAhIH0GfAv+SIjUYMhKOnbGj6xGQzAAAzAAAzAAAw4jwGEDYQN/lsPAzCQSwbOucXd4ZG0hQ2GoDivQiYIw+cwAAMwAAMwAAMwkBkDCBu5bNCQNg1mGHA8A97x49IWNRiCklmFRiCA3WAABmAABmAABmDAmQwgbNDwdHzDk8LPmYVfPvzu/3pjRqIGQ1BgMh988gw4gwEYgAEYgAEYsAsDCBsIGwgbMAADOWLA81TPtIUNXTkleN6LT3LkE7tU3nwHgSgMwAAMwAAMwAAM/MQAwgbBMw0oGICBHDDgmzkrbVFDh6D4Pl2IP3LgDyr+nyp+bIEtYAAGYAAGYAAG7MYAwgYBNI0oGICBLDMQ2POduJo0SFvY8Dz3LL7Isi/sVmnzPQSiMAADMAADMAADMBDLAMIGQTQNKRiAgSwz4HlxUNqiBhOGxlZQVNrYBAZgAAZgAAZgAAZgIBUGEDay3KBJxehcQ+aEAfsy4FuwMCNRwztyBAIT5TEMwAAMwAAMwAAMwAAMZMAAwkYGRqNRat9GKb7Ft2VhIHDijLgffjBtYcP9QFMJHDpGJUZ5DAMwAAMwAAMwAAMwAAMZMICwkYHRytLw4V4azjBgXwa8o0amLWqYCUNnvUcFRlkMAzAAAzAAAzAAAzAAAxkygLCRoeFonNq3cYpv8W0mDPhXrclI1PB07UwFRjkMAzAAAzAAAzAAAzAAA2VgAGGjDMbLpPHDPTSaYcCGDAQuiqdbl4yEDf+Xy6jEKIdhAAZgAAZgAAZgAAZgoAwMIGyUwXg0UG3YQIUHCtQMGPBNmZKRqOF5aRD2zsDelL2UvTAAAzAAAzAAAzAAA+EMIGwQVNOwggEYKAMDgR27xFWvVvrCRt0aEvhmN7Yvg+3DKzN+E9zAAAzAAAzAAAzAgHMZQNggqKZhBQMwUAYGPM/3S1/UqFFFvBMmYPcy2J3AxbmBC77H9zAAAzAAAzAAA9EMIGwQWNO4ggEYyJAB37yPMxI13O0ekuDpC9g9Q7tHV2T8TXADAzAAAzAAAzAAA85mAGGDwJrGFQzAQAYMBI6eFHerBzISNnwfz8fmGdicgMXZAQv+x/8wAAMwAAMwAAOJGEDYILimgQUDMJABA96xYzMSNTx9emPvDOydqBLjOAEODMAADMAADMAADMAAwgYBNo0sGICBNBnQST9dde7NSNjwr12PvdO0N8EKwQoMwAAMwAAMwAAMwEAyBhA2CLBpZMEADKTJgPeVwRmJGt7XhmPrNG2drALjHAEODMAADMAADMAADMCAMoCwQZBNQwsGYCANBvyr12YkaribNpLA/kPYOg1bE6gQqMAADMAADMAADMAADKTCAMIGQTYNLRiAgTQY0DkyXDWqpL35Jk/GzmnYOZUKjGsIdGAABmAABmAABmAABpQBhA0CbRpbMAADKTLgW7AobUFDRRB3q/slcOIsdk7RzgQoBCgwAAMwAAMwAAMwAAPpMICwQaBNYwsGYCAVBrwl4n68Q0bChm/qNGycio25Bk5gAAZgAAZgAAZgAAYyYABhIwOjpaMccS1KIwzYgwHfzJkZiRruh1pJ8MwFKijKWhiAARiAARiAARiAARjIEQMIGzkyLI1ZezRm8SN+VAYCR0+Ku0WzjIQNFUTgCI5gAAZgAAZgAAZgAAZgIHcMIGwgbNDoggEYKIUB79ixGYka7nYPSfC8F/uWYl8q+dxV8tgW28IADMAADMAADDiBAYQNAm4aXTAAA0kYCHyzW1x17s1I2PC9/wG2TWJbJ1SyfCPBJAzAAAzAAAzAAAzkngGEDYJuGl4wAANJGPC+MjgjUcPdvp0EPUFsm8S2VPK5r+SxMTaGARiAARiAARhwAgMIGwTdNLxgAAYSMOBfvTYjUUOXePV9+BF2TWBXJ1SufCNBJAzAAAzAAAzAAAzkjwGEDQJvGl8wAAMJGPD06Z2RsKHLwgb9P2LXBHalks9fJY+tsTUMwAAMwAAMwIATGEDYIPCm8QUDMBCHAd+CRRmJGqa3xryPsWkcmzqhUuUbCR5hAAZgAAZgAAZgIP8MIGwQfNMAgwEYiGbAWyLa60JFinQ3d+fHsWe0PfkbJmAABmAABmAABmAABnLIAMJGDo2LUpd/pQ6bY/NsMOCbOTNtQcMSQHyfLqDSolyFARiAARiAARiAARiAgTwygLCRR2Nno8FFGjTcYSC3DASOnhR3i2YZCRuerl2owChTYQAGYAAGYAAGYAAGYCDPDCBs5NngNEpz2yjFvti3rAx4x47NSNQwc2ss+oxKjDIVBmAABmAABmAABmAABvLMAMJGng1e1kYX99Nwh4HcMRD4Zre46tybkbDh6dmNCozyFAZgAAZgAAZgAAZgAAbKgQGEjXIwOg3T3DVMsS22LQsD3teGZyRqaG8N/5IvqMQoT2EABmAABtJi4MDBE3LFrbWkcZtu4vX9UOq9O3YdkGsq1JPHn3qx1GvLUh/m8t7TZ9zypxurya3Vmkd8g9//ozl+bcX6Ecdz+S6kTdwIA/ZhAGGDCpjKAwZgIPgfCezaJ65a1TMSNjy9e2FD8hEMwAAMwEDaDPToN0z+56+3ScvH+qR0b6/nh5vrn+g9OKXrtdGmgonbHUy6qajw2dK1UqNZh7S3JcvXx32X1eu3yysjJ8VsA4eOM9/wu+vviTj38hsTzfHL/lYp4nh4GidPueI+i8apfRqn+BJfZsoAwgaVMBUEDMCABn4jR2QkapjeGl8ux4bkIxiAARiAgbQYOHj4pPzqmjtNY/4v/7xX/nF347hb5QZtTboXLvhNjwYVQv56S42411ppTJjyYehd2ncbYJ6h9yXa5i1cLtNnL0x4PtF9enzWh/Hnl3pj3PSM0kv2rD37DoW+K9PGD/fRcIYBezKAsEElTAUBA45nILBvv7jq1cxI2PA8m9p/2ahE7VmJ4lf8CgMwkAkDgcBFaf5IL9Pw154LV/6rtvz8igrm7z/fVN38rcd0+3f1B0w9/dzg0eb8b/5e2Ry3RBHrb+t63b/5zvuhuv3pgW/IdXc0MNtV/65j0vjFlRVCx/Sc9tawhI3OTw8WFVGsrf8rb5p7+r40KnRMz+lwmGTCxrHjZ2Xztr0x28q1W819Ks6En9+4Zbc5/utr7444rtdUrN3KnEPYIL9lkt+4xxncIGzQqA1VfGR6Z2R6/BzrZ++Y0RmJGqa3xoqvyEOUozAAAzAAA2kxYA27UBHj2wPHzL3WsJQufV6OSWvdxm/kf6+sKCpIfL1plzn/0adfmsb+v6rfL25PMOaeePW9JR7oPB3R5y1ho1vfIRHnXhg23jxHBY7we/Q9kwkbeq3HWyIuVyBiO3z0tLlPBZjwc+fOe83x315XOeK4XlO1UTtzDmEjNoYJ9wm/sY+TGUDYoCKOqKScnBn4dmdWBoH9h8TVsE5GwoanZ3fyD2UoDMAADMBAWgws+2pjqHfG3AXLQvfq/BHai+Fnl98ueo3GJWfOeuSrdVulbotOpmH/zKARoev1fLN2Pc3xQcPeijieKKbJt7BxW40W5v2SDS9J5xzChjNjtUQ8cxwewhlA2KAyTqkiDIeG3xQidmLAO25cRqKG9tbwfbqA/EMZCgMwAAMwkBYDPt+PMvzNKaJDS6LrU50bQ+fU0N4Yem78u3OMMKDDVrRHxfkLvoh7tLeHDh1ZtW5bxPHodK2/UxE22nZ+TnT1FWvr3neIeQftoWEd0/1DT/Q1xxPNsaHDVbSHiQ616dl/eGizhrD8/oYqoWN63uqx8sur7og4Hn7vsRPnUvpO63vZE7PCgHMYQNigMqaCgAHHMhA4eFRcTRpkJGy42z8sQf+PjrUdgYJzAgV8ja9hIPsM6LwRazfsKHVbsXqz6NAMFQh0HoxU7tG0E/ksFWEjnR4UyYaiWHNpNH24R8T7WMerNXk04rgKPpqeCiGJ3p/j2WcRm2JTuzCAsEGjlsoDBhzLgHfChIxEDdNbY8YMx9rNLhUg30EwBwMwUF4MXFepoWnEpysipHK9pp3ou1IRNnTODu1VYW2V6jxo3lUn8LSO6f6Wqs2S9tgYPfE9c/7mKk2lRYenQ9s9DR82x6++vW7omDnfvrc5rnOJhF8f/Tt8+E6i7+Q4eRsGnMcAwgaN2oSVHwWC8woEJ/k8cOSEuJs1zkjYcDdvIoHjp8k7lJ8wAAMwAAMZMWAJG92fGyq62kg2Nk1LhY+yChvZmjxUh9pcf2ejiM1alcV6z+jzelznGIk+rn/rRKt6XofnOCle4VuJx2EgNQYQNqiQqRxgwJEMeCdNykjU0N4a3rFjHWkzKtbUKlbshJ1gAAZKY8ASNo4cPZO1+kTTsgSD8Od/d+CYDH79bbN1ffZVc43Ob2Ede2XkJPMOuVgVJfw9dPnXhg8+aZ7f7sn+Md9d2lCUPi+MMPe+P3dxzL3hz+E3+Q8GnMkAwgaNWioHGHAcA4ETZ8TdollmwkbNqhLY863jbEaQ4MwgAb/jdxjIDQPRwsaddR+SCrVaZbwFAhclkbCxfNUmIwio6BFv+9U1d5o6LVfChtf3g4yd9EGox4UOYTl9xh1Tj8YTNlav3y6Llq6RaR8sML04fn5FBTl4+GTMvXCaG06xK3YtJgYQNmjUUjnAgOMY8E2Zkpmoob01Xn3ZcfYqpkqNdyUIgwEYKAYGajZ7TG64q7FYq3zoSiAqOqi4cUed1ilv2tDX+/z+H01amqamHW6D7w+dlDfGTTeb1evhD/+oGjo2asJMc70lbNxarbl07DUotOn76DN0jo3w48nm2NDvmvLeJ9L68WdEn2UJKu27DTBL2Ia/n/U7nrChQ3Sse/94Y1XReTus69mT12EABsIZQNigUUsFAQOOYiBw+ry4Wz+QsbDhX7/BUfYKrzD4TQABAzAAA7lhwBI2dInUdGysK6ZYwkYq96UyeaglJKS6j7fc65z5S0OChKZzd/02ZrlafX6y7cuVG2XZVxtD16xcs0U0rSXL18csdZvK93JNbnjFrti1EBlA2KBRm1YFWogQ804Urukw4Js+PWNRw/NsH/ILZSYMwAAMwEDWGSgEYePkKZds2ronZuvS52UjUnTq/VLMOb3+1GlXXHvo8JPFy9bJ86+OjRA5UhVMoq/TYSnp1PdcS3wIA85iAGGDyplKAgacw8A5j7jbtM5Y2PAv/sI5tiJf4GsYgAEYyBsDlrDxm79XFu2FkepmNf51KEoqjbhkPTYS3f/CsPFGmOj/ypspPSM6nZffmGju1yEt4cvFpvr78ltrmvsRNpzVSI3miL/xf2kMIGxQaWdUSZUGFucpfAqRAd+s9zIWNdxPdCSvUF7CAAzAAAzkhAFL2Lj/0V7SosPTaW86eWgq9W55ChsDh46L+47zF60Q3RL1/KjaqB3CBvkuLjupMM81zmmTIGxQUFBQwIAzGHD7xd2uTcbChm/2HGfYifyAn2EABmAg7wxYwka6c2yk22iLJ2ys+XqH+d7Rb88S7ZURvd3btIMRFqo1eTTmnF47ppQJPa0eG4mEjb/8816T/r7vjsS1O8KGcxqm6fLM9bARzgDCBpV33EokHBJ+U2jYgQHf7NkZixru1i0keC52aTo72IVvIH/DAAzAQPkzYAkbb77zvkyY8mFG27cHjpUa01nChg7vGDF+hvy7+gNiLfeqv62hLensdSWXZAwlEzZ27vnePPOqf9dJmAbCRvnzmcy/nMM/hcIAwgbCRsKKpFAg5T0oMMvMgO8HcXdol7Gw4X3nHfIJZSUMwAAMwEDOGLCEjXQEhehrdThHovrS7Q6KrjDy7IsjI8SLy/5WSZo/0svcN3v+FzJx2tyYrVm7nuaeJm27x5zT63XVkkTP1ePJhI13Z31i0tbhN4nSQNggDkzEBsdhI5wBhA0q6YQVSTgo/KbgKGYGfB/NzVjUcDWoLYEDh8knlJUwAAMwAAM5Y8ASNnRZUxUg0tmq39feiAOJhA2dpPOyqyuFBI1fX3u3tGjf2yy/evpM6b0RszV5aPRQFB12c3OVpua9tPdIojgDYYMYNBEbHIeNcAYQNqikE1Yk4aDwm4KjmBlwP94hY2HD+/pr5BHKSRiAARiAgZwyYAkbmcyxYfWoSCRsPDNohPz+hirStvNzor0yzl/wpfUtZRU2dA6PURNmyqp12yKe27P/cCNq3HBXYzl33iujJ74nlRu0FRVAVq7dKj7fpZVe3p+72Nx/+OjpiPuLOS7h3YmrYSD7DCBsUFFTScCArRnwf7Y4Y1HDVaOK+Ldst7V9qFizX7FiU2wKAzCQLgOWsLF+007ZsmNfWlvt+x9P2mPj+Mnz4vYEM67LyipsRNvim90H5OEu/eRnl99uti9WfC1e3w+iAo0OjbGG2PzpxmrSqmMfmTlnkbhcgYzfP/r5/E3+hAF7MoCwQaOWigIGbM2Ap+8zGQsbngHP29o2VOz2rNjxK36FgeJjwBI2rEZ9JvtEPTZK40GXitWhKom2X1xZwYgNuk90jU48Gv4cTfPEqQuik4MuXblBxk76QLr1HSK3VmseEi60F8mkGfMi7jtz1mN6lXTsNUh0QlHLDn+8sap0fnqwfLVua8T14c/kd/Fxj8/wWTYZQNigUUsFAQO2ZcC/eWvGoobprbHiK9vaJpsVCWkRmMAADMBA2RiwhI12T/aX9t0HprVdW7G+EQDKImzovBtl2W6v2TKivtThL5YoEb7XXhoVa7eSYWOmyKEjpyLuiWZIxZHPlq41vTYs+2ha/V4ek/S+6HT4u2xsYj/sVywMIGzQqKVygAHbMuB94/WMhQ1Pj662tUuxVFC8J8EUDMCAUxio0ayDVG38iOjqJel+c++Br8uddR+S5as2pX1vus9K9frvDhwTnfRTVzvp0W+YvD52mujEqKdOuzJ6xyNHz8jQ0e8aG+nQmlTfg+soQ2DAOQwgbNCopXKAAVsyEDhyQlyN62csbPjmf2JLu1DBO6eCx9f4GgZgAAZgAAZgwCkMIGzQqKXxBgO2ZMA3fUbGoob7wZYSdPltaRenVG58J4EcDMAADMAADMAADDiHAYQNGrU03mDAlgy4H3s0Y2HD+9Z4W9qEyt05lTu+xtcwAAMwAAMwAANOYgBhg0YtDTgYsB0D/sVLMhY1dNLQwM49trOJkyo2vpVADgZgAAZgAAZgAAacxQDCBo1aGnAwYDsGPM89m7Gw4Xm+n+3sQcXurIodf+NvGIABGIABGIABpzGAsEGjlkYcDNiKAf+W7RmLGmaJ18VLbGUPp1VqfC+BHAzAAAzAAAzAAAw4jwGEDRq1NOJgwFYMeEeOyFjYcD/SVoKBi7ayBxW78yp2fI7PYQAGYAAGYAAGnMYAwgaNWhpxMGAbBgLHTon7voYZCxu+yZNtYwunVWZ8LwEcDMAADMAADMAADDiXAYQNGrU05GDANgz4Zs7MWNRw1aomgW+/t40tqNidW7Hje3wPAzAAAzAAAzDgNAYQNmjU0pCDAdsw4O7YPmNhw/PSINvYwWkVGd9L8AYDMAADMAADMAADzmYAYYNGLY05GLAFA/4lSzMWNcykoctX2sIOVOrOrtTxP/6HARiAARiAARhwIgMIGzRqaczBgC0Y8PR/LmNhw/14B1vYwImVGN9M8AYDMAADMAADMAADMICwQaOWBh0MFD0D/m3fZCxqaG8N34wZRW8DKnQqdBiAARiAARiAARiAAacygLBBo5YGHQwUPQPeUSMzFzYa1JHAoWNFbwOnVmJ8NwEcDMBA1hk4fUSCWz+WkoUDpeT9x6RkWispeaeRlIy5R0rGVGazkw1Wv0P9TxwMAzZhAGHDJo7MeqWOXSjkioSBwPHT4m7WKGNhwzv0VXxdJL6mnKMBCwMwkBMGAhcl+P1mKVkyREomN0W4sJNwUdq3IGwQAxED2YYBhA1gtg3MOQl24KPg+fC9917GooaZNHTNuoL/RtimMQcDMAADOWDAdV5KVoyRkncaImaUJgDY9TzCBjEQsb5tGEDYAGbbwEzQl4Ogrwjyh7vTYxkLG56uXeC/CHxM3nZm3sbv+D13DFy8NNRkQl0EDbsKFql+F8IGcRBxkG0YQNgAZtvAnLsAiOCyUG3rX7osY1HDTBo6ew78UwbCAAzAgJMYOLZPSmY9mlzQ0B4cnzwrwfXTJLh/gwSP75PguZMS9AVgxUms8K3wDgNFxQDCBsAWFbCF2sDmvcpH/PE83z9jYcPdtJEETpyBf8pAGIABGHAKA9s+lZKxVeOLGuNrSMnngyV4cAs8OIUHvhPWYcBWDCBsALStgEZgKB+BoTzsHti+M2NRQ3treEe8AfuUfzAAAzDgBAYCP0rJspEJBY3guikS9HhgwQks8I1wDgO2ZQBhA7htC3d5NLZ5Zv6EFe/48WUSNvwb+a8cvOaPV2yNrWGgnBgIXJSSBf3jiBr3SMmiQRI8d4o4iFgYBmAABmzAAMKGDZxIsFROwRLslF8l4PtB3G1bZyxseHr3LL93hxtsDwMwAAP5YUBFjUWDYkWNcfdKcM+K/LwDvsbOMAADMJAXBhA2AC0voCG+IL5kkwH/ki8yFjXMpKEfz4d7yj4YgAEYsDUDCUSNdxpK8OhufG9r3xNzZTPmIi14KhYGEDYo2KncYaDoGPC8MDBjYcPd8n4JnmMsdbFUUrwnARUMwEBGDKyZFNtT453GEjx1qOjqvIy+n9gGP8MADDiMAYQNhzmcypEAsdgZCOw/JK7a1TMWNrxj36Sio9yDARiAATszsH+9lIy5J1LYmNgQUcPOPufbKNNgwPEMIGyQCRyfCYq9oe+09/dNn56xqKHDUALbvoF5yj0YgAEYsCsDZ45LyYQ6saLGiQP43K4+57tgGwZgIPgfQdggI5ARYKCoGHA/0TFjYcPT7cmi+laniVZ8Lz3KYAAGysSA1y8lMx6OFDXerMKcGsQ51P0wAAMOYABhwwFOLlOQgH0oCAuIAf+adRmLGmbS0Okz8GcB+ZOyiUYsDMBANhkoWTEmUtQYU1mCGz+g3KfchwEYgAEHMICw4QAnZzNoIC2C0PJkwPva8DIJG4F9+6nYKPNgAAZgwI4MHP9OSt6sEilsfPocvrajr/kmuIYBGIjDAMJGHKOUZ8ONZyMcwEB8BgKnzom7aaOMhQ3PM09TCVDewQAMwIAtGbgoJbMeiRQ1prWWoNePv23p7/hxAvETdoEBZzOAsEGBT6UPA0XBgG/uvIxFDTMM5cOPiuI7qZSdXSnjf/wPAxkwsPH9SFFDh6Ac3kmZT3wDAzAAAw5iAGHDQc4mWMogWIKPgqkQPE8/lbmwUa+mBA4fL5hvIS+SF2EABmAgSwycPy0lb9WKFDYWv0J5T/wCAzAAAw5jAGHDYQ4nkMpSIAU3ea0sAtt3Zi5q1KginoED8vq+5DPyGQzAAAzkh4GSL1+PFDXeqi3BC+co84lTYAAGYMBhDCBsOMzhBFr5CbSwc3bt7B0/vkzChm/hIio3yjoYgAEYsBsDZ49LydhqEcJGcMMs/Gw3P/M9MA0DMJACAwgbKRiJRmp2G6nYE3umxYDvB3G3bZ2xsOFu1liCZy5QIVDWwQAMwIDNGChZMiRC1Ch5p7EE/SX42WZ+Titm4NvhHwYcywDCBvA7Fn4qyuIQWPxLvshY1NBJQ71DXoVxyjkYgAEYsBsDrgtSMrZqhLAR3DQHP9vNz3wPTMMADKTIAMJGioaiEVwcjWD8ZD8/eV4YWCZhw//lcioEyjkYgAEYsBsDa96JEDVKJjakt4bdfMz3UG7BAAykwQDCRhrGotFsv0YzPi1snwb2HxJX7eoZCxvuB1tK0PcDlQLlHAzAAAzYiQH/D1LyTqMIYSO4ZjI+tpOP+RZ4hgEYSJMBhI00DUZDuLAbwvjHXv7xTZ+esahhhqGMGkmlQBkHAzAAA3Zj4JvFEaJGybgaEnQxlxIxkL1iIPyJP2EgPQYQNuxW2fM9BLA2YsD9RMcyCRv+tevhwUY8UMGnV8FjL+xlVwZK5jwZKWwsfY2ynrIeBmAABhzOAMKGwwGwa9DDdxV/QO9fs65Mooa7wyNUcJRvMAADMGA3Bk4dihQ1xlSW4KlD+NlufuZ7YBoGYCBNBhA20jQYDebibzDjw+Lwofe14WUSNrwTJlAhUL7BAAzAgM0YKFk2MlLYmN3J9j72MleU7X1MbFocsSl+Kmw/IWzYrMInwxV2hsM/qfkncOqcuJs2KpOw4d+6g0CI8g0GYAAG7MRA4KLo6iclYyqHtuCOhbb18YrVm+WmyvfJH/5RVU6ectn2O5PFRmfOeuTLlRvljXHTZcacRSnZ4NPPv5LHn3pRNmzendL1Cxavkj/dWE069hqU0vXJ3lfPnT7jNundWq15RHp+/4/m+LUV60ccLy09zqcWO2In7ISwYacKn2+horAJA76588okani6doYFm7BAoEKgAgMwEGJg71chQcOIG2/VlqAvaNvy3ufI5IeLAAAgAElEQVT7UW6u0lT+56+3yasjJ2XtO0dNmCm3VG1Wpu3pgW9k5X1croAcPHxSNm3dI3MXLJORb82Qnv2HS7N2Pc23/+zy2833qw1+e11lc22IhwT1XIv2vRPa7Njxs3L0WOQ29f1PzfX3P9or5pxeq0JFvGeuXr9dXhk5KWYbOHScSe93198Tce7lNyaa45f9rVLE8fA0nCpgxbMvxyj702UAYSNBoZiuIbmezAcD2WPA8/RTZRI2fNOmxQ1C8FH2fIQtsSUMwEC+GShZ0D9S2FgyxPZl/eyPl5jG8JX/qi1ud3ZEnOdfHRtqeP/ttjqSzqY9G1RkaPNE31Jt/9rYqUagaPRQV6nX8gmp0ayDVG3UTm6v2VKuvr2u/N+1d5m0NL1E259vqi56/4vDJ8jCJavl7Dlv0uceP3leVDi47OpKRqSIZtR6/0TPi3dchZLodPRv7UUS7/qyHNuzj/li4tmaY9Q3qTCAsIGwEbewTgUerqGQyQUDge07yyRq6DKvgT3fwTVlGwzAAAzYiQG3S0rGVosQNoIHtxSlj9du2CF9XhiR0qY9I351zZ2mAd2qY5+U7tG0v1q3NaFtLGFDewqkW4+/99Hn5l1SETbemT4vpuH/v1dWlN/fUEVUqLn+zkby7+oPyFX/rmOuq1CrlREwpn2wwLy/9pZI9/3GTZ5t0mr3ZP+492qvjLotOkVs+lwVI664tVbEceu6QcPeipuW9v7YvG1vzLZy7VaT3l9vqRFxbuOW3eb4r6+9O+K4plGx9qV3QNggtk6Xea7/iRmEDTtV+nxL3IqHDP9Thi8GW3gnTiyTsKG9PYrhO3nH4uISf+EvGChnBrbMjRA1SiY1KdqyfvLMj00Dtyz/2S/t3vHvzklon3wJG9rDZO+3h+Xw0dNmOEeiSVCtoRvPDBqR8J1TzX/3NHzY2FbFhVTvmbdwubnnoRR6oUSn6fGWiA6nCd/0e9U/Kt6EHz933muO65Ca8OP6W3uy6D0IG+VcztCWSjnfROeFQvgbYQOAixrgQshEvEN2KyF3x/ZlEjZ8cxIHc/gqu77CntgTBmAgXwyUzHkyUthYPbFo45ede76XidPm5nTbvnN/QvtYwsaNlZtIg1Zd0tp0GIk2wFPpsZEqG9kSNpav2mTe7c66D4W+/dRpl1y44A/9He+dyiJs3FajhXlmaUJTqucRNihT4zHKsdS4QNhA2Eha2JORUstI2Ck7dvKv31AmUcNVt4YEDh2Daco1GIABGLATA+fPSMmYeyKEjeDpI7b0sc4h8cKw8Unn0zhx6oIZkqI9ADKJPyxhQye31GEg6WzWHBWFKGw0aN3FiAwLv1gdsssTvQeboS8z5yyS7s8NlYYPPhmzVarzoLlPe1jEO6/H4s3toYLJL66sIGpHnfDU2nRFFhUydMiNdUz3PfoNM8d/edUdEcfDrzl24lzo3TPxLfdkJx7FjsVpR4QNO1X8fAuVQZEz4B0zukzChmdA/DG1VFDFWUHhN/wGAzBgGNj4QYSoUTLrUVvW9zokofb9j5vGb6feLyX8RmvVD22Q64oi6eYTS9jI9Rwbqb5XNnpsrNv4jbGbTlJqPXfX3oOic3r85u+XVlPRnhyp9pwIv+7nV1SQeCKSNZdG04d7hJ6pz7aOV2sSyamucqPpqhBivSN7yjgYyB4DCBtF3hAkM2QvM2DLcrZl4KK427Yuk7Dh+3QhwQJlGgzAAAzYjIGSDx6PEDaC66fbzsc6V0PjNt1Mw/fvFevLgYMnEn6jTqpZuUFbc+21FeubpVLTiWHyJWyosPBwl36lbtZwjlurNS/1Wh02Ev2tfv+Pxna6NOzXm3aZoSc6UacuGatCgq6ooveoTXXOj917D5m9/k62fbZ0rbm/SsN2Mc/U9EZPfM+c1yV5W3R4OrRZ83zoyi/hxy1BSsWWiONh9+pxXfY2+hv5u5xjVJuVqXblCWEDUCk8YaAgGPCv+KpMoobrvgYSOH2+IL7FrhUG30VgBQMwkHcGzh6PEDVKxlSW4Nnjtirr9T/5LR/rYxrJf7m5huzYdaDU7zt/wSf3te1u7tEeAAsWryr1Hst3lrChQoI2/tPZ7qrXxjwzlaEoujJLeM+HbPx+Nc5KLkNHv2ueo6vH3HBXY9EeFtazrqlQT9RW1rfr/qkBr4lOFBq+6sr02QtFh7Loqi/WtYNff9uk88qId0LHrHO6f27waLOyi67uYm3WCi/6/OsqNQwdt87rcRVgrL/D97q0rZ5PNvFr+PP5TXkMA5EMIGzQqI1bWJNRIjMK9si9PbzDh5VJ2PC8NAiWKc9gAAZgwG4MRA9Deb+DrXysQ0lqNe9oGrS6Wsaar3ek/H0qiOiQFW0M67wN8xetSOleS9jQ+zLdUhE2dC6QDz/5stSt9ePPmPfQpVhLu/6b3bGiz8eLVpj7L7u6kmjvD01Pl1TVbwsXKjSWCwQuSve+Q8zcGH/5570y9f1Pjc1eem2CuX7IqMkhG/6r+v3mmC7HmkocqMu/6nwc+tx4y82WNhRFl+nVe9+fuzil56XyTlyT+/gVGxeOjRE27BYA8D1UBsXIwHmPuO+/r0zChm/hInxfjL7nneEWBmAgCQMlH3aN6LER/Hqmbez1+Zfr5Ipba5nGrE7KuWT5ejNJpS4XWlpjaeWaLbJh825zXb/Bo00a2mNB0yztXh26oUuv6rZi9WbRZ2svB+31YR0vba9plPacVM+XdY4NXVZWh72ocKDPVLFCBYK6LTpFvGP4PBkqVlgrvPR/5U2JFjbUtpqG9roo7TvUVmMnfSBWj4tbqjYzy9tG3xdP2Fi9frssWrpGpn2wwPTiUD9kMm9K9LP4u3Aa2/gif75A2EhSmQJi/kDE1s62tf/zxWUSNVyN6krg5NlSgw84czZn+B//w0CRMeC6ELsaypniH4aiooCufGINmahYu5XoMp/LvtooujJHnQc6mZ4FiXg9c9YjOn+DNrytOSe69HnZ/K0TZapYkeje8OM6h4T2EtF0MplINDytsvwuq7AR/mxdVeSvt9QQFXnCe3eo+HB3/TZmyM+hI6eMfXSIivZ4UdtHCxsqlPQe+LqE9+CIfs6U9z4xvUP+8I+qxoZqx/bdBoj6J/xa63c8YaPvS6NC9/7xxqpm3g7revZFVl7RpozLfT45RtgAwnKHMJ/A86zCrCQ8Lw4qk7DheWEAHFOWwQAMwIDdGNj2SURvjZIZD9vCx9qw1rk0rIawLhuq8cnxk/+fve8Au6K61r73z625KcabdlOMJWoSY4m90EGKIAgKYgEpSrHRLICIBQuIiHz0Lr2I9N47SO+99/r1GUFj1v+882UOs8/MnDanzTkvzzPMnJld1353We+391oXDGID7/sOneBaVxylQBgYqTR3TuAOw5N4j50DZ87mucZHXjiicdX19xvh4bIU9iXcXJ2Geg87FF7XVvEkNhq/0smoE+xuWMt16nSuPN6ojfENO1QGj5ysfA8mNqxxnZ4nTl1gpAV54wJpAjsdMFoa6lq4dJ1BYJlhsPMGaWG3TrAtEKd8+S4917Fsl/RoFxIbmbYIYH2UiYoDTXoMNKHaofjEGcmtUdUTsVE4reSMbKh8+C39scA2YhsRA8SAFQP6lNdUYmPFoIyZ43Hsw4m8gEcMKMrYSbFn31FbfWGQEzs9QEaYR1FMmeFIxiNPtpQxX862xTPDLF+92QhjKuRe7062JM6dLxAcp4n0eq1zD6POL7/5UcRxnHZFDB09xUinbM1GgWMpIHiscsIxFRAbqHeTVzsH5GSSK91yhgfemTJzu+P4ydxFqyUeNktQHhxLccuL7zk2EgPhMUBig0QAB1FiIKUYKJw8xROpkftIZSk+XrKtlIN++EGfMqKMiAFiwBcYKCwSvU85hdjQju1K6XyVLLk1erlk1wFsNRw9djZQZ7gmxVEVKMEgA5zKA+OYTu+xQ6B2w1ZGXMRH2iBXcHTDvGDnAaTJraVrG65RzfdQ4BEHpIn5Luefrk5xBCY4P9MIJuIk6nq1Q1clXxhdxfET7FYBOYSjNRXrNBW4VsVODWsZYcMCspg5f0XgPUgVlHXgF5MC76xxQj1/0GOQEfe+Kk9Js7bvRX1dc0clIz6JDY7NoXDGb+HxQWKDSm3UAzg7VviORRlFLqP8Dm96IjbyO3UkhjmOEQPEADGQaRjYsUAhNfRhdbKmjbHjAcdMoGjfVaGuwNsGXJOCcMA7eFHJy9cilgfIDtjxQNxf/bmMdO/zheQX6Ep8HImAfQ54E9mwZU/gG3Y8wIUpdohY3/f6J7EBEiN4zYNdDyBOIr3MYzkgJSKNAzLBzBekBjyioH5wpYq7+Qz3tNjJAaOqIIzcLrhdRZwKtZs6hnnjXXs9zfxNYgO7Psx31ju81eA6fSbX8XvZR58z8iaxEfna0SpfPlNuJgZIbGTaQoD1cZw0TMDznl6DX/H+w5JbqawnYgM7Ptiu6dWubA+2BzFADHjFgD7nfZXYWPx5Vo31cJUK16VQtkFKwIYDnu8o97jgW7TyBXGBoxdOHlcGjfjK2O0Amxuw92BN27Tn0aJdF+W9qczDNoU1fCzP5jGQUORBqHQhD+zMwAUiCOQFyAxrXXsPHmfIDzKM5fprqcdc62nKwo3YgFtZ5Ol0tAj1IrHB8TIUvvktcnyQ2CAR4DpQsyNF3pEoq9hkVTh2nCdSI7dKRSk+4n8L+cRPbPih3Cg3YiBTMXBZ9P6VFWJDO7Au69YrMDJ6S6laAUUcRxbclONY+sKBQyfl2RbtjfR/+afShr0IazrjvpprHE2B1w8rSYAwOAoCZX3A8C89t4tXYgPl2bR1r+TmFruWBUd6sCPC6fqk93CjLnDt6vQd79Zvcj8GFYrY2L7roJE2dr1YZWt9JrGRqeMY62XFeTKeSWyQ2HAdaJMBQOaR3YNefptWnoiN/A7tiV+OYcQAMUAMZBoGDm1USA2QHFrxpaxqZ7gn/bTPCOPoiLnDADsSsIMCdi68rJ/gfeXdbv2NYydIG7YhNmzeraQJN7I/ve4+44Jb2OD8nnz+dUNhxxGL4G/R/o4HsREqT3iMcbM9gng4fgI51HmudchwbnmEIjaGjZlmpA2PNW7xSWxk91rYDRd8Hz0uSGxk2mKA9XGdODhARD9AJFJmxdt3eSI1ciuWkcJJ0Rv5SmSdmHZ6YYztwfYgBvyJAX1pH5XYmJldLr1hD+Jv5Z8wFGIo3DB02fbt7sZRC/yGV4/P+o2y2ckIh/cduw8Zhi2vvvFBI23YpYCRTZAo1rgwvmnarMCRDus389k8JgOjpOa7WO+JIDZAZOD4TauO3QwbIbBT4lQ+eJCBTM2rVPUGsurrrY5hneLjnRuxATe+t5UpsYuC9nKLT2LDn+OUW3vyferak8QGiQDXgZYdM3UdMxtkXzhsmDdi4+FyUnzI7govG2THOrJvEgPEQCZjQB/5jEJsaFtnZcVaZc/+Y2LuhICiff1dVWTClHmBumNXRfnHmgSUcBgTnTR9oWBHQiR42H/whPzhjocFx05g9PPg4VNKPLhQbd7u/UD6bvYzYFAUu0dgaDSYFImkHMFh4kFsgMjAcRR4NWna6h258d5HAvWAUdRTp+2GO2FEFV5gIGvY93jrw94GoYN38PYSqS0TGC/9fMBogStda91av/WJkfafH6wp5y8UCAyugjhBfZeu2hRwSYsjP4gffNzHmhafOeYTA+ExQGKDxIYyCLPThO80lFF8ZJTXspknYiP/zdeJXY5fxAAxQAxkGgbOHlNIDT2ntGj5+RnbzlCeoYxXrdfc8DwCJRuKNdyPgkAIXnNAgR8yarKYnkQQHi5gYfNiyYoNYY9SbN1xwKbkFxZekglT58vN91U3FHHY1ICyHZy3+bv9+58b4SrVed41jBk2krvpHjZW46E4NoNdLJCFeeEYzWMNXpVRE2cZpIK1HHsPHJfGr5S41EX4jh/kBOS2c/fhgFtcyBiGVUMdY7Gmaz5v23lAGr7Y0fDQAi8t85esNQggHHWBgVazjChz/Rdel9ETZ4W0D2Kmy3t81p+UY+bKkcRGpi0IWJ+4TLIc9BI76BWt3+SJ1DCOoUyYyLZmfycGiAFiINMwsOFLldiY0DLj2hjuXEdOmGko0FZFF4RGtSdbyLLVm8LWGXYyOnbpJTfcXTWgKENhxk6F1zr3UFyzuq1p4EIWR1FusuxugJtZ00ApXMriqMaX0xbK9DnLZOiYqQohMGL8jLDlDM4bO0ygyMP7yrTZS400zTq4HXsJTiP498z5KwwSAcdjYINk/OS5AvlYw4GcmDlvhWFHA65rISvIHnWyhjOfUT6TLClT4zlZu36HEg7pgZSCcdAFS7+WPkPGyyvtPza81pjEBVzrgoQy08Qdu2JAIr3Q5l3jiIwZ9v9uKSstX+sSUdtb0+NzYterlK+/5EtiI9MWBKyPMoFwQErPAamgXz/PxEbx/kNsa/Z3YoAYIAYyDAP61NcVYkNbPTzj2hjHEMwjEFBs7yxfVz7+fKjgqEi06xYcQ4Fi36BlBzFtZyBNEBHh0uo/fGKAFHmg6jMG2RJ8tMRKephKOO44MhPpERhrOeo1aRfI05oeyu60Q8Ua1+35wsVCG5ERHHbWgpWBfEFowCVsKE8niA+CB0dHUM4Hqz2ryBO7S6zlN5+xQwPuebvlDBd4tQkuh/U3yBEYZsWuDewwMdPADhJrOD6n51qW7ZJ+7UJiI8MWBOxk6dfJ2Cb2Nslr3MATsZH/WltO+hy7iAFigBjINAwUXxK9XyWV2Djm7mbTz/Pre58MkDadPrHtBPBSJxADODoBY5aRpvP2x31l0TJ3V7rYXQFF27x6DRzjaVcBCBfsqrBe2NUQvMMi0vJHE65Fuy7S6aM+cuiIalskVBrYtQLDrcE7NvYdOC4w+glvJzBQCg828xavkdNn7LY8QqVvfoM72q69hknZmo2SIgszX97ta1TKxL8yIbGRaYsC1ifiyZwDV2oGrqIVqzyRGsYxlLHj2M7s68QAMUAMZBoGDqxTSA19UHW2caa1MetDTBMDxECCMEBiI0GCpdKcGqWZck9/uRd81sMzsVG85wAnBY5dxAAxQAxkGAZsbl7nfsA2zrA25jot/ddpbCO2kV8xQGKDEwYXDcRA8jCQr0le/bqeiI38Nq2SV15ig7ImBogBYiBpGNBHN1R2bGg7FiQtb78u5FluKqHEADFADJRggMQGFyxcNBADScNA0YKFnkgN4xjKqNFJKy8nCi4WiAFigBhIEgYunlNIDb13GdHy7O5O2R5Jag+ujbjWIAaIAZ9hgMSGzxqMEzondD9joODDDzwTG8W79nKi4bhFDBADxECmYWDLDJXYmJh5bl79PH+z7Fx/EgPEQLpjgMRGpi0MWB8udtMVA2dzJe+xGp6IjfxWL7N907V9WS5ikxggBjxgQJ/ZWSE2tFXDKE8P8kx3BYTlo5JMDBAD8cYAiQ1OGlw4EANJwUBcjqGMGJGUssZ7oGV6nLyJAWKAGAiFgcuiD6iiEhtHd3C85/qEGCAGiAFiIGIMkNggWCIGCxdloRZl/BYOHwWfdve0WwP2NYq37yJeOWYRA8QAMZBpGDiyVSE16OaVa4pwawp+J0aIAWIgGAMkNjJtccD6cMGbphjIa/CUJ2Ij/2Wetw4ewPmbkzoxQAxkBAZWDlaJjTnvcy5P07k8I/BG2bJ/EQMZiQESGwR2RgKbE296LfaLvl7vidQwvKEM43lr4jq9cM32YHsQA/HBgD7uBYXY0LbN5dqE61NigBggBoiBqDBAYoOAiQowXMTFZxGXbXIsGDTIM7FRvGU7scrxihggBoiBTMNAXp7oOaUtxEZpunnNtDZmfThuEQPEQBIwQGIjCULONiWW9SX5EYyB/JdaeiI28ls244TAsYoYIAaIgUzEwPa5FlKjlGD3RvAcwt9cVxADxAAxQAyEwwCJjUxcJLBOXBSlEQaKd+/zRGrgGEpB//5s0zRq03ATC79z8UEMEAORYkCf00UhNrSVgznec7wnBogBYoAYiBoDJDYImqhBE+liheG4sAUGCsdP8ExsFK1cTZxyrCIGiAFiIAMxAA8oek6pwKUd2Zaadr54TrQdC0RfPkD0Bd1Fn/WO6JPbij6+megjnxF9cE3Re5cJlNNaZj5faT/KIs1ksYJEIfWR7NFHSGxk4CKBHTh7OrAf2jq/Y3tPxEZe3dqiFeipWehyfKDciQFigBhIHAaObFeJggFVRNMuJy4/a1teOCPajvmiL/ikhLiwkCtUztNMOWfbqP0kGnmQ2EjOeGIdW/icMpmT2CD4UgY+PyjlLKM3kqj45DnJrV7ZE7GR//57xCjHKWKAGCAGMhAD+oogN6+z3klsO+cXiLZ2tOijno1dUYxGqWRYyjnVGCCxkdgxJQPHZT/rPiQ2CEh2eGIgYRgomjPXE6lhuHmdMjVh5fPz4M2yeyPdKD/KjxhIPQb0sU0UxTdhbl4vnhd9xUDRB1RR8uPODO7MyHgMkNjgGjKL9BwSG1nU2FzEpX4Rl21tUND1Y8/ERvGBI5yUOE4RA8QAMZBpGADZoPw1OwFuXs+eEH3RZ6L3LR+Ul5NCX7rkSMqCT0RbO0q0zVNF27VYtIPrRTuxR7Tzp0QrLCYOMw2HrA8xTQxkDAZIbBDMGQPmbCMN0r6+xZcl76m6noiN/FdfIj45RhEDxAAxkIkY2DxVJRsmtoxvO2/4UvS+FdQ8rERKn3IlhkGX5Ii2a4louRfjm38mthnrRIwQA8RAGmOAxEYaN07aK66UHQe3EBgoWrXGE6lhuHkdTGveHAe404oYIAYyEQP6tPYK6aCtGRmfOTX3Qok3EyuJYX0e+IjAtgeJDParTOxXrBNxnc0YILERQjHLZmCw7hwYvWKgoF8/z8RG0dp18Vnosp9TjsQAMUAMpA8Gii+J3q+iSmyc2Oe9fPvXij6ohpJu4LjLsDqirRsnWmGR93yIJcqQGCAGiIG0wwCJDYIy7UDpVaFm/PQgZfKaP++J2MAxFrZlerQl24HtQAwQA3HFwL41KvkwpJa38b6wuMSWhnVnhvk8qqFoW2eJVnzJWx5cL1J+xAAxQAykNQZIbBCgaQ3QuC6k2NZJa+vi7bs8kRrGMZSPPkxaeYkzKm3EADFADCQPA/qC7iqxsaB77ON9Xp7oYxqr6RmkRmnRl/UXTbsce9pcN1B2xAAxQAz4BgMkNghW34CVi87kLTq9yrpw9BjPxEbhjJnEJscnYoAYIAYyEAP6kFoKEaHtWxNbO+cXSLDLWOPoSf/Kou1dGVuaGShvr3M64/tn/cW2YltlMwZIbHAC48RPDMQdA/lvvOaN2Hi4nBQfORH3cmXzYM+6c7HjBQOrvt4qy1dvloOHT0lRUeq39O/Zd1S2bN8vFy4Wcpzw2xx2ZLtCauggIWI5JoLjJ+ObqWlhp8YX9UU7c5S48BsuWF5ilhggBjxigMSGRwF6WSgyLhWNTMRA8bGTklulgidiI79tKw7uHJuIgTTBwPpNu+Rnf3xAfvj7u4yr00d9Eto2+QW6LFu9Sbr2Gia1Grwq73cfYMuvznOtA+UZOnqK7Xsmjq2ZUiccDwkY9AQRMeud6NuvSBd9Uis1HaQ1vplo+QXRp5cmfS1T2pj14PqWGCAGUoEBEhuczLgAIAbiigEcIYGNDC9X4fDhcS1TKgZX5slJPRMwcP5CgdxWpnaARLj5/hpy8WJ8vEocPXbW2AUy5svZ8lHPIdKiXRep/EQz+d8bHwrkBzLlhrurKrtE8vI0+flNpQJhtu08wPHCR/OYPvIZhZDQdiyIuv30BZ8oaRhEydgmJDV8hINMGB9ZB87zxEB6YYDEBieBqBcU7MTp1YnTrT0KPujiidQAIVK0YRNxybGJGEgxBs6czTOIBnOnBu4VajeVdp0/jfjCbg+nMerEqQsBYsKavtvz7AWrAunMnLciEPf6u6oE3jvlw3dpNl+dPqwSEn3KRe9+ddcSNQ3s1Bj5jGh5ecRCiscM9rc062/EA8eELMMAiY0sa3BOOpx0EoqBfE3y6tb2RGzkNXiKExHHJWIgxRg4fPS03Fu5foBAcCMcwr0fP3mua1veUqqWa/p/eaimNH6lk/QbNlE2bNmj7Nh4tUPXQLxnW7SXgsJvwl6Fham3C5LQsTfFeIm4bquGqaTElNdc8eGY5tljApscylGWAVVEO0ubTI7y8gsuWM7o+gHlRXkRA44YILFBYDgCgxMkCZBYMFC0bIUnUsNw8/pJN2KS4xIxkEIMzF20Wm6+r3qAPAhHXoT6HorYeOPdz+SRJ1tK01bvSOeufeW6O6sE8sQxFbcx6E8PPBoIFypv67c/3lPNNT23fPg+/vOgPqqhQkpoW6PwfgW7GqOfU+LrOaVF2x+jR5UU9jFiK/7YokwpU2KAGCCxwYmNiz1iIG4YKMjJ8UxsFM2ZF7fycJLjJEcMRI6B02dypXm79+V/rrk7QBz86A/3SMcPcmTqrCURXS+0eTcQF7Yy4L0k0ja4q2K9QFw3YmP+krWBMFbiItwziY3IcRBpe0UdzukYSn5+xPjQl/ULIjVKibZycMTxoy4v1waULTFADBADvsIAiQ0C1leA5cIkDRanIfpMXtNG3oiNqpWk+MQZYjKEjNkH0rsP+LF9cnOLJWfQWIG9CitB8LtbKwjsWURap6837FQMf37SOzojwOGIDbiZvefhK8dj/u+WskaZUW6n65o7KgXqU/6xJhHXI9L6MlyUfXHlUJWYmPp65G1yfLfovUur8SfBe9blyNPguEpZEQPEADGQ0RggsUGAZzTAufCMcuHpoT8Ub97mjdSoWEbyX29HPHpoA+I9eXjPBFlfuFgoPfqOVI6AmMRGqeoNZO+B4wIjnwcOnQzbL48dP6ccX3mg6jMSrV2LcMQG7G2Y5fv1X8rKkWOhSdAJU+YFwuPYSya0mZ/roI+orxAT2rbZkbVJ0SwRkWAAACAASURBVDeGcVDFrsawOjQWyrkiMvxQTpQTMZA1GCCxQbBnDdj9vCD0Q9kLR4zwTGwUjhxFPHJMIgaShIF1G3fK1Tc+GFD+QRqAMOiWM1zy8jUZPnaa/P72ivKrP5eRAcO/dG2Xk6cvSrlajQPpXPu3yrJz92HX8BjPYBAU9jWs1y9uvuLCtVKd5wPfQL6cOp0rv7utYiAP7DAJNy4+3/qdQPgJU+eHDR8uPX73QBwe2aqQGnrf8pG7Zl05RI2bU0q0QxvZnkkaJ4h7D7hnG7GfEgNJxQCJDQIuqYDjBJm5E2R+21aeiQ3s+iBGMhcjbNv0a9uhY6Yayv9Prr1XXm3/sRw/cc7og2vX75Ab7q4aIAZAelSt11z2HTiu9NEVa7bIzffXCIT7zS3lZMPm3UoYp3ZftGxdII65C8Pt3qzte9KxS69A+AerPat4SYH3lHpNXzMucxdHcfFlZSfKoSOnwpbJqZx8Fx/M6vO7qeTErM6RtcfJ/aL3KavGnfdxZHG5vqOciAFigBjIKgyQ2CDgswrwXKTGZ5EaLMfiw8c9kxp5jRsSixyPiIEUYKDXoLGydccBm+zPnsuXNp0+kR9fe0+AVMCuiZnzS+xu9Ow/Sn563X2Bb9jtsXz1Zls6weMFfkdLbMB+B3aXwJjpqq+3KnnA1oZJiuzaU7JTBMSM+e6mex9RwjuVh+8SMzcYci3URO9XSSEntH2rw7dJ8WXRR6teVPTBNSLf6ZGCvkQcJRBHbM/wfYYyooyyHAMkNrIcAJyEOQnHAwOFM2d7JjYKPuvBCYnjETGQhhhYuXar3FKqVoAoALnw0CPPBn6DQIBRz3DHT6xjzfkLBYKjMOb1brf+SnrzFq8JfNt/8ISBCxyNeaW9/a/1TsQGyly9/oty1Q33y9PN3ySuUomrbXMVUkMfUisyo5/rJ6rxcARlz3K2ZSrbknkTf8QAMZDGGCCxkcaNY10E8pkERDpjoKBbV8/ERtGCRZwsOB4RA2mKgXPnC+SxBq8q5IO5I6LJq53l4sUiT21X9tHnlLTdjrPkF+i2fJyIDXO8BIGyZ/8xWxzzO++Jn1v1r1qrBMWy/uHbIz9f9IHV1Hgz3gofL037D3GWeJxRxpQxMUAMkNjgJMiFAjHgGQN5DZ/xRmzUqCrFZy54LgcnNU5qxEB8MQDCYvTEWVL9qReVIykgNf70wKMCzyNeZY6jJSZJYt5h32PL9v22tE+fyRW4p7Xm6URswMYGjsVs2rpXCWuNx+f4YsVRnudPi56jumnVzqp2Wpzi6Yt6qqRGv4qinT/NtuR6hRggBogBYsAVAyQ2CA5XcDgtNvguCQtBn2EyLm5eO3CrOPsW+1Y6YWDJig3SvN37hpcUk2ww7/Be8mHPIZKXp8Vl/mj0cicbsYG84JEFtjKscmnX+VOBodN7K9cXlBHfgokNEBo33vuIkWaTV95W4lvT4nMS+lywR5MJLcK3x+nDovcuoxAb2uoR4eP5bO4k/pKAP2KC/YYYyCoMkNgg4LMK8FxIxH8hUTh6jLfdGhXLSOHYccQhxyJiIEUYwO4GuF/tM2S8PNuivc0biklomHfY08AOjkiv+UvWurYtvJVcdf39BglhNUT6l4dqGu9gkNQkMDB+31Hu8QAJsmffUSPdYGIDrmFhWwPlRXy4ruXYH/+xP6xMi74RffCjKkGxaUrYttCnvKbE0YfXFa3IfgQpbP4p6k8sVwqwxrYO26+IS+IyGzBAYoODIQdDYsATBvI7vOmZ2CjevstTGbJhsGYduSiJJwbgBeWT3sOlznOt5bd/LR8gC0zyIp73kRNmuvbv2g1bGXnfVbGe3FWhbqAc8Jry85tKGb//98aHBOQIbGWY5fprqccCaQYTG5BT3SZtA2Enz1wcCBtPGTKtMH1y22yVoOhfWbSCMLZYDm5Q48Bg6H53YoxtEKYNfLK+gQ2feO0AIyYyAxNsR7ZjLBggseGTQT+WxmUcDgoJx8D5PMmt+YgnYiOvyXNUOjgOEQNJxgCIApMkSPTdjdjoO3RCoAyDR04WkBtmWY4eOyvmd+zkWL9pV+A3wli9ozgRGxOmzg+k1fDFjsRXkvGFuUcf00glKRZ/Hrodii+JPvIZNc7UN0LHSUG9Ej6vWuq0dOVG41gVdlIlM1+nvLCz68ixM7J4+XpBf23//ufyVLM35OTpi57KVq5WY/mfa+6W3oP9u3NzzfrtUv6xJoZMnGSXzHdDx0yVuys9KXDHncx8mRd1jnTAAIkNywSSDg3CMnBg8BMGipYs80Rq5FYsIwXdP+Hky3GIGEgBBmo++0pA+YdigSMmr3XuIR0/yAm8h9Jx+OjpqK+HH38hkIYTsYEdI9iJAZICtjTw19pgYgOKVLUnW0iXTwca+DB3dyDOVzOueFFyIjaQnvn+l38qbTM46qdx1pdlPbxFJSh6lxbt3MnQ/XzjV2qcvuVFO1fi6teXMohDn278Son9mc5d+4aWXQR5oU+AlACpOWfhapk5b4VMnbVEJk1fKKMmzpL+wydK9z5fyDvd+knbt7vLC23elVoNXpUHqj5jHE+DbRuTeLTeW7/lbQ7/rN8oI13kE892fvvjvoYnJ3hzivZ6v/uAqMoyd9Fqow7IJ551iCUt7MRD+4B4iiU+41AP8TMGSGxEMBn4uYFZdg5QicRAQZ8+nomNwpmzOflyHCIGUoAB2NVo2uodAfGAHRLmWAFlx1RcKj/RLPDe/B7JHfY3zDSCiY2iokuGsmR+f7dbifvPYGID+YBUKSj8Rg4evmKLAwrW2XP5gXKZBAbS27XncOD9863fCZRh4tQFgfeRlJ9hvM2d+szOKkkxLcyOA7h3HVRDjbM8OuUy09oMOyGuvvFBw1gu8O+1fuhHv7u1QqBPmP0v0jvigvyE8v7mez1l2JhpsnrdNrlwsdBWNhAo2FUVyQUDv2YZmrV9L6I4SBd5hJLJI0+2DKRrph/pPVqCIhSxgTFsyqwlUV1wUx2qbqG+mcQGZATcRHI5tWGoPPjN2/hI+SVOfiQ2UrCYJKATB2jKNrmyzW/ZzDOxUXywxAAg2y65bUd5U95uGEg0sYF8sVUaSga8l5iLeCdiwywjFClTKale/0Vl0e9GbOAv0Wacp5vT85Ipy4TfL5wVvU9ZhaTQDpZ4sHHLW1/aVwkPkiOsPY4MWb8tW71JXn/nM9sF+zfA73V3VrF9cwqPd0jLTcZ4jx0ZOD7SoGUHAaGAXRktX+sir7b/WDp06WV4O8KRkBHjZwhs04A8AFkY7GIZaRUWXnLNq9+wiYG+Z/bBeN+RR6i6msTG5wNGC1xKR3KZpEA8iY0vp10ZhyKVwY7dh0LWLVS9zTpEmhfCDRj+Zcz5hSoLv3GdkWwMkNjIkIkx2cBhfhysivcf8kxq5LWM7a/BxB/xRwwkDgPJIDZyBo01FJ8JU+YFFtRuxMaZs3mK21n89dPa/m7EBgwSmh5XYIiUf5VMHGas7aEv7aOSFGMaKe1lDWs8nz0hep9yShxt87TQcTJo7WbakolGEXULi7Rs8o1SVjgm9mmfESGJC+TxROM2xrVt5wFbnkhjyKjJtuuZFu2Nfv/nB2vavlnDg7QwvSThSIn1m/mMPELV1SQ2ps9ZFjKcNQ2ThEgEsXFr6dqGC2240Xa7cCwPbRsPYuMPdzxs7IzDEZ9wF3e0JWdstGKNz4mROYmNKAd8AjExQKRc/SfXwilTPRMbBTk5ES84iBH/YYRt5s82SwaxAZesUIysGHEjNqx/gbylVC2B7Q1rPDdiA2Gq1G0e+MvxuK/mKvGsafA5TljNvSB63woqSbFtTki56zPeUsLDgKimqW2cye1jEhtlH31OBo34KqYLcaEQR0JswD4NlH43Y51mPxw7yb3dZi9YZeSHozLwVhRp+xw4dNI4WvOjP9wj+w4cd40H46SoD46+RJp2cLhEEhtfb9gp2DlmXg9We9YoL4gJ8525s8wkS3A0LriMwb9LVW9gpBMPYoM2NuI0plFPDIvbYByn8jeJDQLWV4BNZWdh3uokUfBBF8/ERtGCKwYAKV9VvpQH5ZEqDCSD2EDdgre3mwoVFBqrzQ/z2AreY1t5sFxCERtWUuTJ51+3xQ1Oi7+99Tt9SY5KUnxRT7QgIkqR8aFNani4dw1zbEWJnwFrOJPYaPRyp5jxibiREhvY8YSwUMKttmpMuQ4fO8347mbME0dQTNfM0RrZRB7w8IL8YaTUzNN6hw2e28rUNsKEIlescZyeE0lswPgq6hDuAglLYsPbmOLUtnxHmbphgMRGBkyKbo3L9+z4icRA3lN1vREbVSpI8ZkLjgubRJababNfEAOhMWAlNrBDAl4Lor1uL1snsOgPNh7qJn83YgMkB2wC/OrPZRwVsVDExsate4xy/OyPD8irHbpyvEnkmsdxt0YI49CGe9enVWIjnJHRRJY/RWknm9hA/4NrUijlOOYR3B/zC3TD9g2+Q4EP/g5CAt9wnCSYnAwOu2TFBgm+4IYU8WFfJ/gbfpteUmCsdOHSdbYw4eyImGVIJLGB43Er124NXH2GjDfqBLla36MsJDZCzzdme/FOOcUDAyQ2UjSRxaPxmAYHgVRhoGj9Rm+kRsUykt869W7RUiU/5su+m84YsBIbUEC8Xl6JDVNWu/cesSlZ+IuzeRYf5bR6RTHjwV7AsePnbHHN77zHpz/qi3upJEW43Rrrxqnhs9S9ayqIDRAI6C+wPXPk2Blb30CfwXeQA9b+AYOicA0Nz0QLln6tfLOGwzN2K3gdO5ziw31zcF5Ov01iA55WUJ9IriavdjbKnAgbG/E6igJjyw1f7Oh63VflKaMOfyv/hGsYM36wvSInOfJdfMZHyjE5ciSxQWIjogmCHTI5HdIvci4c/oVnYqNg0EBij+MPMZCGGEhXYsMcH3v0HSnwGAFXtebZdihA2NGRl6cRU6nAVLS7NRB+QFWV2FgxOCvbziQ2gOVod0aZ4c1+gLTMfhLubnpdeemND21xQBjCRkSnj/oIdnAgLRCLv/5LWUNpdjoSFpyfSWxgt1SbTp/E5QKpEi2x4USOhHuXzsTGiVMX4kYYde01zNb2we3I31z/+wkDJDZSsQBgnhxIfY6B/NfaeiY2ilbat7j6afBkWTnZZyoGrMTGzffXMM7CY/t5NNdfHqoZWHzHa8eGKW/TsGCwcuLFRoGZNu+x9Wt9fleVpAizW0Of1VkNP7SOaIXZSUqZxEYwnmP5HQ2xgWNaz730lqxet01Zk4GQeOvD3saFZ7NPwLYGxoBIdh4gjkls/Pav5QNpmGnhDu8mrd/6RGBTw3yP3QggXGDnw3xnvWOnSKTEBowFw8ZOLFe0XkLmLiqxueFEiMT7KIpJbPzvjQ8J8o3lgr0h4IvERmzjnRWTfE4vGZLY8LmCyQ6VXh0qG9qj+NQ5ya32sDdio9YjolkWM9kgN9aRfdUvGLASG5WfiM0lc/WnXkwYsQE3j1alD4oOFLRNW/c6KkN+kbtvy3lij+g5pRWiQtuxwL0tDqxTwuowGLozew1Jm8RG6RoNDa8m+B3thbjoE9EQG254A9Fg9i8r6eAW3u19KGKj18AxxpEWeEeBHQ0zjfGT58qPr73HyB8uUYNteERDbJhpJuMeTGxg5xhc1iLvRBEb2KEWa93adf7UkDGJDa5LYsVQusYjsUFiI+aBMV1BzXIldqAumr/QG6kB+xrt3yDuOPYQA2mKgdNnco2/4uIvudt2HoipneCuEPFx4S+MkYzLO3cfNsgJEBT463CoOLClYV7Byk+oePwW//lBH9tEJSomtHBvu8Ji0Yc9roafrLr9zbY2MokNLzuOovGKEk6+iSQ2zF0fIE5AanwxbroNKzBYCsOhCAN7EXARa5Y53YmNqvWaG8eJbri7qlF+kDskNuI/5ph44J2yDcYAiY00XVgGNxR/s/OmCwYKevb0TGwUjhgRWKikS71YDvYxYoAYIAaixMDmaSpJ0buMaCfdyTB9YQ81fN+Kop27orhmo/yTRWyAMISb1nDXneXrGko5iAU8hwuP719v2Gmb04N3bGzZvl/K1HjOSBukxrAxzsdNgAHY87jn4fpG2Jvvqy7YpYX3oYiNURNnSdmajcJek6YvDJT1tc49woZHmhOmzAvECcYoiKABw78MyAxyg6cmHOdBWBIbUY4p1MtcsRaMPf62Y4vEBjsQOxAxEBUG8p5v7JnYKNqsnunl4GwfnCkTyoQYIAbSGgN5uaIPqq4SFYt6us8nhzbbj6ysHe0ePkvm5mQRG9g9BaU7EdfSlRtt7WglNmBnB0ZEkfe1f6ssM+evsIUPxjp2jplHbH53W0VZt3FnSGKje58vIqqbeUQE+T36zMsRxek1aKxSXrh7hQ2Pxq90kt/fXjGQBuyJoBwwvmrWh8QGx3ETC7wnHgskNrJk4mRnSnxnygYZF+/a65nUyKtXJzDhZ4PMWEf2PWKAGMhEDOjTO6qkxqDqouVfUeiUOp8/LfqgGmr4Uc+KVhz6yJGSRoau10xi4+HHX5CvZiyK6UJckAZIy01mefmasRMCuyGcrt6DxxlpYKeBSX707D/KeIYBTqc45jsnb0RWYgNH0+BRBcY1sbujc9e+EV04CoddHqWqN5BTp3MjIjZeaPOuYHdI8NXklbeNujgRGwO/mGQLj/hPN3/TiBNMbMDoqSmjq264X+6v8rTxO5nGQ6+6/n5p//7nMV0PPfKsUV7a2ODc5DZe+PU9iY0MnSj9CkiWO70H2cKJX3omNvLfedt14cX2T+/2Z/uwfYgBYsDAwNaZKkkBA6CbXY4WFOmij2mshseRlWP24wvZiC+T2DAVZS/3UMRGKNnuO3DcsGtxd6UnBQSIWQYcs4Ah4F/cXErgRSVUGsHfrMQGvoHcwH3l2q2B9M183O7rN+0S7I7AhbihjqKYOzbefM9511Dbt7sb+ToRG247SF58/QMjTjCxMXnmYmO3B47TYGdJsPFQqywStWPDTWbRvCexwfHcitVMeCaxQWIjqokqE0DPOsQ+kOe/09kzsVH45ZfEHMcdYoAYIAb8ioEzR0XvV1ElKia1cm1PfU4XNSxIkDW0s2SuRUxi42/ln5A33v0spgtxodDGQmxgJ8SD1Z41vJGAdAg2HgrS4ze3lBPYujDJCbPsoe7BxIYZ1iQ27q1c37A/AcU/+DLtfIDYMOPhni7EhrVMeE4msQHiafTEWXG5sCsluC78HfsambJLvexIbPh1YcFyczBONgYKNMl74jHPxEbxvoNsu2S3HfMj5ogBYiAeGCj6xr77AkdQLp53lu/6iTZSQ5/W3jlsPMrnwzRMYiMVXlGOHjsrIBispEgwsQFlbcmKDXL1jQ/KNXdUMjwdRaLAhSM2qtd/0RUHleo8b5SJxIZdUTx89LTAg1QkbeAWBm3jZBfFLTzf29uBMklPmZDY8OEkyM6Unp0p09ulaPVaz6RGXoOnPU3GmS5j1o99mxggBtIZA/ryATaiQtu/xnlcP7RR9N5l1PCjGohWWOQcPkvXY6kiNnC05LYytQ0C4Z1u/QJt4kRsAJNTZi0xdkzgWMrQMVMD4d3wSmKjZCyL91GUZm3fM3bXjPlydqANcJTm7Y/7itX1NdqxRbsuho2SYBsoIJXgmWbeYpe+m6V90Q3LfO+feZnEBjtvYGBkx/VPx01FWxUMGuSZ2Cj46EPijWMOMUAMEAN+xMDelaL3Lq0SFQt7OLcljIUOrKaGHVhNtHMnnMP7UR5xKnOyiQ0QDp/1GxXwUtKu86dKm7gRG1h3wLjpz28qZZAh9Zq0k+MnzilxrWuTcMTGHeUeN47OoP7B119LPcYdGw74wlEg8zjO8ZNXdkmZ3l2CiYq6TdoacgS5Ym0b01DsDXdXlROnLijfrOH4TL3AbxggseEwcPitEVleDjzJwEB+q1c8ExtFs+dwAuWYQwwQA8SA3zBwbKfofSuoRMWI+qIV6fa2PHdC9C+eVMPCWOghu0vQZMxd6Z5HMomN5as3S8U6TQ1lF141Bo+cbGu/UMQGZAmvJn+8p5qRBtyw9ho4RvIL7DgIR2xEYuQyk46iwE4JjLOGunDcB3Jxs2XS8MWOxveOH+Qo7WYaToW3GSvep81eaoSv/8LrynuEqfH0S8Y3EFTWOHymTuFnDJDY8NviguXlAJwCDBQfPSm5lcp6JjaKT55l+6Wg/fw8SbHsXGQRAynGwOkjog98RCUq+pQT7cRe+3h+8oDoQ2qpYWEsdN04e1iOhYZMTGIDSu31d1WJ6TIVYqTl1F9gJPLxRm0MRRaKM/5S72ZjIRyxgfQPHTkl1Z5sEUjvllK1ZM7C1UrebsQGdnmAUInkOnn6YiBNHLP4n2vull/+qXTgnbWupnL/0+vuM7y44MiM9cJ71N3JK8rP/viAEtaMh90RiBPsFcWaL57N4ya1G9qN6JrfkE6klxOxAU8siP+rP5ex7bJYs3678Q2klbVsaMtr/1bZsI9y9pzqihlt+LtbKxjxJkyZp8SzpsHnFI+/HCejwiaJDQImKsBwgMvOAQ47LXIrlvF05T3fmFjjeEMMEAPEgJ8wkHtB9GF1goiK0qLtWGBvR+zqGFA1KGwp0WfSxXeotZNJbESq9IYK50ZsLFq2zlBgf3ztPQK3p8FKrrV8kRAbZvj+wycaRAPIhs3b9imYcCM2zLiR3LftPCDbdx2UPfuPyYc9hxh1KP9YEyUfM51EEBsmGRJMbEBGQ0ZNFhACuMo++pxRNti5MMtj3k1io0HLDnLs+LmQ131VnjLSCSY2DBLitorGtwHD7Z7lsGPmqhvuF+zCuXhRtWHT5NXORrzhY+3umJEW8IQdOOfOF9jKbtaB9+xc+/ux3Uls+GmBwbJy0E0RBgo+6eaJ1AApUpDTi+2Xovbz4+TEMnMhRQykGAOFxXYPKNh9sX6ifSw/sE70fpXspMbU152Pq3AsDMjQJDaebdHeUEqhmEZ7IS4UVDdiA33po55DJPhoh1Mfi4bYQPy9B47L/CVrA/Ux04wHsWHdZWISOl17DbPlhTxNYuPN93o6fgehgzScdmzA+KZZbuv9xdc/MOIEExsI8+cHaxrfzHKBVNiwebctHZPYeL71O7Zv1rzwXKp6AyPNYGLjgx6DjPehPMnAZS/KAtez1nRhZBTvYYfD+h7PaGuTTOnRd6Tte3B4/k7xmMxxMyxGSWwQJGFBwoGMA1le4waeiY2iZc4LB+KL+CIGiAFiIM0wkJcn+vhmdqJiSW/7mmHnItH7lLOHndNFtOLL9vBcdykygeJbtmYjeb/7AOV9NH0CcZEG0oomnlNYEBJPN3/TuPDsFCbSd83bvS9tOn0ScxowVmqW5YU278rMeSsMZdwpf3h5wS6KVV9vdcxvxZotxvetOw4Evs9asNJ4d/DwqcA7a9pLV20yvgfvRkGY0RNnGW0G2Q8dPUVOnc51TKOw8JKcv1Agefma43drfjhug7BOcgdpte/Acdc03vtkgDR55W1b/WEctM5zrQ3ix5qX+bx4+XqjHiin+Y73NBuPOWZGjE0SGwRLxGDhQJedA13xnv2eSQ3s2NAimNSJsezEGNud7U4MpBEGzp0UfcRTdqJi9nv29cKGSaLnBHlKySkl+kLV0wbbN43al+teO44pE8qEGMgIDJDYIJAzAshcNCVu0VQ4bbpnYiP/lZeIM441xAAxQAykOwZO7BN9cE07qTHpFdGKLX/RzcsVfXoHezgcVVnlfFSA83Ti5mnKlrIlBogBYuBbIbGR7osMlo8L4RRjoKBbV8/ERuHQoWzHFLcjJzwueogBYiAkBvavEb1/ZTtZATsZhcVXxvD9a53Jj5zSom2aciUcxzzKghggBogBYiCJGCCxkURhh1xQsBzs+GmKgbwmz3kmNoo2bGb7pmn7clyisksMEAPattmi9y5jJzXmfSya9k87C4VFxhETHUdNgq8+ZUXbuYjjPMd5YoAYIAaIgZRhgMQGwZcy8HExnf6L6eK9Bz2TGrmPPEyMcZwhBogBYiAdMZB7UfR5H9uJCuy+WDu6pM1gQHLrLAe3r/8kOIbXFe3IdrZvOrYvy0RcEgPEQBZhgMRGFjU2iYT0JxLSrY0Kp8/wTGzkd3iTkwrHGWKAGCAG0g0DO+aLPriGndToU0603ctK2mv3MtFHPmMPY+7YmPuRaAVFbNt0a1uWh5gkBoiBLMQAiY0sbPR0U55ZnvQlXAo+6eaZ2CgcO46TC8cZYoAYIAbSBQPwevJVa2eyYmA10Q5tKtmhMaqhcxiQGgMfuUJ+pEu9WA72MWKAGCAGshoDJDbYAbK6A5BUCU2q5DVt5JnYKN7CLcrEWWicUT6UDzGQBAyA0FjUU/S+FZwJiy9fEm1JjuiDqjt/B6HRp6zoC7qLlnuBaweuH4kBYoAYIAbSCgMkNgjItAIkF7dJWNxGiPnig0c9kxq5VSsRXxHKm9hPH+yzLdgWGYWB04dK7GiAlDCPkFjv8IQytqnofco5fzfDwjvK6SMc0zmmEwPEADFADKQlBkhsEJhpCcyMWlT6FGOFM2Z6Jjby27Ymvnza/uyDVO6JAZ9j4Pge0Wd2Fr13aXfCwo3sMMkM3Ec1KDmewrGM8xkxQAwQA8RAGmOAxEYaNw4XlT5fVPocWwWfdvdMbBQOGcIJwOc44DjEcYgY8AkGii+Jdmij6Mv6iT6mkTuZYSUtXJ9Liz6lnWh7Vlxx98qxjPMZMUAMEAPEQBpjgMRGGjcOF5M+WUxmKIbynm/smdgoWr2WE0CG4oPjE8cnYiDFGCjUStysbvhS9Jlviz6gikcyA0ZBq4m+JEe0s8c5dnPsJgaIAWKAGPAVBkhsELC+AiwX0slZSBcfPemZ1MitWEa0/GLii2OM/zFQWFxiLPHcCdFOHRDt2E7jL+PavlWi7Vos2rbZom2aLNq6caKtHu7/+hKzqW3DgmLRzp8S7cRe0Q5uEG33UtG2zhRt3XjR4LY12QAAIABJREFU5ncTfUJL0YfUCn3ExHUnRik7+TGgquiz3yvBMsgStj9lQAwQA8QAMeBDDJDY8GGjcdGRHOU+m+VcNHuOZ2Ijr8ULnBQ4vqQfBop00U4dEm3fatE2Ti7Ztg87BBNfFH1sE9FHPi36sDqGO0u9b0W7EhiNwsiwlB8xQAwQA8RANmFgxeD0m/e5FsuaNiGxQbBnDdizmaiItu4FPT71TGwU5PQitji+JB8DxZdFO3NUtP1rRds8VfTlA0Sf/a7oE1qIPuQxLrCzaYHNuhLvxAAxQAwkFwMkNpK/7uFaMyBzEhsEQwAM0Sq/DJ+5O0fymjXxTGwULVhEbHF8SRwG8nJF27tS9BWDRZ/TRfSJL4k+7PHkLuC4YKa8iQFigBggBoiBKxggsZG4dQ/XlGFlS2KDIAkLEhIYmUtgOLVt8cmznkkN2NdAOk7p81124Slu7Q27FhsmiT7nfdFHPHVlEcUFJWVBDBADxAAxQAykBwZIbHDtm0LdmsRGCoUftwU/68BBJI4YKJq/wDOxkdfgabZJHNsk68aKcydF27lQ9KV9RJ/0any8PXhd9PZ/WPTBj4o+vJ7oo58TfUJz0b9qLfq09qLPelf0eR+Lvqin6Mv6E/vEvjcM5OeXGKk98HWJYdqvx4i2tJ9ocz8UfdIrog9/QvS+5eOnxPSvLPrMzqLtWCBaQaG3srPtKT9igBggBoiBFGGAxEaKBJ91igrl7JtBruCzHp6JjYKPP/JNfdkXU7yDBMY8D202PD4YuzFGPRs/hS0cmQHXluObGUdZDG8mOxeKdnizaMd3i3b6iGgXzogGJbP4G+KZY3j6YQAE4P41JX0HBFufct77Tr+Koi/8lO5eiff0wzvbhG1CDBADYTBAYiOMgKj0pFjpYfskfRDLa/68Z2KjcNr0pJebfdVHfRVuLL8eI/rktiXeR8IREF6+9y5d4ulk2pvGDhBt87QSV60XzxGjHF8zCwMg4bbOEn3q695JDvSbGW+JdnR7ZsmImGd7EgPEADGQsRggsUFwZyy4qejGoOieveiZ1DDsa+w/RFxxbFExcGhTiaFPeCfxQlSEivvly6LP72qQJtqe5aKdPqyWgW1CeWQLBkBybJoi+pjGoftb7zKhv6O/TWkn2sn9xE62YIf1JNaJAWLApxggseHThqPSHoPSzrYOO1AXLV7qmdjIe7xW2HyI3yzAL45vwGvJ4l6ij2oQXnkKRVi4fYMR0QXdRdu9VLRCjbjjGEcMOGHgwLoSezBu/QhHWMY9LzpsbbiFwQ6OuR+Idv40ZewkY74jLogBYoAYSDkGSGwQhCkHIZXc9FFyC3JyPBMb+W+/RUxl67iSe1G0HfNFn/dRYlyvDqou+vT2oq2fyN0Y2Yox1jv28fXYLsNIqA6SwonAGP+CaKuGiT68rvN3xOlbQfRlfUtsz7AtYm8Lyo6yIwaIAWIg7hggsUFQxR1UJCrSh6iIti3yWrzgmdgoHDuOmMqmceXscdE2TRV9RifRYYzTSWGK9R22yX/5kujLB4i2/2viKptwxbomDu8n9ok+tolzXx1QRTR4Y8Fuq8ltnMOgPw+qYYSJdo5heP+uD9h2bDtigBhIdwyQ2ODiKXGLJ8rWX7K9WOiZ1DDsa2yhsbl0H/jjUr7t80Sf8provcu6Kz+xEBqjG5YcL9k+t8QrCccRf40jbC9/tFfxJdFWj3A2Mtq7jGhbZ5bU4+gO0ce94N7H53cTraDIH3UmNtlOxAAxQAxkNAZIbBDgGQ3wuChwWYKRouUrvRMbVSsRT5mMl9wLoq0b5/7X3liIDMQZ8pjoCz8T7eAG4ieT8cO6pR++Tx10Jy6W9btSXhwxG/a4M8ExvK5oR0hoc73Bv2YTA8QAMZBaDJDY4ELrysKFsshqWRT06+eZ2Mhv2zqrZZixExq2ri/rK/rQx5wVm1gJjcntxHC/mpdH3HD8JQZShYHiy6Iv6unct6d3EK2wuKRtCouM3VSOx836lBUNu6xSVQfmS9kTA8QAMZD1GCCxwU6Q9Z2AC7ESdjX/pRaeiY3CIUOIp0waU/avFX1Ol/geN/mivuj4S/DRHcRKJmGFdfE/nuEe1sn969gmol08f6V+GBcG1XAgQkobLmY5p6b2L5aUP+VPDBAD2YoBEhtcjF1ZrFAW2SuLAt0zqQH7GkWr12avDDOp/2ybLfrktg6KS6kY35UWfcZbom2fJ1rRN8RIJmGFdcksPMM17IAq9n4+8mnVE0ruBdGnvm4Ph91bKwZnlkyIcbYnMUAMEAO+wACJDQLVF0DNVuYxWfUGIQFiwuul5f9zyzL7lf/61YWzoq0dI/qYRs7KSizHTcY0MtxHaicP+E8exDDbLFsxcOqQs8vXiS+KVqSruNgwSfQcB/ex8z4WTbushs1WebLexAExQAwQA0nBAIkNAi0pQEuWgs58Ytt+VzBokGdSA65iKf/Y5J9SuR3fI/qS3qIPrhk/QmNOF9F2LyMeOL8QA37FQO5F0Se0tI8JM9+2t+nORc7eVWZ25g4tv7Y/y23HOWVCmRADaY8BEhsEadqDNKVKX5bgI7/Vy56JjYKcXsSSn/By4azoS3LsikssOzPMOLPfE+3wFuLATzhgWYlXNwwUaqKPb2YfI5b1tcsMR1j6VrSH/aq1aIV0B8t1jA9Jf7d+wff2/k+ZUCZpggESG2nSEJz0OOmlEgNej6AY9jUWLOLA7pfxZONXon9Rz66EmARFtHd4Ttj/NdvfL+3PchKrkWIAOze+eNI2VmgbJ9tleGSb6AOq2sLqU16zh400f4aj7IgBYoAYIAYixACJjQgFlUqlk3mT9EgkBoo2bvG8WwPERvHJsxx403082bdG9K9a2xWPaIkMM/zkNjxyku5tzvJxXPKKgbPHRB9UXR03epd29mx08oDog+0eU7TVw9kOXtuB8YkhYoAYIAZCYoDEBgESEiCJVKiZdnoQNoVjxngmNvIaPE0cpfNYcuao6Au6q4qJSU7EcocRQXg4Sec6s2xsH2Igfhg4ut1+1OSLeqIVFNrzABEy7Img8aa0aPvX2MOyjSgTYoAYIAaIgThhgMRGnATJBX56KOlsh+jbIf/ttzwTGwUff8RBOV3Hkq/HiD4kToZBxzYRbfM0tnW6tjXLRWwmEgO7l4neO8gDylyXsf/sCbvb2AFVRDt9hG2UyDZi2sQXMUAMZDEGSGxkceOTBIieBMhEmeXVre2Z2CicNp0TSbqNJbuWOHs1iGWHxoinRVs/QbTiS2zndGtnloeYTCYGVg0L2olRSrRdS5zbYP8aOxEy4inRCmhMNBPXEqwT15TEADGQagyQ2EjmgoB5OS9+KJeUyaX40DHPpIZhX2P/oZTVIdWDaNrlf2Kv6HO62JQPPRZCY2gd0daMEC0/n+3LcYoYIAZEK75s95QysJpoF8854wM7xoLHHhgbpiwpA2KAGCAGiIE4Y4DERpwFysmabKWfMFA0e65nYiPv8VocmNNhHIFLxVVDRe9f2a5IBCsWkfxe9JloF86wbdOhbVkG4jCdMHDuhOj9KqnjDAwJu5RRn9VZDZtTSrQ1I13Du6XD91xfEQPEADFADITCAIkNl4k4lND4jZ0qUzBQ8FkPz8QGbHRkijx8W489y0Uf09imPNj+UhoJoTHyGdF2LmSbcm4gBogBdwxsnWkbb7RNU5zDF2r28QleVY5scw5PuVMuxAAxQAwQAzFggMRGDELzrfLDunKQCMJAXrOmnomNwrFjKdcguSZzjNCXD7ApGDERGiA95ncT7QLd9iaz/ZgXiXK/YkCf8ZY69uBIituxtfOn7W5gv3hStCKd80cK5w+/Yo/l5rhJDBADThggscEJhYuKbMVAvuaZ1IB9jaKNW4ihVGDoyDbRJ7VSFYtIdmQ4hYHbxm2z2Y6paEfmSdz5FQN5uaIPqqGOQTjC5lafQxtFzwnyqrK0r3t4t3T4njIjBogBYoAYcMAAiQ0HobhOygzLTpRBGChauy4uxAaMybHPJJk5Xzde9P4PqwqFE2ERybs5H4h29gTbMIP6NvtjkvtjNmNn0xR1HOpdRrST+13HE31RTzV8TmnRTuxxDZ8NWD52/JzcWrq2PPJky4jlMHLCTHnokWel79AJEceJVJbFxZflN7eUMy48m/EWLl0n9V94Xc6czQu8M7+l+73la13k9rJ1ZOhol+NSce7DkBFkeEe5xxVZFRVdMt7feO8jyvt0lx/LxznFLxggsRHnwcwvDc9ycpAq/OILz8RG/ovNOTkncww5c1ScDPHFdPRkaG3RNk9j+yWz/ZgX8ZZxGLgs+phGKlkx8UX3di4sEv2LJ9XwY5uIpl1RoLNtfXLoyCn54e/vkr88VNNdbkG46dF3pBHnrQ97RxwnUrlC+UZ5cOHZjPdE4zbGu8pPNJO8PC3w3vzudO/y6UCp1/Q112vyzMVGOjt3H5bHGrwa8QWZOeXn9G7j1j3yoz/cI1ddf7/sPxhfEn/Fmi3yYc8htqtz176GrH75p9LKtw96DDLeoyxO8fDu1OnciOvmVF++4/o+mzFAYiNosshmMLDu2TUY5rd/wzOxUdDrc07AyRpDts0VfXhdVSGIZEeGU5hZnUU7fZhtl6y2Yz7EWiZj4MhW27ik7Vzk3uYH1tnDb/zKPXwmy077VvxCbFy8WCRlajxnKOZPPv+6WHdzuK0fq9d/0QhvEiXB9+59vjDafc367SHDBcfbs+9oRHjJzS02drYg/s33VZd2nT+N+DLL5lY3vDcJpuDyefm9aw/n5lAy57fs0lWibW8SGxk+YUYLCIbPngEj97HqnomNornzI1pcEFcecJVfIPqiz2yKQEy7NAZVF23DJLYZx31igBiIKwb02e+pY9QX9SXUMUV91rtq+P6VRcu9GNcy+WXe8QuxAXkeP3FO/vTAowYJgd0F4WRsEhtLV26U7bsOBi7s5IDyb5IHJrFRqc7zgTDW8OYzdrUgXqQ7Lxq93CkqwsRKSNxVsV7Y+kEeGzbvtl1LV20y8v397RWVb+s27jTe/++NDynvkca9lesb30hseFgvcVwPi9lwfdbv30lssBNkfSfweyeOpfzFew96JjVgOLT4yHHiJ5FjyP41oo97XlUAnHZgRPJuegfRTuxleyWyvZg28ZWtGIDXkz7llLEqpEHii+ftdoLmd81K/LgRG1Bw73m4vuN1/V1VDCX4mjsqOX5HvOWrN8ckT7ejKOZaY+XarfLT6+6TH197j+zYfShkHiaxcfjoaSXcgOFfGuUPJjZqPvuKEs7M07zDNgXIhxOnLoQMV1D4jTRt9Y4RFuVEfrBLEu56uvmbRhwcXRk8cnLIPMwy5Rfogp0h1uvIsTNGOtf+rbLy/vyFAuP9L24upbxH3LKPluyGIbFBYsPEFu/RY4HERrYuQljviCasTB1UCqfN8Exs5NWtndUyTDg2Vg1TlISYdmj8k/DQVpds9014mTmusE8QA1mLAX1Bd3XMCrNrQ1s/UQ0PQ6LHdmWF/KBgQ+nHhV0KUNavvvHBwLsW7brIpq17jffWXQTRPM9ZuDomWYYjNjCP9B8+UabOWhI2/XgTG/93S1lDJiAT3OYz7KIw8zXlVf6xJgI7Hm5xUGfYK/mfa+42CBu0j1vY4PfY2WHmE487iY3oldngNuHv7JUhiY0Qi7BvvvlOLl/+u3z33ffy/ff/kH/84x/Cf5QAJUAJJEoCGGO+//vf5bv8M/LtjplyabJ3d67aVrpx5SInexc5bPsktr3Tro3t89wVxOJLoo98RiU3xj3vHj7Ees1v7WwexXBThO+qUFew62DfgeOO19sflxinfLVDV8fviBds4BM7LRYtWxf2WrD064CijudI4rjtDjEJhnjs2Dh9Jtco12//Wt4VI2MnzREc/4BcbylVS8ZPnmvsaMHvn99USvoMGW+zDQJ7HWY5sRNlwpQQmA3CIOyOYEcIjIS2fuuTwNWs7XtGGX715zKBd/jeqmM34z3ysYa3Ph8/ed61fn7DOcubxPE3CJvZKnsSGw5AAJkBIoP/KAFKgBJItQS+v6zLt9umit67tKoAhDt+MqyOaAfXc4HkMMZn64TPenORmWgM6At7qOPUqGdDezw5uEENn1NKtB0LMn7cOnj4lIBowDV9zjJD2f3jPdUC7zZsCe0C1zRaGY1XlJvvr2Hk40ameHl/3Z1VHNvMJAxWfb1V9h44Hrg+/nyoUZZojqL0GjjGiFO6RkPHvC5cLDTIDNTjmRbt5ey5fCMcCB6TUMA3uNWFjQ6EB0H0sz8+YKQLMgm2PqLpI6YtjdoNWynxzPflajVW3hcWlnicARESTT4My7GbGIgMAyQ2LIveS5dIaKRaiWP+lAAl4CyB77/7Vi4v7WVTAhyPqMDd4pnIrMZzsoxssqScKCdiIAIMYNdG3wrKOBWOqNBnvq2Eh/cnrfiKm9FMl7ubjY1Q9Y6F2Gje7n2p81xr16v6UyUeTLDLwCQ5zGd8CxW3yaudHRV1k9gw0wu+hyI2cHTkgarPyIPVnjUMluKYCOIPGeVu++LrDTuNYzJOspsya4n87raS3Ry//ktZAZGE9LDjokOXXrYdLk5pBL/rNWiskcZtZWorLm1BviDtG+6uqryv16Sd8f4n196rvg9yifvVjBBehSx6S3B5+DuCMYryc+yrmYIdEhv/BPi33/7dWZvgW0qAEqAE0kgC3+5ZqCoBwTs35nQRrcj9/HGmTF6sBxdwxEB6YkBf/Lk6Ro1R/2pta7fzp+xkyIYvM3rxbZVBsogNa55Oz32HTjCU7vbvf27coZh37NLLeO49eFxM7WESG9gl8ViDVwPX3ZWeNNINRWygjH8r/4T87tYKgh0hNZ5+SbBrw6ns4d7BhsbCpevENA6KuplX5SeaCby2ROK+NjgfECLwEmO9UFYzbeySsX4zPcqApAl+j984ZoO4/YZNjKmeweXj7/QcI9kuiWsXEhvat0JSI420NhaFEqAEwkrg272LVMXBJDdWDOZiiH+NIQaIgdRi4MJZ29E57VBoDx36sr7qmDb4UdEKClNbjyThKBSxsXrdNpk4dYHtwg4JKMBPPv+67RvCnzmbF5XscEQCijVsP8A+h6mY48jMVdffLzfd+4iEMtjppqiZxEY8bGy45eH2Hp5GZsxdLtipAu8xZp2wWwJHRxq07BA4hoJv2F2BIyuLl68XECFu6YZ6D8OlIGCQ3nMvvWVLI9xRlNff+cyIO+6ruba4ofLlt8QpypStv2Sb9cQGjp/wHyVACVACfpPA5aU9FUVA2zyVC6EkKSJc6PhrocP2Sn576TM6KeMTjpuEbIf8fNEHVlPjLOsfOk6G9PdgYgNKtelxpPErnQIKuamYR3IPZ6MjuC1GjJ9h5ANlH/mbeeDZdJsaqftTa9rREhtwUztszLSw17Hj5xRsnDqdK/OXrBUc0Wn0cieBvQwQGGY9cMeRls8HjBZrXMSDQVEcebGGxVGVsjUbGaQI4sDDzNFjZ5U8rfWEoVekY+64uL1sHUdyyYnYWLFmi8xasFLQBiCX4GoWmLCmz+fkj2GUuT9lnvXEBo2E+k2dY3kpAUoAEvj+20sBJUDbF5tbP07c/py42W5st7THwKHNgfHJsAPUp6xoF9wVQ6M+GyapcfqWF+3siYxX8Exi488P1jS8eOD4xY33PmLUG0r+C23eNZRuKM0vv/mR6/XSGx8auytwzAG7LiLFCIxrwkYEFHsYMw0mNuB2FiQBbFLAM0mk6SJctMSGlVwI9YyjI9ZytOv8qUJMIC4MdFap21w6d+0rm7ftC4SH55R3uvWTLdv3B94hrXUbd0rbt7vLQ488q+zkMMvx4usfKOHhvWT42GnyVLM3BESIGa7JK28HDJday4hnJ2LDevQH7mxhtyM4Hn9zzCcGIsNAVhMb8H7Cf5QAJUAJ+FUC326eJNpJdXHGyS+yyY9yopyIgcRiQB/TWCUqlg8Io7Bdtrt/nd4hTJzE1iEZGNm640BAKYZyjOMgr3XuodS7Yp2mAsICYd3KNHnmYiOdWg1edQ3jFNdUrLFbA9+DiQ28M49IuBkJdUoX76IlNu4sXzcQByQDlHzrZe6s2LhV9RoDcuj+Kk8bOywGjfhKsGMF9XAqF2QJOcOVrdN3vMMOjA2bd8vQMVON4ymIA68u1vA48mOSGbiDEBk5YaZBkIAkcbtg6wMudM3vIGmQ1rzFawxPLdY8+Oz//s02TG4bZjWxwd0aflXnWG5KgBKABDCGcdJM7qRJeVPexECEGNg6SyU2BlYTreib0GOWk/vXgxtCx/HhkRQoyTjiAMOV8MoBxRh37M7Ys/+Yrb7jJ881wrRo18X2zcSjqfSHUtjNsOZ9+erNRr6/uaVc4KiFE7Fx/kKB3HxfdaMM8C5ixg93h9FQ1A27GkCKmBeOeeC9k/FQKP749uZ7PW35YNfIH+54OCZDn2ZZ//JQTSN96y4O81u0dxw/mbtotXT6qI+RJsrt5cKxlGjLwPARjkc+HCfYttG3bdYSG9988x01I0qAEqAEfC8BjGWc/KKf/CgzyowYSDAGir4RffCjCrmhbQtvFFGf8ZYSRx/5TMa5f7V6zgCpAGUYCrcbJrGDAEr9z/74QICAsIYF2YA0sGvA+j7U87nzBQJbEIiHXQ5mWCdiA9+mzV5qhAWxELx7wYwbfC9VvYERx03ZdyI24J3EJDBQbzPNNeu3G2k1fLFj4J35zbzPnL9C4Co11AUZojw45hMqHL7NnLfCNS8zT9w/6DHISPO+Kk9Js7bvRX2Zxk1JbCR4TCK5ERGerdj223PWEhs8huJ7fY4VoAQoARHBWOa3iYfl5eKNGMgSDKwcrJIUk1qFH6/OnhC9b3klnrY+s9xfwiAndjGALDC9kIQiNtBfuuUMN5Tn+i+8ruxYOHn6otxSqpbxbcKUeeHlq31reDgxj4lUrddcSc+N2EAZYGcCpMAd5R4X5BuuH8MYJsJjZwiICfMydzg4ERtI0zz6MmrirEAeHT/IMdICIeGWLzybuJEosbw3bZ245We+N4kN2PMw31nvMAaLy81GSdlHnzPKTWIjS8ZFEiyO/cTaZ2J9zlpi47vvvqdSRAlQApSA7yWAsSzWCYDxuIgiBoiBhGLgwjnRe5exkBSlRTt/OuyYpa8YZIlTyvCYouWGV6QTWpcEKSOm8dBwxAYMT1Z7soWhAL/brcRjDHY0gJiA0g6yJJL6Y0fEsy3aG3FuLV1bTpy6oMQLRWzA5evDj79gxC3/WBOBS9VQef7i5lLy+9sr2sIMGP6lkYYbsQFbInAzi90hKB/c18KwJnZbWL2aBOf9Se/hxrEQECdOl2kkFUeAnL6b72CkFTKFfILzcPodjtj43a0VjPT27DvqmB6JDY7DTrjiu+hxkbXEBu1r+F6fYwUoAUqAdjYcF4lcDES/GKDMKLNEYUCf3FYhKbSVQ8L320JN9CG1lHj6XNUrRaLKm+x0IyU2UC544sAuCBgSxe6MV9p/bCjMpWs0FHg3CVd2kBam0v672yrKzt2HbXFCERtmGeDBBYp/zWdfcTV4CdIDYWD7I7hc4YgNhIfnEsTH0ZP3uw8wnl/t0NWWVnDabr9xfMY8hhLOvsaqr7ca+cH9rFt61vehiI3tuw4aaeH4kTWO9ZnEBsdfKx74HDsespbY+Mc//kGliBKgBCgB30sAYxknwdgnQcqOsiMGEoyBHfNVgmJ4XdG0y+HHre1z1Xg5pUTLQEOi0RAbwCq8afzvjQ8Z3lOg+ENhPnj4VFh5nj2XL7UbtjKUbCj4S1dtcowTjthAGeACFu5nkT/saDjtojCP2NRt0taWTyTERl6+JvCSgjyuvvFBueqG++XAoZO2tCLpvxcvFkmlOs8baUXiNQa2NZAv3MVGkn4oYgNHZ5BWvaavuaZFYiPBY1CCdltFgg2GSW7bZi2x4XtthhWgBCgBSuCfEuDEmdyJk/KmvImBKDBQpBtHSfScUgGiQjuwzlXJs8pW/6pVII4Rf9gTohUWRRTXmk46P0dLbIBEKFOjxCYDFObnXnrLsJkRqo679hwOkAQwVjp/yVpXGUZCbCAvuFS99m+VDaUdx2h27D6kpAlDnihf67c+Ud4jbiTEBsKZHlKQDmyLhKqj27dTp3OlxtMvGWW5/q4qcuTYmbDpwG2rKVu3dK3v3YgNECrm8ZfP+o1yzZfERhTjCUkKVxxZMZmtzyQ2qBpRApQAJeBzCWTrBMZ6czFIDPgDA/r8bipBMfu9yBbn50+J3v9hNe4iuxtQP+MgGmJj6OgpYtprgP0H05vGXRXqysq1W11lCk8dUNRBQMB+RSh5RUpsIA0cs4CBTaTdf7hq4LVVx27G+14Dx9jyi4TYOHrsrFSo3dRIA+nj+M0b734WlsSx1m3G3OViGhSFrELJyBrvtc49jHxhc8P63u0Z6cJ9L4ykWsOA1EHZcXQHLnN7DRpr7HCBkVHsmIHdFIQf99VcI34kpIs1fT77Y/xjOyWvnUhs+FyhYfEpAUqAEuCkmbxJk7KmrImBGDBweItKTvStIFp+vqIEusp1w5dq3JzSoh1xV+Jd00nTv/Rip4NJOriVHTsXYPAS4X587T3S/v3PDcOdUP7N4yV4DxsUTsc1Dh89LY8+87IcP3EurMyjITZQ3j37jxmGOIPLDhIF5Q3eyYFwUPDxzc146Nr1O+SmfxImMD4KggH1QxzsVkGewflZf+MoiWnkFHGwI8JJLtY45jNslZhucOFG13wfzX3bzgOGbRCQMbiwQwaGXus819owiooy4cLuGexEGT1xVlhDrNHkz7AxjFFpOj6wLaNrSxIb1IkoAUqAEvC5BDjxRTfxUV6UFzGQfAzow+sqBIW2dWbESqM+8UUlro4jKZESI2mosMCQ5YjxM2TyzMXyzD89lDzeqI0iD9jEyBk0NnCEBIrw3ZWelNXrtinhgGXsgPjln0obyjK8iTRv974joRBR1i82AAAgAElEQVQJ7qMlNpzSxK4QlBc7SczvOJYB5R73xxq8anyHQo/vcAOL8DBGinewqYHfsB8Cex4Ig90XZh3hIWXi1AWBtPEdBAqOhJh2Ocz4fYaMd9zlAaJjwtT5AhJk8fL1hjvWnv1HGWVGXBhXPXe+QMnDrAvu8C4Dl7fYtbJg6deCfGDMFa5wER/Xr/5cRoaMmqykgXZFvi+0edeonxkWdWr5WhdZttrZ9ok1bz4nf/yizP0hcxIbPldoWHxKgBKgBDjh+mPCZTuxnbIaA6uGqeTE1ChsJpw9Jnrfimr8ae0VhdFPsjU9ZZhKLe6mkm/Ww7S7gG9wrQpl2Dy6YIax3rEbA0c1YFgUcUCCQPm2honkOR7EBnYo/OgP98jbH/cN5N+11zCjXObOi59ed5+cPpNrfDeJDewqgRcVlB/GPoPdo2InRLlajY3vDVp2CKSNoyBmuoh7S6laAtevIFHc6gxyCWGdrr+WekwWLQttBwaydoqLHRr3Vq4v3XKGC3bKuOWP92if2QtWGbs2IA8zvY4f5ISMFypNfuM8k80YILFBnYgSoAQoAZ9LIJsnMdadizhiwCcYOH1IJSb6lItu18Xa0Wp8eElZr9p18BMWPvxssOHGFLsEnI5WQOGFq1OnHRqh6gk7DbDtsHTlxpiUYyjbOPaCKxZixCzb+MlzZf2mXYEybNy6xzDiCUOesL9hrRfcr2J3x0tvfGh4fcHuB7e8QbzAbkewJxgY54QtkSUrNgTyNMvidkcckC+vv/OZwK4G0p0+Z1lEx0Lg9QXkE7ydoD6f9hkh8xavCZA1bnm6vcexIpA/ZWs2khOnLkRcB7f0+N4n42Ia7ijzM3ZIbPhcoWHxKQFKgBLw8yTEsnPxRQxkDwb00Q0VciKa4yha8WXRv3xZia+DHDl2RXkmlrIHS2xrtjUxQAwEY4DEBnUiSoASoAR8LoHggZ2/OdkTA8RAWmLAy3EU/GUz94LoQx5TyQ2f29tIy3biX5G5Y4IYIAZ8iAESGz5XaFh8SoASoAS4MKYSSwwQA77AQPBxlN5lRCtwt4PgWKejOwQ7NfScUleuCS2jT8eHi3ZHebAeVECJAWKAGDAwQGKDOhElQAlQAj6XABe7VGqJAWLALxjQRzW4QkjATsb2edErJesnKGkYJAfIjcLi6NOiQkCZEQPEADGQERggseFzhYbFpwQoAUrALwoNy0nlmxggBvTlA1RSYlbnmBbU+tyP1HSwg2PSK9EZJKUyE5Ps2Y/Zj4kBYiAdMUBigzoRJUAJUAI+l0A6Ti4sExc9xAAx4IiBI9tVQmJAFdGKL0WvYMOY6NQ31LRAbsDmxvHd0adHkoMyIwaIAWLA1xggseFzhYbFpwQoAUrAUXng5OzryZltSlIgkzGgD6mlEBLa/jWx9dciXfQJLZW0jGMp8Jby9djY0uTYSbkRA8QAMeBLDJDYoE5ECVAClIDPJZDJChDrRgWfGMg8DOjzu6lkxMJPY19E5+dLsBvZgGHRr1qLdvF87GlTuaHsiAFigBjwDQZIbPhcoWHxKQFKgBKg4pd5ih/blG2a0RjYu1IlNobW9rZwLiwSfd7Hapqm15SB1URbOVi0vFxveVC5ofyIAWKAGEhrDJDYoE5ECVAClIDPJZDRChAXEWm9iCD2SMDEhIHiS6L3q6QQEdqJPd6xvmux6P0fVtIN7N7A+yW9Rbtw1ns+HJcoQ2KAGCAG0g4DJDZ8rtCw+JQAJUAJxKRYcEJOuwmZ7UiSIJswoE/voBAQ2uoR8emTZ4+JPraJknaA3MAujr7lRV/wiWhnT8QnP46llCMxQAwQA2mBARIb1IkoAUqAEvC5BLJJGWJdqfwTAxmCgc3TVfJhQsv4LYxhVHRJjpq+eTTFvPcuLfqYRqIv+ky0nQtFy70Qv/yp5FCWxAAxQAwkHQMkNnyu0LD4lAAlQAlQ0csQRY+LoKQvgth3Uth3Lp4LIh5Ki5aXF18MnNgj+pwuovcpF5RXKeffI58u2c2xdpRom6eKtmuxaAfXi3FM5vwp0Qq1+JaPfZ7yJAaIAWIgbhggsUGdiBKgBCgBn0uAylkKlTMuSOK2ICGOsw/H+timCsGgbZuTGDydPy36sn6iD6ii5KccUTF3cvBOGWUSBlYMTkyf4txHuaYhBkhs+FyhYfEpAUqAEqBCmH0KIducbZ4RGFg5WFWiZ72TWGWhoEi09RNFH15XzTeTFFnWhW1rxQCJjcSOKWmo3GfE3BCjXElsUCeiBCgBSsDnEsjmSYx1p4JPDPgYA0e3q0rogCqiaZeToIhcFu3EPtE2fiX67PdEH/aEWg6rYshnysbPGCCxkYTxxMdjcIwEQrrOuyQ2fK7QsPiUACVACaTrBMNycbFDDBAD4TCgD6qhKM7aoU2pUURgQ2P7PNGXDxB9QXfRZ70j+uS2oo9vJvrIZ0QfXFP03mWUsvIoi4utEj8TAZlWdhIbqRlPMowwCDeOp8t3EhvUiSgBSoAS8LkE0mVCYTmoxBIDxEC0GNDnfKCSBcsHUBGhUkQMEAPEADEQNQZIbPhcoUnn4n/zzTfpXLxA2ebPny+jRo1SrsLCwsD3RD/k5ubKjh07lOvUqVOJztb36Z8/f14WLlyoXFu3bvV9vWKpQLSKBMNT+SQGiIG0wQB2SVj/Sj6uadSL2bSpCxURth0xQAwQAynDAImNWLSILIozbdo0OXfuXFQ1vnjxorRu3VpuvPFG+e6776KKm4rAZcuWlX/5l39Rrv379yetKAMHDlTyRllatGiRtPz9mtH06dNtcqtVq5Zfq+Op3FzUU0klBogB32IgL1f0nNIWcgNuX3NTtjD2rRypTBEzxAAxkOUYILHhSZ3I7MgHDx6U//qv/5Kf/exn0r9/f/n+++9DVvjbb7+Vnj17GuFNogA7IeL1r06dOvLzn//c0/Wb3/zGVhwvxIau63L8+HFbmtG8iIXYgCxuvfXWuF6HDx8OW+w777zTk/yd2u+3v/1t2HydApDYuCIVLsSp1BIDxICfMWDYsbDs2kiY29csX/T7GSMsO8c4YoAYCIcBEhtXdAM+BUmgRo0ayl/E7733Xtm4cWNQqCs/W7ZsqYQHuQHlO17/KlasaEvfJFAivf/Hf/yHrTheiI033nhDfvnLX8qyZcts6Ub6IhZiA3KNtM6Rhtu7d2/YIl977bVxzxfkWSz/SGxckVq4gZ7fuRggBoiBdMaAviLI7evs9/iXV5IwxAAxQAwQA1FhgMTGFd2ATxYJOCmNUJCbN29uCaU+gvRwUqJnzZqlBozxV7oRGxs2bJAf/OAHRp3/7d/+TXr37h1TzUhs2ImNdevWycqVKwPXmjVrbLJ1wiiPolB5S2fljWUjPokBFwwc3mI5ilJK9ME1olrMUq4ucqVSRBwRA8RAFmGAxIZNXeILHK+47rrrbCQFdibA0GWof9WqVbPFK126dKgoEX9LJ2IDx25uv/12W13btGkTcX3MgCQ27MTGr3/9a0W2P/nJT0xxBe4kNgKi4KSdRZM2FTgqcJmJgcuiD6iqkBvasZ0c2zi2EQPEADFADESMARIbV3QDPv1TAjhe4bTzYvTo0WFltGrVKse4I0eODBs3XIBgYgO2P/AX+lDXHXfcoZQnXkdR2rZtq6Rrymvy5Mmu1Thw4IDi+cT0hPLOO+/Y0qpXr55j2Pz8fCN9p6Mo99xzj9x3330RXVdddZUtz1iPolxzzTUSzfX//t//U/J2OopCYsMVRo4fMlPRoQLLdiUGsgkD+sy3VWJj9fCIF7PZJCfWleMCMUAMEAPOGCCx4agmZO9LHBv513/9V0XxhNIOUiHSf+XLl7fF//GPfyyHDh2KNAnHcMHExgMPPOAYzvpy8ODBSlniQWx88cUXSpomqdGgQQNr1rbnv/zlL47xzPiR3MeMGWOk60RsXL582Zan24tHH33UVpZYiA0nebrlab6/+uqrlbxJbJiSif3OCc55gqNcKBdiwEcY2DJDITb0CS1IbPAvtcQAMUAMEAMRY4DERuy6RMbFPHLkiAQrnVC2//M//1P27dsXcX2XLFmiKK6mwv7ggw/K3//+94jTCQ6YDsTG6tWrDXmYdTLvv/vd7yQvLy+4yMpvEhsl4gjGGIkNBSYx/aDy5iPljQuUiBcoxHWW4friOZXYyIHb1zzihWMGMUAMEAPEQEQYILERkxqReZHw1354PTEVdev9o48+irrCzZo1c0zr3XffjTotM0IoYqNr167y4YcfBi6QNPgXzx0bW7ZskV/84he2esFw6KJFi8xiut6TSWwcPXpUNm3aFLi2bt2qlCtROzbgMnbo0KHKBSOr1n8kNqzSiM8zFcAsUwC5wIlogcN+4b9+oY9prJAb2o4FbGv2d2KAGCAGiIGIMEBiIz56he9TgbcTK5lhPkMB/sc//hF1/TRNk5tuusmWJryIzJ8/P+r0ECEUsYG/+ptlxn3x4sVGHvEiNtauXSuw6WHNw3zu379/RPVJJrHRpEkTpazBxjcTRWxMmjRJyRcy6tixoyIfEhuKOOLygwqc/xQ4thnbjBiwY0Bf1k8hNvS5H0W0mKUs7bKkTCgTYoAYyDYMkNiIi1rh30RAWrRs2dKmjEIh/eMf/yimscpYarh+/Xr593//d1vaICFmz54ddZKpIjYWLFggP/rRj2z1gIxgRDTSfx06dJCGDRvarvvvv9+WNkghp7A4CoN/4WxskNiItFUyI1y2TVysLxdrxECGYuDgBpXYGES3r8R6hmKdf4EnaUkMxB0DJDYyQ6+JqRawd9GoUSObUg2F/Yc//KFs27YtpnStkXCMBekFXzA6OW3aNGvQsM/JJja+++476dSpkwR78TDrUrt2bfn+++/DljtcgHi5e7UaDyWxEU7qmfWdC18ufIkBYiAjMFB8SfR+lRRyQzuxJ+6L34yQFZUi4oIYIAaIAQUDJDYyS7+JuDZQ2uvXr28jHKC0wyvK2LFjI04rVEAo/g8//LBjPtjNgaMLkf5LJrGxdOlSgdcVk8QIvj/zzDPy7bffRlr0kOFIbPyXTT5092oTScgXXKRTqSUGiIFMwYA+vYNKbKwdpSxcM6WerAf7LDFADBAD8cUAiY2Q6kJmfsTxkpo1azoq7didMGTIkLhWvLi4WMqUKeOYHwxv9u7dO6L8kklswPDm9ddf71jmVq1axWR3xK2SJDZIbLhhI9L3nBjjOzFSnpQnMZBCDGyaohAb+sSWJDb4V1ligBggBoiBsBggsRGp5pAh4ebNmydwTRq8AwG/Ydhz5MiRCalpUVGRlCpVyjFf5F25cmU5ceJEyLyTSWzs379fVq1aZcjElBV2mHz66achyxjLRxIbJDZiwY01DpWwFCphXGiEXWgQn8RnVBi4eF4lNuj2lX2M4ywxQAwQAxFggMSGVTvI4GcQC26eT6C4Y+fE+PHjEyqBwsLCkMc74HVk3LhxrmVINrGBgsDGBuRzyy23GK5TXQvn4QOJDRIbHuBjRI1KaYhgYmB6VESJAWIglRjQxzZRyA1t2xwu6jl2EwPEADFADITEAIkNrxqFD+Lrui433HCD626J//7v/5bJkycnpSYFBQVy3333uZYFJAJsf8CwafC/VBAbsKPRo0cPuXTpUnBx4vabxAaJDa9gSqUCwrypABMDxEC8MaCvGKwQG/rMziEXs/HOn+kR08QAMUAM+A8DJDa8ahQ+if/iiy86kgmwI7F58+ak1gJES9OmTR3LA2Lj7bffdixPKogNx4LE8DInJ0euuuoqxwvEEuptveA1xi08yJZw7l4bN26spPeTn/xEKfWjjz6qfEfee/fuVcI4/bj22muVeCin9R+MwVrrgeeOHTtag8jVV1+thIH73+B/NB4aLJHQvzn5+m/yZZuxzYiBEBg4ukMlNgZUEa34EskN/rWWGCAGiAFiwBUDJDZC6wsZ8zUvL09+9atfKQpl9erVJTc3V2rVqiXXXHNNUq8JEybI6NGj5Uc/+pFSpqeeespV5vEkNmDQFDLB9dBDDyllgDK+cePGwHczXKR3p90d3bt3t+URTABE+htuXcMRGzVq1FDyg10V6z8SG1Zp+P+ZClIIBYkLANcFAHFD3KQzBvRB1RVyQzuwjljmeEYMEAPEADHgigESG/7XaSKuwahRowxlF55P3n///YBnj3BHQyJVuKMJZ7qT3bNnj9x2221GuUAwOJECZgXjSWy4uaCNpg5uYUFiBP9LNrERTHzcfvvtSpFIbCji8P2PdFZOWDYqz8QAMRALBvR5HyvEhr74c9fFbCzpMw5xSQwQA8RAZmGAxIbvVZroKvDEE0/I3LlzlUipIDamTp0aKMM333xjHFc4f/584J3TA4mNkuMqkezY+OlPf6rs2KhQoYIiUhIbijh8/4MTc2ZNzGxPticx8K1oe5arxMawJ0hs8C+1xAAxQAwQA64YILHhe5XGewVSQWzA7Wy0//xMbAwePFhgz8TpCj6Og50gv/zlLx3DIn44Gxv5+fkKqYH06tWrp4ibxIYiDt//oBJERZgYIAYyDgNFuuh9KyrkhnZ8t+uCNuPqT+WFbU0MEAPEQFQYILHhe5XGewVKly4tMODodsFApNOxC7fwwe9x9CU4/ooVK6IuuJ+JjVCVdToWM2fOnFBRQtrY2Lp1q03eLVu2VNIjsaGIw/c/uKCnUksMEAOZiAF9xlsqsbFycFSL3EyUCevEvk4MEAPEgDMGSGz4XqVJfAXgCjaYmLj33nsjzrhatWq2+LF4YoknsfHGG28I0sMF7yPB9XvggQcC34ONrv7iF78IfDPTsN4nTpwYsWwQ8LrrrrPlD3Ii1L9gGxooP46o4N+MGTNs6XXp0kVJLlHExvjx4215d+rUScmbXlEUccTlByc45wmOcqFciAGfY2DbHIXY0Mc0IrER419wCwq/kaUrN6ZMfhXrNJWHHnlWzp7LT1kZOB74fDyIEfts9+xpdxIbcVErMjsReCoJVvxhfDTSf2XKlLHFP3jwYKTRA+FAHljLAfIB/77//nv5wQ9+oHxbvny58Q1HQKxxgt2TIlDZsmWVMAi/f/9+Iz7+Czb8+Zvf/MbIMxDAwwPIiOCyI/+dO3eGTDUUsdGnTx9bfaZPn66klyhiI1hWqMtnn32m5E1iQxFHXH5w0s6eSZttzbbOKgzk54veu4xCbmhnj/leMT5y7IysWb89odehI6cCciosvCR1nmst/3PN3fLmez0FJIcVR6+2/1hAPMRy1Wv6mpKWNV3r8y9uLiU//P1dcup0bkThrXH5zHGPGCAGIsEAiY24qBWZmwgMe/74xz+2KcqbNm2KuNJ33nmnLf65c+cijm8GdCM2zpw5Y0vf3PEQD2IDnlus5AieFy5caBbL033v3r22tJH+H/7wB4VcCc4kFLHRpk0bW5rHjx9XkkgUsdGiRQtb3iNHjlTyJrGhiCMuPyIZ7BmGiwJigBjwIwb0r1qrxMba0b5XjLvlDDeUfCj6ibre+rC3IqcR42eISS5UqN1UTp6+GPiO37GW44a7qwbSCYUvM28SGxyHQuGE34gPLxggsREXtSJzE4H3kmClHjsWovl300032dII5dbVLW03YgMkS3AZjx49aiQTD2IDCd14441KHo0aNXIrZlTvZ82apaRrrcevf/3/2TsPKCmqbe+v761311vvRm++vntN95pzAhMGRAUkg4gooICKomDAgIgJFARUggooOQuSc85h8jAzTGAiTGTyMDPdPT3B/a1deNrq7uru6qoO1V3/XqtWdVc459Q+vzrh3+fs8w9KS0tTDM+bsCGWzxVh/fnPf3YLI1jCxmOPPeb2PK7+QiBsuGWH7gN6KgHci0YEGAADhmYgaYOTsGFdNVxVR9rIz7RszTbq2HtYQLb2jz0liRJ/vuo+p/C+W7zWzU4pp3Lpjof7S9fzPq/gwqgOHkFyOrfIbbu6/ePStbv2n3A7J67PzS9xi0fJ9hA2UM4ocYFj4CKQDEDY0N2liO4ABg0a5NZRfeGFF/x66IsvvtgpjF//+td+3S8u9iRsbN261Sl87tCfP39eui1QwsaYMWOc4uBRLFarVSRN837GjBlO4QoxQuxZBIiLi3ML35OwUVJS4hbeI4884nZ/sISNK6+80i1+19E9EDbcskP3gUBWCggLjQwwAAYMxUBNtcJ0lGJVnWlDPUeQ/APwlBYebXHnIwNU2YRHTDzUayj99rJ29MP6nR7vycoplMK9sl1Xj9f4Y1+1wsbUrxdRr8GjvW48+sSfuHEtyjQwYA4GIGzo7lJEbwDl5eWktBTppk2bVD/0Tz/9RL/61a+cOruXXHKJ6vvlF3oSNlzFCxZOOF7+uJ7T4mODwzl48KDTM7DwsGLFCnnyNH3v27evW7hC1BB7FlFiYmKcwo+Pj5fSxOkSGz/z/Pnz3cLjERt33HGHY0tMTJRGgoj7xF6NUHP55Zc7hS+3Z2trq1tes/8Q13AhbDhlZUB+oMI2R4WNfEY+m5UB67rXnEZtWE4sRcf2Z6HEX2GDGaqqrqetu454teGcRWskYeP51z/yep0Sk2Xnaigjq8Bp4xElLMDExJ9yOs7XyUd9DH75Pek6b1NjPpj8rd9pUkonjqFMBQPRxQCEjYB0K6IzkJEjRzp1YrmjzUJHY2Oj6geuqalxC+PWW29Vfb/8Qk/CxkcffeQUB49mEJ9ACRstLS3k2iHX+hwibc3NzYr+S3iEhRA1xP6Pf/wjCb8h4n6l/b333ut2rwhD7FnI0PrxJmywYCLiEPvrrrvOLSpXO/LywK4fnoYjwuD973//e9dLiB2iyq/h77169XK7zgwHUDFHV8WM/ER+ggEXBlyno6wcho6tDmFD8MVORJeu3qq4Cb8bI8ZMUDzvel9l1XlHnsyYu9ynOCEXLh7s+ctqN0LY+OKbJdIqLrySi9jYySnfB2HD5f0I0mggwQn2sHekMABhwwy9Hg3PyE4t//u//9ut4/jee+/5FVpmZqZbGOyHQcvHk7Dx8MMPO8XBoyDEJ1DCBoc3evRop3i4I83TYLR+9u3b5xbeH/7wB2L/I0pL5P7tb38jzhdPHyVhwbXjz7+DJWwo2YdX1HH9QNhwtYj+35FS4SCdaByBATCgiQGl6Sjnzjo60prCjJLOoJoRG7wqyrhPZ1FOnvMUnorK834JEHIxwvU7T10R+cBTRe7o9KTTxiuy8D23dXzCcfz6+3pKx3hqjLhXCBtbdh52HBPnpn2zGMJGlHAr8hR71AmBZADChv4+RVSG0K9fP7dON0+JqKqq8ut59+zZ4xbO0KFD/QpDXMwOO9kRqdgGDBhADQ0NxNMh5B34cePGiVtozZo1juv5vhtvvNFxTnzxtdyruI5XR/l//+//OcUllpwV1/izf/PNN53C4md44oknpCDq6urommuucTvP03jOnDmjGI2SPxSlFWn0CBs8GoZHT4jtL3/5i5QWXraWp7zI84G/89Kzrp9JkybR+PHjHdsnn3zieglhxIabSbweCGSlgLDQyAADYMCIDLiujmI98p1bx9eI6faVpuNxqdJqJeyDwtfGnX7X8NQIGxOmzZUEgctve4yOnDjpCKO21kKjxk5223ilExYhHu33guPcDR16ScfY6anSPcWlVY5wXdPY2GiXfHpwmPKlZg8dT3KEKe6BsIHyR7CAPVjwlwEIG167C+Y8yWKAaweVf8sFA7WW4Y6ta1jcqQ3Uh/19uIbPK43481ErbHCYjz76qFt8+/fv9yc6x7XXXnutW1jsI0N8WEhhAcH1+Z5++mlxiWOv5ED1N7/5DS1YsMDtfj3ChiNCly9r1651i4dFIHZmKj7JyckOp67imKc9hA1PllE+7m/Bj+vRWAADYCDiGEjZ5uRnw7qgj8eOdCQ9GwsN3OH/45X30LX39FDcrri9s3RN/2Fvuj2zGmGDBYwhI8c54tm0/aBbOMJm67bsk0SIv1/3ABWVVDqu43T+7vJ29K+bHqaTaTmO4+I+b3t2WMrPyGHKr+MpJnycp72I4xA2UDYJFrAHC/4yAGFDuZ9g2qMrV65UnIKiZbQGG3HUqFFuHV6eHhKoz8svv+wUPjurFCuivPvuu8Sbr48/wobS8re8vCr74PDnw+KCq2DhKgRweK4i0//+7/9STk6OU1Tnzp0jnqbiGh5PDVFKr5Kw8dZbb9GhQ4eora3NKWy1P5SmzshHsxw5ckTyJ3LLLbdQaWmpz2B5ms727dsd2+7du93ugY+NX0zib8GP69FYAANgIOIYqG8k67cPO4kblvwkR4c44p7n5ykFQtjg0RGenmH3gRhdwoYIV4zcuOg/dys6D+URFH+66l4prkUrN7mlZ+yEGdK5q9o/7jatRcShtM88fUa675q7uzuFue9QnHS8U18IG0p2wzGU02DAPwYgbPzSNzD9tyVLltB//dd/uXWQucP84YcfarJP+/bt3cLjTm4gPtzBdx3RcPfdd0tBv/766454v/rqK6/RqRU2bDYb8cofl112mSNsISZ89tlnXuNwPenqF4TD6dy5s+tl0m+5ODRt2jSnayoqKkhpugn7R+EpK2qEDX4m8RwskLz44ouUl5fnFI+3HwsXLnTcL8Lh/bfffivdxiNaePSIOMcOSL35CvEWl/wchI1frIGKz7+KD/aCvcBAZDJg3f6Jk7Bh3T3FqaMcifkaSmGD7TN5xgJJTLir80DiKSLCZmkZefSvmztJ5z6eMsdxXJznfUNDE4kRFewrIytbnZ8Tnm7DIzPu7vy0U7hCsHmk7/OO4yJ8+NiIzHdUzgu+Iw9DzQCEjV/6Bqb+xqMoPIkaHTt29HtEAhuzurpaMczKykrdtuYlRPnff9FZFnvuTLuO4uCREMuWLfMYpy9hg0dE8OiH++67Twrj66+/douXV/ZQ21lnYUekV77fsmWLYhrZf0W7du2kjUUI8Tl79qyiHw4O89NPP5UuUyNscH7I08Hfd+zYIaLxujMTL+YAACAASURBVN+7dy/9z//8j9v9//d//0csBO3atYt4lIlr+OybIzY21mvYvk5C2PjFQqGuOBAfGitgAAyEhYGcE87CxtzOZKm3ODrFYUmTTmeOoRY22Eazvl9JBWfLHHZbuXYH/fPGjpL4MGzUB9Jxnj6yfut+Onw82XEd38s+Mp4e8a50LU+fGT/pG2n5WG+2377nmHR91wEvOYW1c99x6XiXJ0c4jkPYQNnijSWcAx/eGICw8UvfwJTfuNPMPi9cnWKKjugVV1zht8NQYcghQ4a4dWg5vEB82AGpSKPYcweaRYg777zT7RyPYNi5c6di1J6EDV6qlleBEaMNuAPPU054u/76693iuP/++1UJQEp+Otgu3qaBFBQU0KlTpxzpZ+GBxQPx7PI9LxcrwlIjbJw8edItnNTUVEdcnr7MnTuXfvWrX7ndy2mZNWuWdBuLOLzSizx94jvbVWlajKf4XI9D2PjFIt4KeZxDIwAMgIHoYcBO1nndncQNS8pWR6c4Ep8zHMKGsFNJWTUNemmsJC7wiIqRb39Kdeetkj1Z0OBj3Z9+RdG+vBzr7y9vL13DU1NW/Lhd8TqOa/6y9dJ1HJeIm/dbdx+RjncbONJxHMIGyis5I/gOHvxhAMLGL30D0307evQoXXfddYqdTu58XnzxxcTLtWr5KI1q4DCfffZZLcE57uGlUJVWE+Gw33//fek6dlip1On/4x//SPn5+Y6wxBeeviI622LPoz4uuugit+MpKSnSbTwSQVwr3/M0Dm8fJSeffL/rFBNPYbDYwqvDyOOUf+fnZnFHfJSEDfZfIf+ww1J5GPy9trZWfonT9+LiYuIVaVzvEb/vuusuYsFMfBISEohHaIjz8j37bomPjxeX+rXnUSnysPh7r169/AojWi72p9DHtWgkgAEwEMkMWA/PdRI2rKtfdnSKI/G5wils9HvuDUlY+Mf1D9IP63c62dGXsMG2PhqTQvd3HyKFoeTYVOTHK+98Jl0zZdYipzg2bjsgHe81eLTjOIQNlE+CG+zBgr8MQNiIlp6NH8/BzjW54+5plAZ3EC+99FI3J5XcIeZ/yXnkA/tNYGEkLi6O+B//jIwM6Td3Njt16qTogJTD/fHHH/1IqfOl3AFWGinB4bI4IXfgyelSmgJx2223SVMkRMjso8J1uVgOz9O2aNEicSv16NFD8bqpU6c6rpF/Yb8VLK64hs0+J3hqjbePxWKh6dOnuy2DKg+LR33k5uY6BaO0agyLS+np6VL+cp5eeeWVTmlicUTpw0vQsi8RMYJFHrf4zquZyFdCEeFwfCyUievke14mls+7flig4ek5PKqDxRFeJYZFFV5yeP369cR2k4fD3wcOHOgajCl++1vw43o0FsAAGIhYBsqLyDrrfidxw1Ka7+gYR9pzhVrYKCquoOvv60lTv15E2blF1HPQKGLnnq528yZs8EiP75esoz0HYyU/HUtXb6X4pAy3MESY93YdJAkYfL04xvsfN+2Vjj8x9A3HcQgbKJvkjOA7ePCHAQgbpuj2/PKQ3NH95z//6dYhlHcQeRlS9t/g+lGa/iG/z9d37tTziAt/P+xXgqfL8HQSpTh4qgNP1XD9rFq1SvF6fg7+/PTTT3TDDTcoXqMUz0033UQxMTGOaLKzsxX9S7BgxKKP/MPChJJPEI6HR1V4+tTX19PkyZPpr3/9q9d08nMoCQrsx0LpWbwd69Kli1NyeJQLOzD97W9/6zUsHpXBgpKnD4suSmIEp4XFFFeHpez81Fs6lc598MEHnqKP6uP+FPq4Fo0EMAAGIp0B6/o3nYQN656pjo5xpD2bEDaubv84jZs4U3ETS7UqjYpQs9yr3CY8hYSnmIwYM8HJZrv2nyAeORGbkC4dlwsb7DSU/WTMW7peOidWM5Ev0yqPQ/6dl5q96N93S0vFVladd4pz1bqdUlqeeuFtx3EIGyif5PzgO3jwhwEIG1Hd3XF/uI8//thrZ7F///7EnWmlDy8Fq9SZVHvsiy++UArW5zEWIB566CGPca9evdpjGCNGjHC7j1ckEaM7eOqIr/T/+9//puXLlzv8VsgjW7Bggdv9vLqJCF9cy6MklOLhZVK9fXiEAk/XULpXHONpITxFRenjyYGruFdp/+WXXzoFxcvAehvdw2HwqA/XZWidAvn5B4sXStNSeNSGmOYjv++SSy7x+uyu6eeRHGb8+FPo41o0EsAAGIh4BjIOOAsbszuRpa7O0TmOpOcTwgaLDb62QAgbvJoJx3PgSIKTvcS0lGVrtknH5cIGOwz9z51d6M9X3UflFRfs/GCPZ6Vw4hIvCCGebM5LyHJ8dz4ywCk+vn7xqs3SuaGjxjvOQdhA+eSJJRwHG74YgLBhsl4QiwSPP/64W2eRnUDOnDnTqzV42oavDq5rR1P8Zkeizc3NXsP3dpJXHOGVR0R4vP/1r39Nc+bM8XYb8bQbeeeYRQ0ePSE+POrC02owPIqAV1nxlW75Kiy33nqrojDEPjlcBQru4POoBF+fGTNmOD23sAEvzbpu3Tpft9OwYcMU7xfhyPdsUxZTXD/Dhw/3GAaLYf6sdHP48GGn6T8savB0JqXP008/7TFeebr5O09HYr7N+PFV0OM8GgNgAAxEFQONdrIu6OMkbliOL3F0jiPpWYWwcXvH/rR6426vG4sErs/mz4iNg8cuiAw3dOjlFA5PRfntZe3oslsfpdq6C6vMyIUNjpOXgGWBYu6iH6V7126+MI3k+dc/cgrLNX2vjZsi3Tdq7GS36zgsDpOdlor7IGygrBIsYA8W/GUAwoYJe0H87z6PQhAdQ+4QqlkFg03FPirEfWr27I9h9uzZAbGy3FkkO6hkUULNZ9u2bVKaXUUNcW+/fv0cz8QCT58+fYin7LiOuhDXu+5Z+OClYFlAUZoOIq5PSkpy+Mhgvx7cwVfz4ak4t99+uyONLD689tprqlerYd8YnkaMyPOQp7O4OhYV6eORHyykyK+/7LLLiG2r5cO+Sjgsb6IGh8vClTxOT995+owakUhLWiPhHn8LflyPxgIYAAMRz0DcKidhwzqvB1kabI4OcqQ8nxA2Hu33gqa0+yNssAjBQsLEL75ziuvND6ZJx3npVmE3V2EjN79EWgWFnYXyNY2Ndrr5gT7ES74WlVQ67hP3876qup4uvuFBKeyY+FNu18yYu1w6x/GL+/QKG2cLy2nY6A+JV2rhbfhrHxEfE+EHeh/t8QXaXggPdU8wGYCwEQm9liCkMTk5Wepks+gglgZVEw1PyXj++ee9bjy9g0d/sLNPX6Md1MQpruGwuIM/ceJE4s6+Px9eflQ+UkN+L/uh4JEWPDLCn5EH8jDKysoUHWDKr+Hv3PlmHyYLFy50PeX1N9vyT3/6k7Tyi9Y08ugV9oGxe/dup439gXD6fX0471lY4PTPmzdPk78UeRzsiNTTSA1xHft6Yf8qStuECRNo2bJllJiYKC437T6YlQTCRiMEDIABQzJwvoGscx5zEjcsSRuC1oENlg2SUk5Th26DiVcO0RKHWmGjovI8/fWaDvSbS++krJxCR1xZ2WfpT1fdK4kWOXnFjuOuwganjafCsDCSmJIlXccOSPn3pOnzHffJn4F9cvB5nrYiPy6+fzJ1rnR+wrS5jvN6hA1+Rh6N8rvL2xFPreGNv/MxV/8eIg169tEenx7b4F7UG+FgAMKGabtCFFDRIVRmDKRQEqo0u8Zjs9lcD6n6LV9CVdUNQbiIVygx63SPIJgzYEGGo/JAnGi0gAEwEG4G3JZ+XdCXLA1WRyc53OkLRfxqhY3vFq+VRITO/Uc42UeIFa5TRZSEDV4SloUKMcKi4GyZJBzwyIj6+iancNnh6F2dB0rXL/lhi9M5YZdnXhornZ+9cI3jvBA2eHrKzO9WOG28egrH/8Hkbx3Xi7B4P33OMun88p/9hPAx/s73cFjyawPxPdrjC4SNEAbqiVAyAGEjYF0LBAQLwAKwQHgsEMpKA3GhkQIGwIBhGKipJuu3nZxHbcQGvgNrmOe1uLO3dfcRqePe7tGnvHbceQoJd/AXrtjkuE7c+4/rHyReBlb+nErCBo964NEd/7q5k8MXBy8Xy+Gu3rDL6f7PvponHf/3HZ0d18rDzysopT9ccZd0Da+yIs4JYYPD9LR5EjZYDOH01Z3/Rdzi73xM7sdDxKV3H+3x6bUP7nd/X2GT4NoEwkZ4+iGIFRaABWCBgFkAFWVwK0rYF/YFA8ZlwLp/hpOwwdNTLJVljo5yNOUdiwdrNu6hjdsOSMuvrtuyjzr2HiYJAC+/NdHjM/PUERYJeCqKfEoG+/e47t6eNGXWIuledhwqRIGv562S7pEvxcq2FCM8ePQG/165dgfddH8f4rQIWx+LTZFEC572wsvE8vGMrAJJVGEHqTwFhaeHcJouv+0x4lVXxL1C2OD9R1NmO22PD3hZuseTsPH5zIXS+Q3bDjjC4+8cz7RvFjuOibj07qM9Pr32wf3GLTejNW8gbASsa4GAYAFYABYIjwWitYLCc6FRBAbAgE8Gqs65jdqwbv0w4J1Yn+lQGE0R6Hvu7TpI6qQrjWQQAoJSnO9/9rV0HzvVdD3Py7fW1l5YCWXrrgujP3iEg4hjzqJfponwvUtXb6WHeg2l/YfjpbB4Cgo7EpWHy45Q+f53Pv7KcfxUZr4jTBE2Oxbdtf+E4xoOQwgbW3YedjrO51ic4Hs9CRs86uSK2ztLy9K+8MbHxBsvUXtlu65UUlbtFp48zVq+R3t8WmyCe1Bmh5MBCBvh6YcgVlgAFoAFAmaBcFYiiBuNGDAABsLOQOwK51EbszqQJScm4B3ZcD8nTyMZMWaC08aOO9kBqLe08YiIZWu20fG4VK/Xcef/jof7S9s9XZ6RVk85V17rdI+riKEUb3ZuEQ0dNd4x+kNcwz4pWGRhYWLB8g2KYsPeg3E0f9l64lVYxH1izyNP+JzSCivimrSMPOo1eDT95eoO0tZnyGvEy9mK84HeR3t8gbYXwkN9EUwGIGwErGuBgGABWAAWCI8FgllJIGw0QsAAGDA8A41NZF02xFncWNCHLLU1QevQGt4mIRhBYmQbsPNSNSJMoJ4h2uMLlJ0QDuqTYDIAYSM8/RDECgvAArBAwCwQzEoCYaMRAgbAQEQwcDbNWdiY1YGsG8ZA2DC5wBER7CKP8J6CgYAwAGEjYF0LBAQLwAKwQHgsgIYbOp5gAAyAgWay7pzkJm5Y4p19RMBOeFfAABgAA9HJAISN8PRDECssAAvAAgGzACro6Kygka/IVzDgJwN158m6sJ+zuPHNQ2Qpzg7Iv4HIDz/zA/9CgzswAAZCyACEjYB1LRAQLAALwALhsQAa22hsgwEwAAZ+ZqAoi6zfdnQWN+b3Iss57w42YT+8Q2AADICByGYAwkZ4+iGIFRaABWCBgFkAFXFkV8TIP+QfGAgwA8kbnYUN9rexoC9ZKorx72kI/z0F1wHmGnmH9xcMeGUAwkbAuhYICBaABWCB8FgAjUc0HsEAGAADzgxYt3/iLm4sfIIslWVeG8awo7MdYQ/YAwyAgUhhAMJGePohiBUWgAVggYBZIFIqHKQTjSMwAAZCxkCDlazr33AXN+b3JsuZVIgb+OcXDIABMBBlDEDYCFjXAgHBArAALBAeC4SsoxBlFSDshk42GIhyBljcWDvKXdxgh6JxP6BTgzIdDIABMBBFDEDYCE8/BLHCArAALBAwC6BzFuWdsyhqdIBVsBpyBuoblcUN9ruxdhRZygvRsUEZAwbAABiIAgYgbASsa4GAYAFYABYIjwVC3lGIgsoPNkMHGwyYiIF6C1l3TXYfucHixrcdyXJ8EVnq6tCxQdkOBsAAGIhgBiBshKcfglhhAVgAFgiYBdBBM1EHLYIbHOAUnIadgZRt7kvBsrjB2+xOZN0xkSz5SejYoJwBA2AADEQgAxA2Ata1QECwACwAC4THAmHvLERg5QeboZMNBkzKQNkZsq4ZqTx6Q4gc87qTddO7ZDmxhCw5sWQpziJLZSlZ6i3o7KC8BwNgAAwYlAEIG+HphyBWWAAWgAUCZgF00EzaQTNowwI8gseIYCBtJ1nn9fQucAihA3vYCQyoY+DIPHT6UTeHjQEIGwHrWiAgWAAWgAXCY4GI6ESgog9bRQ8+IDSAAQ8MnG8gS/wasi7sp67Ths4t7AQGvDMAYQN1fRjbexA2wtMPQaywACwACwTMAui0eOi0hLFyRZ4gT8BABDHQaCdL+l6yrhzuvdOGTi3sAwa8MwBhA8JGGNteEDYC1rVAQLAALAALhMcC6EBFUAcqjBU+OAEnYEAFA1XnyJJ1hCzHFpJ183tkXfU8WZcMJOu8HmSddb/3Th06vbCP2RmAsAFhI4ztHAgb4emHIFZYABaABQJmAXRWVHRWwljRIn+QP2AADIABMAAGwAAYCC4DEDYC1rVAQLAALAALhMcCqCiDW1HCvrAvGAADYAAMgAEwAAaMzQCEjfD0QxArLAALwAIBswAqWmNXtMgf5A8YAANgAAyAATAABoLLAISNgHUtEBAsAAvAAuGxACrK4FaUsC/sCwbAABgAA2AADIABYzMAYSM8/RDECgvAArBAwCyAitbYFS3yB/kDBsAAGAADYAAMgIHgMmBaYeOnn34KWKcCAcECsAAsEC4LcFmGijK4FSXsC/uCATAABsAAGAADYMDYDJhW2Ghrg7ARro4Y4oUFYIHAWYDLMlS0xq5okT/IHzAABsAAGAADYAAMBJcB0wobLS1tgetZICRYABaABcJkAS7LUFEGt6KEfWFfMAAGwAAYAANgAAwYmwHTCht2e2uYuiGIFhaABWCBwFmAyzJUtMauaJE/yB8wAAbAABgAA2AADASXAdMKGzZbS+B6FggJFoAFYIEwWYDLMlSUwa0oYV/YFwyAATAABsAAGAADxmbAtMIGgwk/G2HqiSFaWAAWCIgF4F/D2BUsGkDIHzAABsAAGAADYAAMhIYBUwsbmI4SkL4VAoEFYIEwWQDTUEJTUaJBAjuDATAABsAAGAADYMDYDJha2GA4MWojTD0yRAsLwAK6LIDRGsauXNH4Qf6AATAABsAAGAADYCB0DJhe2GhqghNRXb0r3AwLwAJhsQCXXagsQ1dZwtawNRgAA2AADIABMAAGjMuA6YUNhrO5GeJGWHpmiBQWgAU0WYDLLFSsxq1YkTfIGzAABsAAGAADYAAMhJYBCBuWCwaHuKGpf4WbYAFYIMQWgKgR2koSjRLYGwyAATAABsAAGAADxmcAwsbPwgbDykO74XMjxL00RAcLwAKqLMBlE6afGL9SRcMHeQQGwAAYAANgAAyAgdAzAGFDJmwIAHmlAQgcqvpauAgWgAWCbAEui7D6SegrR1EfYA/bgwEwAAbAABgAA2DA+AxA2FAQNgS4NluL1KFoaWmThI6ffvopyF0YBA8LwAJmtgCXMSxkcJnDYgaXQaI8wt74FSryCHkEBsAAGAADYAAMgIHwMABhw4uwASjDAyXsbhy7ZxTupSWHe+valh7pG9Gd8+bTU6ktpouuzVZ2NKJtgHfSOO8k8gJ5AQbAABgAA2AADIABdwYgbEDYQIcLDHhk4Fz1GV2ihhBFiiuzPMZh9IK5qeywLlGDRZHm7OkR+/xGzx+kz71ih01gEzAABsAAGAADYMBsDEDYQKcWHS4w4JWBlcee1i1upJ3Z5jUOoxe8rcnP6xI3WhOfJktDfUTbwOh5hPShAQcGwAAYAANgAAyAAfMyAGEDnVp0tsCAVwZ2nPxAt7BxKGOW1ziMXgnZ8+brEjZ41EZT6b6ItoHR8wjpM29DBnmPvAcDYAAMgAEwAAYgbKBTi84WGPDKQGz2Et3Cxsb40V7jMHplZKs8pVvYaM76PKJtYPQ8QvrQoAEDYAAMgAEwAAbAgHkZgLCBTi06W2DAKwM5Jcd0Cxvsa6O+weI1HqNXRC1pb+sTN+J6k7WuJKJtYPQ8QvrM25hB3iPvwQAYAANgAAyYmwEIG+jUoqMFBrwyUF1XHhBh42x5itd4jF4ZNRWu0ydsxHQh+9kfI9oGRs8jpM/cDRrkP/IfDIABMAAGwIB5GYCwgU4tOlpgwCcDa2KG6xY3kvPX+4zHyJURj7Zoi+ulS9xoSX0jom1g5PxB2szbkEHeI+/BABgAA2AADIABCBvo1KKjBQZ8MrA3bbJuYWNfWuT7mGjOmqxL2GAnorbyBJ/2RuWMyhkMgAEwAAbAABgAA2AADKhnAMIGOrXoZIEBnwwk5f2oW9hYc2KYz3iMXng3lR7QLWw050T2CjFGzyOkT30DALaCrcAAGAADYAAMgIFoYQDCBjq1Ed/ZjJaX0cjPceZcsm5hgx2IVtZGuPPMRhu1Jj2nS9xoTRhA1voqvHcoe8EAGAADYAAMgAEwAAbAQIAYgLARIEMauVOKtEGJ1cvA+YaGgAgbWUUHIr7wtufO1SVs8HSUpqLNEW8HvUzhfpRLYAAMgAEwAAbAABgAA4FiAMIGhA10sMCAKgY2xI/SLW4cy5qrKq5AFXDBCMdWcVK3sNFyamzE2yEYtkWYaNyAATAABsAAGAADYAAMaGEAwgY6tehggQFVDBxKn6lb2Nic8KaquLQUZqG8p+XUu7rFDVtlWlTYIpR2R1xo6IABMAAGwAAYAANgAAwoMQBhA51adK7AgCoG0s5s0y1ssJ+NhkaLqviUCiyjHGsq3q5b2LDnfhfxdjBKfiAdaOCAATAABsAAGAADYMDcDEDYQKcWnSswoIqBksrsgAgb7Ig04iueRgu1Jg/XJW60Jj1LlobGyLcF3h/kIRgAA2AADIABMAAGwECYGYCwEeYMiPgOHuxnqkJsxdGndIsbiXk/RIXN7AVLdQkbkhPRkt1RYQuUY+b+hwT5j/wHA2AADIABMAAGws0AhA10zNGxAgOqGdh18mPdwsbulAmq4wt3AektfmvtWWqL66lL3GjJ+CgqbOHNTjiHhg4YAANgAAyAATAABsBAsBmAsIFOLTpWYEA1Azzagv1k6NlWHXtGdXzBLgD1ht+c/ZUuYYNHbVirs6PGHnrtifvR6AEDYAAMgAEwAAbAABjQwgCEDXRq0akCA6oZOFueokvUEILIueoC1XFqKdhCdY+tIlG3sGHPXxwVtgiVzREPGjtgAAyAATAABsAAGAADrgxA2ECnFp0qMOAHA/aACBvpZ3f5EaexC+6WU+/pEjdaT74YNbZwrWDw29jsIn+QP2AADIABMAAGwEC0MABhA51adKrAgF8MbE16V7e4cThjll9xGrnAbSreqUvYkJyIlh2KGnsYOa+QNjTewAAYAANgAAyAATAQnQxA2ECnFh0qMOAXAzHZi3ULGxviXvUrTkNXQI02ak1+QZe40Zw1OXrsgfcJeQkGwAAYAANgAAyAATAQYgYgbITY4IbuoMEWKIBUMJBbGqNb2GBfG3X1tVFjb3vBcl3CRltsD+JVVlA+ROc/CMhX5CsYAANgAAyAATAABoLLAIQNFR05QBhcCGHfyLJvXX1dQISNvNLYqOnIW2uLqC2uty5xw35mVdTYA+90ZL3TyC/kFxgAA2AADIABMBDpDEDYgLCBzhQY8JuBjfGv6RY34nKW+h2vkQvc5uzpuoSNlpQomp6Ddyqq2Dbye4e0oSEOBsAAGAADYAAMMAMQNtAARwMcDPjNwNHMObqFjR3J4/2O18gVl60iSZewITkRLdkbVTYxcn4hbWgEgQEwAAbAABgAA2AgehiAsIFOLTpSYMBvBrKKDugWNpYf7e93vEavfFrS39clbrSkj4s6mxg9z5C+6GnQIC+Rl2AADIABMAAGzMsAhA10atGRAgN+M1BVW6Zb2GAHoiWVp/2O28gVVlPJbl3CBo/asJVHj+8RI+cV0mbehg/yHnkPBsAAGAADYCD6GICwgU5tVHUsUUiFrpBaG/uibnEj9czmKOPPTq0nR+gSN7D0a+gYRnkBW4MBMAAGwAAYAANgIDoYgLABYSPKOpbR8WJGQgF7MP0r3cLGgVNfRB1/9jMrdQkb0qiNqsyos0skMI00ovwEA2AADIABMAAGwEBkMgBhA8IGOlBgQBMDp85u1y1srI15QVPcRq5wrHUl1BbfV5e40ZzzbdTZxch5hrRFZgMG+YZ8AwNgAAyAATAABgQDEDbQqUUHCgxoYqCsukC3sMF+NqrryjXFLwoxI+6bc2bqEjba4vuRta446uxixLxCmtAgAgNgAAyAATAABsBA5DMAYQOdWnSewIBmBlYdH6xb3MguPqw5fqNWQraqDH3CRkwXshcsjTq7GDW/kK7Ib8wgD5GHYAAMgAEwAAbMzQCEDXRq0XkCA5oZ2JP6mW5h48Tp+ZrjN3IF1pz9pS5xozVpKFka6qPSNkbON6TN3I0i5D/yHwyAATAABsBAZDIAYQOdWnScwIBmBpLz1+kWNrYmvqM5fiNXPLbKU7qEDXYi2lS4MSptY+R8Q9oiszGDfEO+gQEwAAbAABgwNwMQNtCpRccJDGhmoKgiQ7ewwX42LBa75jQYuRJrPj1Nl7jRkjo6Ku1i5DxD2szdKEL+I//BABgAA2AADEQmAxA20KlFxwkM6GJg2ZEndIsbheVputJg1ArIVpmqS9iQRm2U7o9K2xg1z5CuyGzMIN+Qb2AADIABMAAGzM0AhA10atFpAgO6GNiRPF63sJGcv1ZXGoxckTWfnqpL3GhJHx+1tjFyviFt5m4cIf+R/2AADIABMAAGIosBCBvo1KLTBAZ0MRCfs0K3sLE3dZKuNBi54rFVnNQlbPCoDVt5fNTax8h5h7RFVoMG+YX8AgNgAAyAATBgXgYgbKBTiw4TGNDFQMG5RN3CxuoTz+pKg9Erseasz3WJG82np0S1fYyef0ifeRtJyHvkPRgAA2AADICByGAAwgY6tegwgQFdDDQ0WnQLG+xAtKKmSFc6jFzp2CqSdAkb0qiN6tNRax8j5x3Sn98BWwAAIABJREFUFhmNGeQT8gkMgAEwAAbAgLkZgLCBTi06S2BANwNbEt/SLW5kFO7WnQ4jV2jNWZN0iRv23DlRbR8j5x3SZu6GEvIf+Q8GwAAYAANgwPgMQNhApxadJTCgm4Hjp+frFjYOpc/QnQ4jVzq28gRdwkZrfH+y1pVGtY2MnH9Im/EbNMgj5BEYAANgAAyAAfMyAGEDnVp0lMCAbgayS47qFjbWxr6oOx1Gr8yaMz/VJW7Y8xdHvY2MnodIn3kbTMh75D0YAANgAAyAAeMyAGEDnVp0lMCAbgZqzlfpFjbYz0ZlbXSPSLCVx+kSNloTBpC1rkR3fqFSNm6ljLxB3oABMAAGwAAYAANgwH8GIGygU4tOEhgICAPr417RLW5kFO4NSFqMXBk0Z07QJW7Y8+ZHvY2MnH9Im/8NDdgMNgMDYAAMgAEwAAaCzQCEDXRq0UkCAwFh4HDG17qFjUMZswKSlmAXnHrCt52L0SVstMX3I2vt2ai3kx4b4140nsAAGAADYAAMgAEwYC4GIGygU4sOEhgICAMZhXt0CxvrYkcEJC1Gr8iaMz7WJW7Yc+eawk5Gz0ekz1wNJuQ38hsMgAEwAAbAgHEZgLCBTi06SGAgIAywfwz2k6F3q6yNfh8StnPHdQkbbXG9yFqdG5B8QwVt3AoaeYO8AQNgAAyAATAABsCAOgYgbKBTi84RGAgYA+tiX9YtbGQW7QtYeoxcEbRkfKhL3GjO+doUdjJyHiJt6hoasBPsBAbAABgAA2AADASbAQgb6NSicwQGAsbAkczZuoUN9tUR7ILPCOHbymN1CRttsd3IVpVlClsZIb+QBjTIwAAYAANgAAyAATBgXAYgbKBTi44RGAgYA9nFR3QLGzzqwyyVRnP2DF3iRnP2dNPYyixM4DmN22BC3iBvwAAYAANgAAwYlwEIG+jUomMEBgLGQO35Gt3CBvvoqKgpDliajFwB8eomrQkDdIkbtspTprCVkfMRaTNuIwd5g7wBA2AADIABMGAOBiBsoFOLThEYCCgDmxPe1C1uZBbtD2iajFyh2c+s0iVsNJ+eZhpbGTkfkTZzNJqQz8hnMAAGwAAYAAPGZADCBjq16BSBgYAyEJO9SLewcSTjm4CmydAVUGMTtaSO1iVu2CpOmsdeeF+R12AADIABMAAGwAAYAAMuDEDYcDGIoTtASCte4AhgIL8sQbewsT5upKnyuqn0gC5hozlrsqnshXLamP+UIF+QL2AADIABMAAGwEC4GICwEQEdxXDBgXhRMGlhoL6hUbewwX42ymuKTNVZb876TJe4YStPMJW9tLCJe1CmgQEwAAbAABgAA2AgOhmAsAFhA50hMBBwBnYkj9ctbmQW7Q14uoxckdmqMqgttrtmcaM5c6Kp7GXkvETaorPBhHxFvoIBMAAGwAAYMC4DEDbQqUVnCAwEnIHEvNW6hY0jmbMDni6jV0b2vAWahY22mC5kOxdjOpsZPU+RPuM2gJA3yBswAAbAgH4G6uub0PZAX8IQDEDYAIiGABEVi/6KxUg2LCxP0y1sbIh7xXRsWuurqTX5ec3iRkvGR6azmZG4R1qiqxxDfiI/wYB5GDhTeE6x/mxstNPCFZsor6BU8bw3Ro6cOElzFq2hE/FpPu/Nzi2idz7+ir74ZonPa73FyWmtrbX4FcayNdvo8tseo+Gv+d+GYPu0f+wpuvmBPhSflOEz3pnfraDr7u2p+zm92QDnzPPeuuY1hA0IGz4LIVdo8Nu8BYY/eb/i2EDd4kZ5zVnT8dlUtFWzsMGjNppK9pjOZv5wiWtRfoEBMAAGwsvA1/NW0eMDXg7qNmXWItV14eJVm+lv195P3y5Y7XbPexNn0q8vuYPGfPiF2zlfHIl7J37xnc97Dx9PluK54+H+Pq/1FO+4n9P6QPdnqeBsmepwvl+yTor7iaFvqL5HpGHdln3SvVe260rn621e729oaKLr7+spXT974RoqLKrwuGEUSHjfUZG/kbaHsAFhw2shFGlAI73GKQj3pH6mW9jIKDRnJ70l/X3N4kbryRFkqa/Fe42yHQyAATAABgzJwOj3Ppc6tywYBGsbNuoDVc9eXlFHV9zeWUrHrO9Xut2TcDKLfnPpnfTXazpQcWmV23lv7c5QCxunMvPpto5PSM/ynzu7UFxiuqr06hE27nt8kM88fO7V8VI6Vm/Y5fNawUPKqVxVafdmf5wzTp8gVHkBYQOVHgoOMBAUBlIKNukWNo5kfhuUtIWqgNUaj608XrOwwaM27HnzTGk3rfbGfeZr/CDPkedgIHwMpKbn0s59x1VtI9/+VOoM9xnymqrrRbjJqdmq6sE3P5gmhd+h22DiEQVKXPBIBu5w81QRpfOejoVa2OB0sFDDtuL0/uumh1WJG1qFDZ5WwvFcduuj1HPQKGn73eXtpGM8Ikccm/bNYioqrqB/33FBQOr33Bs0bPSHJESRm+7vI/3mY2LzZ8SJJ/vjePje8XDZHsIGOrV+FdLhAhXxRl7hVFx5WrewsSF+lGn5bM6ZpUvcsFUkm9Z2KC8ir7xAniHPwAAYUGKAR15w55mnLiid13Nsy87D0mgM7ozHJnge3cDnfn95e/rtZe1o36E41ekIh7DB9mCBhkdJCHHDl38QLcLGgSMJ9Icr7pK2Q8eTHDYZO2GGFO/4Sd84jnGaeg8eLR2XT3dhseOSWzpJ04CycgqdrteTr7jXvGUJhA0IGyhIwEDQGFhzYphuceNc9Zmgpc/IlZ+1tohaEwZqFjda0i8M/TTyMyJt5m18IO+R92AADKhh4PaO/aUOsdppFWrC5GvYWSePaODO/+QZC3y2Mz6ZOle69pq7ulHZuRqf13Mc4RI2OG72UTH45feIR6T4som/wgaPChGjL3g0hjz8mppGavfoU/TsK+87fG5UVJ4nFjR4yg+LGfLrV67dQVe3f5x4Lz+O7ygftDAAYQOdWhQkYCBoDBxMn65b2Egv3B209GkpNEN5j/3sas3ChuRItHCjaW0XynxCXGiAgQEwAAYCz0Bl1Xni0RR/ubqD1FEPlI3ZV8bdnZ+WhAqeFsEre/gKm4WCB3s+J93TbeBI4g68r3sCKWzwKAz2UXF/9yF0PC7VZ9ycNk9Ta1zT7a+wwffv2HucRo+dLK3A8taHX5KajcUOpevYMSsfPxqTouq5XNOP34F/9yLVphA20KlFIQIGgsbAqbM7dAsbRzKchzNGamGrNd0tp97RLG60Jg4ia21x0PJX6zPhPjRCwAAYAANggBlIzyyg5Wu2KW6fTZ8vCQm8koana+TH1SyryiMGeHlSHqnBK5CoHX3Bac3KPusYqdDtKd/iRiCEjbrzVmm52Vse7CulmdPdqe/wgNbrWoQN8f6y+MRpCsQ2f9n6gD6XSCP25ilrIGygU4tCBAwEjYGy6nzdwsbG+NFBS18kVHa2yjRqi+utWdxozp5havtFQh4jjeZpdCGvkddgwJkBXmI1EJ1iDoNHEHiz7+ncIknM4Gt5uoTrtAhv94pzvFrH5bc9JqW5c/8RVFRS6TFOIWywk8xX3vlMcRO+Q+TLvfIIkr0H44gdp4rpMpxmHmWyaOUmYrFDpIf3B48mEi+76rrJHXDydBsWipS2J4eNkZ6HV1RROs/HlFaM4biFsMG+MjhdWja2DT8fhA3nd0Oex/iuzjYQNtCpdSoc8eKoe3FgJ/V22hD3qm5x41x1gak5bSpcp1nY4CkptrKjprYf3lf17ytsBVuBATAQSgaEsMErY3jq/Ps6/lCvoVLH2JuwsXDFJvrH9Q9K193VeaDfS7fKbcIrrvBKINwZZ78RW3cfUaxjhbDB13nahDNNIWz87dr76cp2XR3XX/Tvu6n/sDcloUOeBvl3FliUwmehQ1zH4Shdo/YY+8EQYcn3Qthg227YdkDT1utnx6IQNlD2yNnS8h3CBoQNxYJKC0y4BwWSEgNHM2frFjbSz+4yPafNWZM0ixstqa+TxaK8jJ1SnuEY3mUwAAbAABgIBQNC2OBVPLTG99XsZVKn3ZOw8eHn3zo69RwPd8a1xiXuY+ejQlD5zaV3Ko42EMIGj4hYsGKj4rZr/wkpLULYYKHhj1feQ32ffV0anaFmqsznMxc6lknl5VJv6NBLel65sDFu4kxpuVpestZ16/70K9L1N3bo7XZOXMujNsSzy/dC2FArkHi7DsIGyhw5W1q+Q9iAsKFYUGmBCfegQFJiILNon25h43DG16bnVFolJek5zeKGvWC56W2oxCeOodwCA2AADISPgVAIGwkns+jv1z1A7EuC83rq14uo64CXdG3nymulVT/e/WQ68RQOJQFCCBsTv/jOZ/0rhI3r7u1JvOqIHiZZ3GABQS5seAsvED42/nljR8kHCfsh8XcTS9NC2Ajfe+iNj0g6B2EDwoauwjOSYEdaw1NgVtQW6xY2NsSPAqeWZmoq3adZ2GiL60O26tOwI8p8MAAGwAAYMAwDoRA2uP0n94UhOv7eRg/4OldVXe+wYW2txfFd3tbUImywQ1N5GFq+i+cLpbDBwtH6rfs1bT0HjZKEGAgb4Wmna2HMqPdA2EDlprsANSrcSJdxCsgtiW/rFjfYESnytJnsubM1ixvNmZ/BhijzwQAYAANgwDAMhErYkLcfsnIKpSVTedlUsbGfDBYz/nzVfdKyo+K46559VfDUEzVLxJpJ2PAlBKk5D2HDOO12+fsSSd8hbKByM0zlFkkvDtLqX+F74vR83cJG2pltYJXLq4YGYp8Z7BRUy9ZUAn8leH/9e39hL9gLDICBYDEQDmFD6VnYuSh3vvsMec1jW6O+vkm65k9X3evxGnnYZhI2eCpKanqupm3IyHEYsYH+qKp3Sv5+KX2HsAGQAgKSElw4hoaQYCC75IhuYWP/qWlg9efyylaRSG0xXTUJG63JL5C1vhq2RNkPBsAAGAADYWdACBssFvz7js6aNp4GwaKEJ+ehoi3ibf/k8LekMMTyq0rXsl8NjudfN3dSZTczCRu8LG1OXrGmbdioDyBsoCxS9U4pvZfyYxA2AFJAQJJDhe8QNFwZqK6roKVH+uoSN9acGEYNjTbw+nOZZT+zUpOwwaM8mnNmwY4o+wPCQElZNW3bc1Ta9h2K0xxm/plS4n9M0zLyVIdxpvAcbdx2gIqKK1Tf41o2+fs7Jv4UlZbVhCw+T+lLzyyghORMaVNKT0MDVkHyZDscN1YbRQgbPL3jD1fcpWn77WXtdAkb1dUN9NdrOkhh8Gonnhjhcyxs8Oohnq6RHzeTsMF20bthKoqx3k05y5HyHcIGGreqCudIARrpNG6huD35fV3CxpLDvamgLBG8ysqsloyPNYsbTcU7YEuZLc1cduTml1CnvsPp4LEkv5ngpQpFY/bq9o/7fb+w++vvT3WE8+Kbn6gKZ+yEGY57Xn13kqp7RHz+7ll0Yad+/KzjPg2/MCiWmeT0cNrE82zfc4w69x9BL7zxseOYOIe9cetHM+eNEDaCudyrL/vycqn8Lj3Y8zmv782J+DTpuo69h3m9TsQXDGEjPinDp5gbSuehdeet0iozvNIMb90GjpRs9NgTLzodF+fFnpe0ZZt/+uX3jut49RphO+xRXmlhAMIGGrYoRMBASBiIy1mqW9iIy1kWkrRqKUzDcY+1Jo9aEwZqEjdaE54ia3UO7Gny95+HDt/QoZfUwLzoP3fTguUb/GIiEMLG2cJyyWEfN3J546UROVyljedw87tWWXWe/u+Gh6Tr+R4eyjxv6XqP24oft/v1XK7v89rNex1x8T+7oRwl4poW/s2dBmGv7xavlZ6NV33g4eDi+KbtB3U9s1K8OIbORqAZCLewUVxaRRff8KD03rADUW/Pt3nHIek6nrbi7TpxLhjCBouWv7u8HXFaRDyue1dhg1dtkQugrtfrWe7VNaxPps6VbORLAP7H9RdsXlF53uNzuIaN3yh/fDEAYcPkjVpfgOA8CpFAMZBXGqtb2NiW9B4qQJcyq6l4uyZhg6ektKR/AHu62DNQvEdKOHGJ6cQjLURnmPfcGFeb/kAIG/KRF/J0KH0XIzO++GaJU5qVrpUfu7JdV9XP5OnZezzzqiPOtz/6Snd4nuJRc1z8K8rP+PW8VY60LFuzzZHGK27vTDxVSE14uAZ1fbgYCLew8fJbE6V3xtdoDbbPzO9XSteOGjtZ1XsVDGGj/7A3pTTsORjrMQ1yYYOnqj3S93m65BbPfkH8FTZ4+uGA599W3G5+oI+Uvts79lc8L+7jaUdcfj0x9A3F6ziOcDGJeCO3PISwYfJGLV7eyH15Iy3v6urraOWxZ3SLGxU1xajsXMqt5uzpmsUNe8ES2NPFnpH2bulNb2FRhdTwlQsBYz78QhUXeoWNIydOEi+fKI/b23cWNlJO5TqN8PB2vTgXCGHjVGY+8agWDpOXhGQfH3ptr/V+XrlBPNtXs51HsomOD58f/DLEYK02xn2haR+FU9gQwgOXQQeOJPh8n1955zPpveM0q+FDhM+j0DxdL0YsHD6eLIXNU948XcvH7+78tHRdRlaBx+uEsDHzuxV0W8cnpOsf6P4s8cgNpbD9FTbYwaoof4K19+bEVekZcCw076vR7Qxhw+QNWqMDivRFV0G1N3WSbmEjo3C3YsVsZlas9VXUevJlzeKG7dwx2NTkdcH5ehuxbwt5I/WjKbN9cqFH2ODpHFfJRov0ffZ1Wr91v7TddP+Ff/04PdwpEMePx6XSPV2ecaSzQ7fBDiea/E+gSP/HU+Y4jrOTzZNpztOueArOw32G+72J4dMcD6fRnzDUdJzUlmNiBQdOB/sHkN/HggtPSbnu3p7EHZbGRrvTefm1+B5ddWwk5me4hA0edcXvD0/r+GH9Tp/vCL9Holw6GpPi83rOCyVhgx37sojBZdT93YdIIik7LxXCBo908JSPtXUWYt8UvHlzEMz+SsSz8X7EmAnE93oK119hg8WYrJxCt00IHtfc3Z1YeFG6Rhz727X3S2lMSjmteJ0QfDylGcdRdikxAGHD5I1ZJShwDIVFsBhIKdisW9g4lD7DY+UcrHRHQrjSErCxPTSJG60nR5D1fOhWlogEe5oxjdxwf2nMhWHZl976CHGD05cdtAob3CjvOuAlhxDBDWH56h48zJpXSeBGOTs2FengER5iaUf2dcGjKMQ57tCLufI8DaOqut5xTlwj9nwfhx3KjcUZET/v+bnYCaiWjZebFGm/5q5ubmHwspncaZKHXXYu/Ku5yJ8f39HWYAaEsMGsLlq5SdM2ZOQ46X1Qs9wrr2zSc9Ao6XouY9g3jxoWP/tqnnQPi5ueRj64hvPUCxfE1tfGTZF8XAx6aayTHxx+h/9ydQc6FptCp39ecYWnaGSePuOWpvKKOho/6RspDWwr17jEb7nPEB6Jombkg7/ChohLvmc/RMLHz5IftnhMn7hHiMQQMFAOCCYCsYewAWHDZ+ETCNAQBgouZqCsOl+3sLE29kUw66HcairarEnYkJaAPT0NdvVgVzOVXyxu8DQUtd7ptQob3DHgf0z539LfX96eduw9Ttwgl2/jJs4kHkrNHRH5cV4VgFclmPbNYqfjfM2s71cS++zga/i3p7wzgrDBzy3EiVDsw+3w1FNe4Li52wdC2AjEO+BN2OCyjf3RiJECLIwuWLHRqYzg0V1zF/0oOVHmzjk7HeYyiKd3cVnFaeRRGGqYLThb5hBn5c/G7z0LEx9+/i3xEtm8qogIT0wzYcGFfWLINzENjsOaPsd5+pm4n/fsRPhPV91Ll9/2GB08qm4lOa3CBo/027DtgOQnQzwj5wHbWp4mpe8QNsz93isxEYhjEDbQkPVZ+AQCNISBAkwwsCXxbd3ixtnyVHDroeyy587RLG40FTo38kSeYY/31xMDWoUNEV5M/Cnpn0wxJ1w0jgO19zRcm4dls+NUbxsvQyjSwf/wertWzblz5bVO5RaEDbxX4j0w814IGzd26E3syFPL9mCPZ6V31ZuwwWWNeOce7fcCZWWfdXofOQ/2H453vPPi3Zfv2QmnPw55r72nhxQeTy/hJa1ZBOCRF57ym+PnaWZiKVR53PydHT3zqA25GKIUFjs5zSso9RiP6z1ahY0J0y6sgMJpYz9G7LzYNWxPvyFsoPzzxIae4xA2PHQO9BgV9+JlBQOeGYjNXqJb2EjI/UF15WnGvGhJH69N3IjrQ7bKU7At6gXVDOgVNsT7GWphQ8Trbc//7oqOBXe2vF2r5RyPiuF/iLVsb334pSNtvPSrmjDq65sC/gxanhv3eK4fzWibHzftJV6RhDvJWp9/5dodUhhffrvUaxg80oE3TyMKeAQCTxthgUS+sT+MrbuOkL/vEPsE4pEb/j4XC7KcFvnmb9z+xLlq3U5p2W+x6pTae9k3CPtm2rjtgN+24dEpvNS4tymDatOB61CmCAYgbKAB63eBK+DBHgWJFgbyyxJ0Cxs7T34Ibr2VXY2N1Jo0VJO40ZL2Nlks6ABpYTuS7mGHnL0Gj1bcPpn6Swdj9HufE/tr8LSJOdUsAPBQbU/X8XH2qeHJRnJhg52WsqNNrZt8lRVPIzY8pUN+nJ1yCmEj3Mu7ytPF3xev2uxI212dB3q0q+t9+I16GwyAATAABqKVAQgb3joHOIfGEhgIOAONjU30Y8zzusSNZUeeoOq68oCnLZoKeltlmiZhg/1t2PO+h22j/N3v99wbjo6x6LyLPQse4l149pX3PV4nrle7b/foU45wRfhiLxc2+F9D7rhr3dj5nkiTHmGD58CLcORij0hzOPfsk0Sk7f9ueMijXcOZRsSNzhMYAANgAAyEkgEIG1HeeA0lTIgLhZdaBg6mT9clbCw53Juyig6gMe+j/Goq2qRZ3GgqdV7BQW3e4rrIKAeMLGyIDnsg9nqEDR6SLtLga4h7qLlPTs12pI3T6G3efqjThvgiowxAPiGfwAAYiDYGIGz46BhEW4bjeVCIGYGBjMI9uoWNI5nfQthQUX41Z0/XJG60Jj1H1poC2FiFjY3wTvmbBl4V5GhMimPj1QFEJ14+YoNXFsnJK/a48dx2cd9/7uzi8ToOg5dj9ZRO+YiNOx8ZQN0GjtS8/fayC6sXcLr0CBu9B492PBsvqXrf44P82ngqi6fn5eO8Sklqeq7fW01NI/HSrcLuvGcfG97iwjnU/WAADIABMBDtDEDYiNJGa7SDi+eL7MK5sraUlh7pq0vc2BD3ChryKsuvlrS3NIkbLalvkLW+BnZWaedILpdY5BAdZbmw4euZguE8dOnqrbqYk68ooEfYuPWhfg6bCNv4s39j/FSvz/HuJ9M1hX/wWJIU7l+u7uC4f/1WjLDyxSrOR3a7AfmH/AMDYMAXAxA2TNBg9QUBzqOgCAcD7ACUp5To2Yor8C+l2rxrTRioTdzIgKNWtTaO5OuMJGywjwwWJ7RucvFBq7DBqybIBRJ5mGq/s3DhjQm9wgaPIBFpmfndCq9xeUsHzqENAAbAABgAA9HAAIQNCBtoDIGBsDCQmLdal6jBgkhy/rqwpD0SC39rfbUmYYOdiTaf/gJ2jvJywkjChuisB2KvVdjIyil0iAYX3/CgtGTj2cJy8rWNnTDDcd/7n33t9b3h6T99hrzmtPHSreK5eUSG63n+nXIqVwr3hTc+dlzLU3kisVxCmtGZAgNgAAyAgUAxAGEjyhurgQIF4aDQCTQDRRXpuoWN3SkT0Zj3owyzlcdrFjfsud/B1n7YOtDvS7DDM5Kw8cU3S4h9gGjdLvrP3Y4Ov1ZhY9b3Kx1hsKNVtfbXu5LKybQcR7w33d/Ha7w8SkOIINfe08PrtWrTj+tQ14MBMAAGwECkMgBhI4obqpEKJdJtngJ1Q/yrusSNFccGUu15+IDw552xn12tXdw4sxKdpyitM4wkbLw0ZiLNW7pe8xaI5V4f6fu8QzSYMXe5au7HTZzpuG/aN4tV3yfeYX+EjT0HYx1xscCRnVvkd3wiXuzNU+8ir5HXYAAMRCsDEDaitJEarcDiuaKrMD6WNVeXsMHTUbJLjqIx72c5Zs9fqFncaCo9CHv7ae9IKLeMJGyIUQiB2GsZscGrt8hXVmGxQW0evvXhlw6xYfbCNarvE+H7I2zwyihyEWfJD1v8jk/Ei3101a3IT+QnGAADZmQAwkYUNlDNCDKeOTILcBYl9DgP5XuPZ32PxryGcsye971mccNakw+ba7C5kcupcAsbo9/7nP51cyfHJp9O8tdrOjiOy68R3+Wd+39c/6DTtewE1F+781QYIao82u8Fv+4fNXay414tq7v4I2zwc3V/+hVHfCPGTPArrf7aBddHZj2LfEO+gQEwYBYGIGxEWePULODiOaOjkK6rr6WVx57RJW5sSngdjXmN5Zg9d7YmcaM1vh9srtHmRi27lIQNFgV45Y7q6gaP+R2o5V5d7cLOMIW4wNNSXM/Lf/d45lXHtTv2Hvd6rfw+pe88CoIFExG3v8uoyh16+nsvp8dfYYNtI9J63b093Z6dn6ey6rzbcaVnx7HoqFeRj8hHMAAGzMoAhI0oa5yaFWQ8d+QW4ntTJ+kSNnjURmnVhVUCwIH/HDTnzNImbiQNRWcpiuoPV2GjttZCA198R+o0b9vjebqXVmGD/UF8PW+Vx+3uzk87OuxDR433eB2HcXvH/o5reeSHp3DV+KB49d1JjrBufqAP+Tvi46kX3nbcf/h4st/viC9ho7bOQgePJVFcYroUdnFpFf3+8vaOOF2FneVrttGltz5CPArFm0CFstP/shM2g83AABgAA8ZiAMJGFDVM8XIZ6+VCfqjLj5SCzbqFDQ4D9lZnbyU7NWd/pUncaEl7G3aPkjpELmx07D2M5M4z35s402M+axU2WCwRIw1Ctfcm0PB7sWrdTkea2McGO+dUel+8Hevy5AhHGKc1OPN0FTZKyqpp47YDxE5JH+4znP545T1S+JOmz3ekrdvAkY44nxw2xnGc08mDLRyQAAAgAElEQVQjboR9Wdzwlnac016GRqztGurJVpVFTaX7yV6wnJpPT6WWtLeoJXU0tZ58iVqTh1Fr4iBqTRhAbXG9qS22q6a6gpcNxwYbhIMBewHKvYgtnzS0ryBsaDCamQDBs5qwoRPid6KsOl+3sLEv7XM02HXmGzdotTQ6eMQHyonILyfkwoboCPP+L1d3oDUb93jM42gRNk7Ep9Hfrr3fIQKwkOAv1/X1TfTvOzpLYfAoCh5doTaMqup6SkjOJPkysyyu/ObSOx1pkueLXNjYsO2A4xq+h8MR8T7Ua6jj3PG4VMdxcR77yH931eWhnaw1BdRUspt4CmJL2hhqTRioqczXUk/gHoga4WIAwoZZyrgLzwlhQ2dnQF2FYi6oYBPkt78MbEl8W5e48cPxIVTf4NkPgL/pMev1zVmTNDV00XCI/Hd+5dodjg6w6EDfdH8fSkzJ8toZ1ipslJbV0L5DcW4bj04Q4gCng6fDKF0nP/ZA92cdaf9q9jKP13OcSu92cmq2k1+N+x4fRHXnrYrXKt0vjrEAJGx3R6cnvd6fk1dMz7/+EXXqO9zpecX9nvZ/v+4B4lEhW3cfcQr/wR6/2KDbUyOlKTTyVVMuvuFB0rJCjHg27CPvHbdVniJ2Es0j66TRFhg1oal+C1eHHPEGRgxC+yTyyi499Q2EDQgbTo0jPTDhXnMVHoHM79jsJbqEDfazkVfq/7DxQD5DtITVnDlBU+MPjYfIfv9ZxJB3pp8Y+gadK6/1WT9oFTaU3pcDRxLo2nt6ONLBIygKzpb5TIMe56EJJ7OchAWO81Sm/6v+ZJ4+Q/d0ecaR9jc/mOY13ezQU+4bQ2578Z3P39V5II18+1Oav2w9JaWc9ihO7D4Q44ib72dfIfJpKM+9Ot5repTyA8ci75221pWS/cxKak0aqqkcR2c6MJ1p2NE4dkTbJPLKMT11D4QNCBto7ICBsDOQX5agW9iIyV4U9ufQUxgb6d6WjA81NYrRgIjcBoRwevm7y9sRT3NQ6zRTr7DBPiRmfr+SeJSE6NDznpd7VbtcqlZhg0d98EgGES8vFcuOOX29i1NmLSL2Q/L4gJep9+DRxCMk5CIFTwdJTfft0Pj+7kOkuHm6Ca9owmGNnTCDFq7YRDxtxF9nn4NeGut4FvFMYs9TjXw9F85H7vvbVHaYWk69S20xfvjAiO0hCSA8ooOnItrzF1FT0RaylceSrTKVbNVZ0vQVa10xWc9XkqXhPFkabeAIbUYwAAYMywCEDcBpWDjRyIrcRpa/edfY2EQ/xjyvS9zg6Sz+xovrPTPWkj4O4oaJ6oe9B+Ok6Riuq2r4ekf0ChtZOYX012s6OHXIr7mrGx2LVd8R1yJssD+M9o895Yj3nzd2lMQEX8/L5zfvOOS4TwgH8v20bxarKov4Gdm3B/vXUBOvr2t4+kyvwaPd0tb96VcCEr6v+HHec3kaLNvYqjKoJfUNFWV1V2o9OYKas6dTU/E2slaz8GYHFyYq44PFIMIN/XsPm3u2OYQNFGqo2MCAIRg4mD5dl7CBZV89F/RaK8GWU++oaDC7DznFyI3A54XWPPTnPjXTPlzD0ytscHjCYSaP2pizaA2VV9T5VSZpETY43rOF5XTnIwOk5VDlDjddn9H1NzsFvezWR50ce/7hiruIl6hdvXG3X2l3DVvv75qaRnpt3BSHzxB+Pl4SVm+4uN9Y7zSPoGjO/Mx7+RzbnZozP5VGYFjggwrvANq6YMAEDEDYMEEmo0FirAYJ8kM5PzIK9+gWNk4WbETFFeAyjVc90TJfmIc1g3Vl1qPJLmcKz9HiVZulzdvqKd6emae9sP8Ib9d4O8fiikiDv+IMT4VJy8jTFDenm31lFBZVaHI26u2Z9J7j0Ru+HL/qjQP3h+f9bireTm3xfT2Wy7xEq/3MD2Str9bENfI1PPkKu8PuYEA/AxA2AtwJAJT6oYQNzWnDytpSWnqkry5xY3fKRDTkglCmNZUd8tiI9iZ62HO/Q34EIT9QRpqzjES+mzzf6+uoJX28x7K4JfU1spXHocxFmQsGwIBpGYCwAfhNCz8aicZrJO48+aEuYWP50QFUXVcJpoNQrllri6k14UmPjWpPAkdzztfIjyDkB8ov45VfyBPkSbAYYF8arYmDFMvflpRXL0w3QTmDugYMgAGTMwBhw+QABKsSRrho4GlhIDFvtS5hg/1sZBbtR8UWxHLN57zuGHefG82nv0SeBDFPtLxruAdlNBiIBAbs0rSStthu7qJGbHeyF6yAE1CUrahfwQAY+JkBCBt4GfAygAHDMFBUkaFb2DiUMcswzxOtHYemwvXujWwFQUM+iqM5azLyBWUNGAADYEAtA41Was74RLGsbT35srQUa7TWMXiuSBDdkEZwajwGIGyorWBwHRojYCAkDGxJfEuXuPFjzAv4BysErNrOHae2mK6KjW65oCH/3nJqLFmrtTuJRCPCeI0I5AnyBAwEngFrfQ21pI5WLF+l6X2N1pDUx8jbwOctbAqbgoHgMQBhIwQdAAAcPIBh2+izbXzOcl3CBk9HKShLRKMvBGWbtSafWKyQixe+vrcmDKCm4p3InxDkD8rH6CsfkafRn6fW2kJqTXrOvVyN601NpQdQdqLsBANgAAx4YADChgfDoPEQ/Y0H5LEx87iw4pRuYSM2ezEK/VCVbY02as6e4d4I9zE1xZ47myyNNuRTqPIJ8YA1MGB4BmyVp6g1/gm38rQ1+QWy1pwxfPrRrjJmuwr5gnwxCwMQNlDRo6IEA4ZjYHPCGF3iBk9nMUshbpTntJ/5wa0x7mv0Rkva28Te/o3yDEgHGn9gAAyEiwFb2RFqi+3pVo62pI0hS8N5lJNoq4EBMAAGfDAAYcOHgcJVwSFeNK7MzEBczjJdwgZPRymtykEFEOLyjRvmvPSgL0FDfp7/nWwq2oa8CnFembl8wbOjfjUaA/aCZYrlZnPW5xjZhrIR9SMYAAMqGYCwodJQRqsEkR40zKKZgcLyNN3Cxsn89agIwlG+NdSTPW+eYiNdLmi4fpcc4jU0Is/CkWeIE9yBgfAwwCufZE5ULC/tefPDkyawALuDATAQoQxA2IjQjIvmTi2eDaINM7Ap4Q1d4sbulAmomMJYvtnK46kl7S3FBrurqCF+t6S9SbbKNORbGPMN5S/KXzAQGgas9dXUkjLKvYyM7UZNJbtRDqIcBANgAAz4yQCEDT8Nhgo/NBU+7Aw7x2Yv0SVsLD/6JFXXlaNSCHMZZy9YTm2xPdwb756ci8b1oaaizci3MOcbymCUwWAgeAzYKk5Sa8JAt3KRp+bZKlNR/qH8AwNgAAxoYADChgajobIPXmUP28K2goGz5am6hA32s5FZtA8VgwHKOB6F0ZL+gVsjXozUUNo3Z04gW0Uy8s8A+SfeSexRPoMBvQzYyV6wlNpiurqVh61JQ8laW4wyD2UeGAADYEAjAxA2NBoOlbveyh33gyHfDGxKeF2XuHEofQYqBwOVcfaza6k1vr9bg15J2BDHmnNmkbWmAPlooHxE2eW77IKNYCNXBqzny4mn24myTb7naXuWhjqUcyjnwAAYAAM6GICwocN4rpUWfqMhAwYCy0Bs9mJdwsaPMc9TY2MTKgkDlXPW6lxqzvxMsXEvb+jLv/PwbHvBErLW1yAvDZSXKO8CW97BntFrT9u548TlmLxcE9+bT39BFtRTKNtRtoMBMKCbAQgbgEg3RGiMRW9jLNx5e6b8pC5hg6ej5JfFg3EDlnO8xGtr4hDFhr5o8LvuW5OHU1PhRuSnAfMz3GUF4kc9ZEQGrHVl1Jw1Wbmci+tNTcXbUZ6hPAMDYAAMBIgBCBsBMqQRK1SkCQ29aGBgY/xrusSNmOxFqDAMWs7x0Gx2Ltqa9Kxyw9+Dg9GWtDHUVHoQ+WrQfI2GcgfPgPpTFwONVrKfWUVtcb0UyzZeDcVaB38aumyM8g91IBgAAy4MQNhwMQgKWTRmwICxGGBhgkdeaN02J7yJgt/g5Zy1vpbsZ9dQa/ILip0A15Eb4jccjBrrXUXZifwAA83ES123Jj2nXJbFdpOm1WHqCd4VvCtgAAwEngEIGwZv8AP6wEMPm0aWTc+cS9YsaggxpKQyG+JGJJR1jY3UVLiBWlJGKncKPIzgaD49hZrKDpHFAn8qKN8iq3xDfkVJfjVaqKlkN7Wkvuax7GpJHU3WatRFYD5KmI+ENgXSaLq2L4QNQG866FGpRl6luiF+lC5xIzl/HTiPsLKuqXgbtaS+7rGTIEZtyPetycPInvc92SpTkN8Rlt8olyOvXEaeNZO15gzZ8+Z5Xe2pNeFJ4vLMYrGjXEK5BAbAABgIIgMQNoJoXFT6aKiBgcAwcOL0Ql3Cxq6UT1CRRGhZ11Syh1pOveOXwMFiBy+ryNNbrLWFyPsIzXuUn4EpP2HHQNrRTrbKU2TPX6Bi6lxXas6eSTzVDnkQyDwIT1iNjRCmwHF42IPd1dsdwgYafKhwwYDhGSg4l6RL2Fh25Amqqjtn+OdE5eW58moqPUQt6eP9FjjaYrtRc+ZEaZi4paEeDKC8AwNgwD8GGq1kOxdDzTkzqTXhKd9lUGxPas6eTtbas/7Fg3zxaK/O/UdQh26DKeFklsdr1NafNTWNdN/jg6St7rzVZ3grftxOV7V/nPo++7rPa9WmIRTX8XM+3Gc4LVjheyWxx554kdo/9hSlpudG1DOGwo6Iw3O7zIi2gbCBigSFGBiICAY2xL2qS9zIKNwbEc9pxIrCSGmyVaaRPX8xtaS86ruD4eKTozVxEDXnfE1NJXulIeRGei6kJbIaT8iv6M0vXqKVffbwtLaWtLeoLa6nqrKGp5xw2WStr0ZdE+B21T9v7Ei/vuQOSsvI023byqrzUlgcXm2txWd4eQWl9PvL29NF/76bSsrU5e2ajXvo/u5D/Nq6PTXSZ1r8KXeW/LBFes57ujzjM9xr7u4uXZueWeDzWn/SgGujt5w0at5C2Ahw4WvUjEa6ULhEOgMnTs/XJWwcTJ+OCjvKyjtbxUmy5y2g1pMvq+p4yP1x8PfW5OepOetzsp9dKw0vj/R3BOlHOQ8G/GSgoZ5sFUlkP/MDNWd8Qq0JA/wrS2Ifl8SPpqJNZGn03UlG/vySP5t3HKLVG3b53Jav2eYQIhav2uzzeg6Tw/Zka2/CxsZtB2je0vVu2y0P9pXS8Oq7k9zO8fXb9hx1im/2wjWONLOAomb7+3UPSOFwWL62Y7G+/Uh16jtcinfOojVUWFRBew/Gedz+fNV90rUbth1QvGbfoTin5/NkWxz/hW/YIjy2gLARZQ19vEjheZFg9+DbPb8sQZewsSZmODU0+h52irwMfl4Gw8ZS5yTve2o9+aJ/HRPZqI7W+H7UcupdsucvIlt5LGHqSmSyEAy+EGaEstBoIWtdKdmqMqXpJE3FOyXfOzxV5IIg2tX/8iKuJ7VkfERNxTvIWl+DDp/GdrQYJaCm0+/vNRy2p3fWm7DxYM/nVIkQrunpNXi0U3wVlefpdG6RJLDwtfd2HST95mNiY/FFfi4uMV113DzFxNPz8fGTaTlSWH+9pgNxWng6jWua/fnNI1a8xYdzEVo+anx3jZzfEDaiMFONDBzShsJPDwPr417RJW7klcaicjZBmWcrjyd77hxqTR7uf6dFJnRITkhTRlJzxsfSnHl7/kJqKlwnTWVh4cNWlUHW2iKywDkg3isTvFd6ym6/7m20kaWhjqzny6X3y1qdS7aqdLJVJF8QJ8oOST5zmoq2SO+j/cxKyZknixX8rvJqSq1JQ6ktrq/u91+M8mqN70/Np6dSU9lhjMwIEOvjJs6kEWMm+Nwe6jVU6pRfd29Pn9eK8DhsT8x5EzZ4+sbnMxdK24Rpcx3fxTGx7z/sTRo1drLjPI8SUYovJv6UlHZ+BtfzrufKK+qo33Nv0B+uuEua9sLfXTf2hcGCBO9dw5P/HvPhF9J1bA8+ziM8hG1c908MfUO69pJbOnm85uW3JnqNTx43vqOdH04GIGwEqIAOZyYibhQiZmHgeNY8XcLG0cy5qJxNVuax0z973nfUkv4+sY8N0VEJ9J7n1/PUltbEwUGLI9BpRnhdkFcuQh6Y6EJtcb0kcaQ55xviER4srGCp1vC1s978YJrU8X7/s681198HjybSR1NmS9u4T2dJ4bFAMH7SN9KxhORMp7Cnz1lG/7rpYcrIcvc5UV/fRNfc1Y1+c+mddOBIgtN9rm0xV/FCft7TOXbi+dvL2lF1dYNb2Ou37pfSPnrsZLdzImz2G8Jp5+dTM2Vl3ZZ90rUs1ogwsA8f77C9PttD2DBZIx8vjL4XBvYLr/3yy+J1CRtrY1+kBv43EO+9aW3Ay79KjgELllFz5qcqlmxE5xedXTAQtQzE9aCW1NcuOBXmqSXVORAxwlA/cme8uLRKcRPTQxau2KR4XtznbYWTKbMWOcQM7vC7bktXb3WqE4WPjJfGuI9UENM6buv4BPlaAtaTeMFtEE/nho4aL6XveFyqU5r4no+nzJHOzV+23u2caNd88c0S6Rp2diqOedtP/fqCbcZOmKHqem9h4Vx428iwfzNB2AhDAQ7w8OKDAe0MrI97WZe4kVNyDJU3yj1nBtiBYGUqsQPA5uyZ0r+1bXG98W8+/s0HA2ZgIK4vtaS9Tfbc76ipZB+WaQ1D/cAOLl3FBn9/e3MYeiI+jWbMXS5toiPP4bMIwMddlzllkYT9dLA4kJtf4lRf8LKzfK+aZVSFePGfO7vQOx9/5bQNG/WBFI7rNJVp3yyWjrOQ49pW5CVnOe74pAy3c3wtP8efrrpXuuai/7gLG8+9Op7YUah8Y/8ZHCZPgZEfF98zT59RjMs1bfitvV0L2wXOdhA2wlCAA+DAAQxbms+Wx7K+1yVsHM7QPpwVvJmMt4aGC/P8a85I/jRsFYlkKztyYX5/4Uayn1klrcrCS8jy/Hue39+a9Cw6w2boDOMZo5tzyZHwO9KSr02lB4hHeqH8D175L4SNq9o/Tt0GjvRrY98Q3DH3JmzI886bjw35dbzaCYf7xvipjrznqSd8jNPpbYSICEcIG3yPp81V2OAVUfhaFkJEOGJ/Zbuu9Mcr76Hz9e4jTxsamkiMbuH7lYSNgS++I4X97zs60/X39fS68f0cjtJ0HJEe7IP3TsC22mwLYQPChlvBiZdJ28sEu4XGbnllcbqEjTUnhtH5Bve5q8i/0OQf7Aw7gwEw4JUByXnoebKer7jgPLQm72dhUe48dA81FW392XnoqqA7D+WpOOw/x543j6zV2Wg3BbjtLISNV975zG/b9h48WuqA6xU2vp63SgrHkwDh6/jRGPclWIWwcetD/Yh9Wci3r2Yvk+JzFTbOFJ6Tjvd45lUnW/CSrZwGHjGi9P6IKSjsX4P9f3gTNlyXp1UKj1dygbCBslqJDSMfg7AR4MLZyJmNtKGAihYG1seN1CVunC72vMZ9tNgIz4H3HQyAAdMzoLjc62pqzp5BLSmjqC22u6aRJ7ystL1gBVnrihU7maa3u59tayMIG98vWUf/d8NDmjcWMVzzXQgbruIFX+ft3KW3PkKX3/aYkw+PjdsOSEKDkvgjpqCwoLFl52H63eXtFIWNp0e8K4UBYQN1gyur0fIbwoafhW+0ZDyeA4VaJDNw4vRCXcLGwfTpbg2QSLYH0o73GQyAATCggYFGG1mrT1NT8XbJgSgvFdsW19MvsYOdjzYVbsIysDra00LYuPiGB+nmB/r4tf3l6g5SZ13riI2q6nrKzi1SbBOwc1BeUSUnT5uA5U288HZOjELZtf+EI13sH4NHUPAUGdd3fcDzb0vneJUXPudL2Ljs1kclHyLsR8TTxv5FMGJDQ5mi4z1wzVf89t/+EDYAoFsBiRfJ/xcJNgutzc6Wp+gSNn44Pphq62vBPso/MAAGwAAYcGHATtaaPGoq2SU5E25NGKBK6ODr7AXLyVJf5xJeaOvHSGyPCGHjXzd3ors6D/Rr+/t1D2gWNtiRKI+M8LTKiBgl0bn/CE156k288Hbuh/U7pWcaNvpDKd6KyvPEAg5PLykqqXRLy8QvviNOI/vZ4Pz3JWzc+cgAeqTv8163v15zQTCCjw28v5FUpkDYQIXuVkBGEsBIq3kL3C2Jb+sSNzKL9oF9lH9gAAyAATDggwE72SpTyJ47V/Kz4XPp27jeZM+dQ9a6cz7CNW/97dp2E8KG0jQL12tdf4vRDWpHbByLTZFEAx6NwBuPTODpG67h8u9uT42Urvlx017F80r3yI8J8eLae3rQ9DnLnLa3P/pKCltpmgo7JuXpKH+79n7iESULlm+Qrh300ljFdKRnFtDZwnLHOV/CBqai4N2TcxpN3yFsoEJ3FITRBDaeJfoL7cS81bqEjf2npoF9lH9gAAyAATDgFwO26iyy5y8i9rPhVeSI7U72/IVkaWz0K3wztl+CLWywY8+xE2bQjR16SwKBEDVGvv2pYxpK/2Fv0jV3dXPa2GcFX8uroLiec/09euxkt3wWwoaIT2mvJGwwA5xevn7JD1vosSdelL7Lp6Z44wTCRvS3gb3lv5nPQdhAhe5WEJv5hcCzR05lUFqVp0vYWHlsIFXXVYB/lIFgAAyAATCgiQFrzRmy586mtrheHkWO1sQhZCs7qil8s7RJhLDBPjZuebCvX5uYMuFtxMYdnZ50CBr/ubOL43ttrcWRLw90f9ZxXEmA8HWMHXO65pcQNm7o0EvyjcH+McT20ZTZUnyehI1TmfnS6ibtHn1K2rMo4xq+p9++hA1eMpbt5m377WXtpPRhKkrktIs98WCm4xA2UJmrLijN9GLgWSOjIN918mNd4kb62V3gH2UgGAADYAAM6GLAWl8rrZLizR9HS/o4stZqc0IZ7W0SIWzw9Iv7uw/xa2MxhEUHb8IGO9V88c1PaO/BOGJ/FUKkkAsbpWU1xEuq8rZo5SbpGh4pIY7J92M+/EI6P2n6fMf5c+XufruEsKEkXng7J/Kb/WaItE6ZtUg1o76EjYf7DKcnh7/ldeMVYjhuCBuR0R4WzJh9D2EDlbnqgtLsLwue33iFe+qZrbqEjb2p7kNHkc/Gy2fkCfIEDICBiGCgoV6aptIW20N5BEdcb2oq3ol2l0vbWwgbofCxUVmlLGwIvmpqGun6+3oSj2rgURPiuNizg86r2z8ujaLIzS9xOy+u47038cLbORHGd4vXSuICj56Q+9AQ5z3tfQkb8LGB8tQTO5F+HMKGS+Ea6RmK9KOwMhMDVXXnaMXRpzSLG8uP9qfK2lKvDRMz2RPPivIDDIABMKCfAWtdMTVnTlQWN2K6UHPmp2RpqEfd83Mb3EjChpgi0mvwaMlxp+v7IFYs6dh7mM/88yZeiHO3dXyCZsxdLo2e2LH3uCNMHk3S/rGnHCM2Fq7Y5DjnmibX3xA29L/DrjbF78iwKYQNCBuqC0q81JHxUpstn9gJ6JLDvTVvaWe24R1AOQgGwAAYAAMBZ4BXU2k9+bKiwNGaNIRsVRkBjzMS2wBC2ODpD7c+1M+vTY2PDblNfI3Y4FEjPFqDp2H84/oH6bVxUyg5NVvKJ159hNPITkX3HIz1mXdCvOCpKLzSSXxSBi1YsZHeGD9Vmm4jppmIvXz1ldffnyqlQUy14bRk5xb5jJOf1Zew8fvL20urwfCKMJ424TgVU1HQ9pe/P0b/DmEDFbmqQtLoICN95i14s4oOaBY1WBDZnTIR7wDKQTAABsAAGAgOA41NZC9YSm2xj7sLHLHdyH7mB7JY7MGJO0LyVAgb/7rpYWJnmf5sf7/uAUkA8OZjQ95G9CVs8LVFJZU0ecYCaSUUITo82u8FSXDh3+xjQx6m63cWQng1ExZJ+PqL/nNBQBBhyfcslLz5wTRiUYP9f3BYG7YdkO7jKSg79x2nUWMnS7+7DniJGht9s+JL2GDfIYNffs/r9s8bO0pxQtgwb/valetI+A1hI0IK/UiACWlE4RcOBuobGmhNzHDN4sbSw32ovKbQayMlHM+FOPE+gQEwAAaihwFbZRrxKA2lJWJb0seTpaHBtPWQEDaM4GND/s7V1zfR6g276JJbOkmdfCFIfDP/B+Jz8mvl39/+6Cun6/k+HnHB01f4Gfn+uYt+lK5xdSx6PC6VhKjwydS5UhxV1fV08wN9pOs/njLHY7wiDb6EDfjYiJ5yReQ59hfyFMIGhA2fBSReFhSARmfgaOYczcIGj9pIKdiI9wBlIRgAA2AADASXgYbz1Jw1RVHcaD05gqx15vT5FEpho7i0yiE6yFdFcW3nKI3aYH8YYooGCw0rftyuOIJi94EYaTQEr5qycdsBOq0whUQ+TUXEvf9wPIkRKN2eGknsqFScOxqTQn+44i4p7SyKiONKewgbaLcrcWGGYxA2UIl7LRzN8BLgGSO/Asgri9MlbOw8+RHeA5SFYAAMgAEwEBIGmkr3U1t8XzeBozW+P9kqU0OShnC2fTZtP0jdBo50bCwY8KiGq9o/7jgmP+/tuxhNcXfnp53uXbt5r8OOOXnFxM43V2/cTS+88bEU15XtujqJErxc65adh2ncp7OIl0Nl3xNihMYtD/aV7mWbsZ+MJ4eNcQgcdz4ygNZt2eeIS61dXYWNrbuP0J+vuk+Ks1Pf4aS0fCw/A6eJhQu5Pw7XOOXCxqdffk/8rLz96ap7pfv/dXMnxzFxznUvRJTLb3tMurbnoFF+P6NruvA78tvbRs9DCBuoxFFQgYGoYGBj/Ghd4kZZtfuybkYvwJE+NBLAABgAA5HJgLW2mFqTn3cTN9piu1FTye6oqJc9sTl74RqHaCDEg0DveaUREX9WTqFbfG99+KXjPPut4CVe5WngkRPPvDSWWHBQ8msRm5BOnfuPcNzDoy1EfGr2rsKG8MfR45lXqbra87Qknp7C6RwycpzH+OTCBgs1LJjo3dSsAqPmuXFNZJZXkZJvEDbQqfVYMEYKxBi2dcAAACAASURBVEgnCklmIDZnqS5hIzl/Ld4FlIdgAAyAATAQOgYa6on9ayj53bDnfR+1TkVLy2oo5VRuULeSsmqnfBw3cSaxmDF+0jd04EiC0zQPbkPM/H4ldXlyBH34+be0fc8xqq2zON3vqa3JIyc4TE/nPR3n57+nyzP0/OsXRoyer7fRlFmLpNVTPN0jjn/xzRKqqWn0GOd9jw+iB7o/6/G8CAd7tJ+jjQEIG6jAUfCBgahgoKgiQ5ewsT35/aiwQ7RVUngeNLzAABiIbgbsZM+bpyhutKR/QJZGzx3Y6LYLuEf+ggEw4B8DEDbQqUVnDgxEDQPbkt7TJW6UVF5Yqx4ViX8VCewFe4EBMAAG9DHQVHqA2mJ7ugkcLSmvkvV8VdTU0+BEHyewH+wHBjwzAGEDnVpUlmAgahhIzl+nS9hIzP0hamyBis9zxQfbwDZgAAwYkQFbVQa1JjzpJm60Jj5Dtqos1E9or4EBMAAGvDAAYcOLcYxY6SFNaIyBAc8MlFefpSWH+2gWN7YmvYMKA2UiGAADYAAMhI0Ba10JtSYPdxM32mK7U1PR5rClC20Pz20P2Aa2AQPGYADCBipvVJJgIKoY2JP6qWZhY8nh3sS+OlBBGaOCQj4gH8AAGDAlA/V11JL2tru4EdOFmrMmk6VRnWNLU9oObTq0YcCAaRmAsAH4TQs/KvzobDCnn92pS9iIzV6MdwLlIhgAA2AADISXgUYbNed+qyhu8IgOW+Wp8KYPfMD+YAAMGIwBCBsGyxB0tqOzs418DV2+1pyvolXHB2kWN9bHjYzaJfbAYeg4hK1hazAABgLBgK3sKLXF9VYQOLqSPfc7rJqCdjw612AADPzMAIQNvAx4GcBA1DFwMH2GZmGDp6NklxyJOpsEooGNMNBRAwNgAAyEngFrzRlqTR6mIG50odbEIdRUsgeCPNpyaLeAAdMzAGEDL4HpXwI00kLfSAu2zVmYYIFC63bg1Jd4L1A2ggEwAAbAgHEYaKin5pyvFcWNtpgu1HJyJNnOxUDgALPGYRZ5gbwIMQMQNkJs8GB36BB+9HXSkaf+52ljo43Wxo7QLGysODqAKmtLUSGhfAQDYAAMgAFDMWCrSKTWxEEeBY7WxKfJnjuXeOlYtB/8bz/AZrAZGIhcBiBsoMJGxQcGopKBmOxFmoUNHumRUrAxKu2CCjtyK2zkHfIODIABiQEevZE9w6O4wSM4eGtNGkr2/EVkq0gmS6MNdRrae2AADEQ1AxA2AHhUA45GoHkbgSWVp3UJG9uTx+HdQPkIBsAAGAADhmWAR2W0pI72KXBIQkdcL2pJH0f2Mz+QrSoTU1bAtWG5RtvdvG13vXkPYQMFGwo2MBC1DOxNnaRL3CgsT4ta2+itPHA/Gh5gAAyAAWMw0FR2mFpOvUttMV3ViRw8oiO2B7UmPUctaW9T8+mp0siOpqItZCuPJVtl6v9v77zj46jOvf//+957k5ub5M1NSEIKkJueECC00AKEEjAYm15NB5tmwPRiiumYaghgjAuu2MaWjbutLstqlmRZsmTLkizLkq1OS/mc9/OM7xlmR7OzM6Nd787O94/5zO7M7Jkzz/nOOc/z21PU5/u2qs+6t6vPetvUZ31d6tOBPvXp4Be0ifiMMAADGcsAwgZwZiycOEyZ4TCFuRy2tq0flrBRVP8u7wd1JAzAAAzAQCgY+Ky3XX25Y6YxBEUPR2G/f1gOdsgMO3y5Y1oo3qUw+75RzjvCBo01FQwMZDUDi0rHBhY3FpTcoAYGP8tq+0S5AeTZEU9hAAaylYHPu6qNSUT/UXWrv54c/zs/B0JAZggB2VYOCBvUuamscxE2CGoJ2mAgqxnY1Dg7sLAhk4jWt63PavuksoEhbRwYGIABGMgABgb61OcdRerLpnfUPzbfrv5Vcpb3ISsIHdgqiQwgbGRAfZDFcQ/CRhYXLs4ElQcM/F3t6W5R0/NGBRY31tY8i7BBPQkDMAADMJA9DAx+rmTYisyl8UX7OvXlzvlG746/1z2p/lE93piQ9J+VN6p/VlxjLC37z00Xqn9tHKH+VeJjDo8kBsPZ1mshys+DsEFsksrYBGGDhjp7GmrKkrKMw8D62pcCCxvT8y5Qnd2t2DaObVPZQJE2DhAMwAAMwAAMwAAMwIAXBhA2cNYJ2GAg6xloai8JLGzIcJSK7Quy3kZeGgyuwbGAARiAARiAARiAARjIRAYQNghqCdhgIBIMLC27J7C4sbT83kjYKBMbKfKE8wQDMAADMAADMAADMJCIAYQNgloCNhiIBANVOxYFFjak10bznspI2ClRo8F5HAsYgAEYgAEYgAEYgIFMYwBhg6CWYA0GIsHAvt5ONbvw8sDiRuHWtyNhp0xrpMgPjhMMwAAMwAAMwAAMwEAiBhA2CGoJ1mAgMgzk100JLGzMK75W9Q8MRMZWiRoPzuNgwAAMwAAMwAAMwAAMZAoDCBsEtQRqMBAZBnbu2RxY2JDhKHWtayJjq0xppMgHDhMMwAAMwAAMwAAMwEAiBhA2CGoJ1GAgUgx8UvlIYHFjdfXTkbJVogaE8zgZMAADMAADMAADMAADmcAAwgZBLYEaDESKgdqdKwILGx/knqc69jVHyl6Z0FCRBxwmGIABGIABGIABGIABNwYQNghqCdJgIFIMyDwZ80uuDyxulDfNjZS93BoQzuFgwAAMwAAMwAAMwAAMZAIDCBsEtQRpMBA5Bkoa3g8sbCwpGx85e2VCY0UecJpgAAZgAAZgAAZgAAbiMYCwQVBLkAYDkWNg196GwMKGTCK6o6MscjaL14hwHAcDBmAABmAABmAABmAg3QwgbBDUEqDBQCQZWF09KbC4kV/3RiRtlu4Gi/vjNMEADMAADMAADMAADDgxgLBBUEuABgORZKC+LTewsDGr4GLV1bMrknZzakg4hoMBAzAAAzAAAzAAAzCQTgYQNghqCc5gILIMLCq9LbC4UdY0O7J2S2ejxb1xmmAABmAABmAABmAABuwMIGwQ1BKcwUBkGShrmhNY2Fi48VY1OPhFZG1nb0z4joMBAzAAAzAAAzAAAzCQLgYQNghqCcxgILIMdHa3qhn5owOLG1taVkXWdulqtLgvDhMMwAAMwAAMwAAMwICdAYQNgloCMxiINAO5W14NLGx8UvlIpG1nb1D4jpMBAzAAAzAAAzAAAzCQDgYQNghqCcxgINIMtOypDixs7F/6tTzS9ktHw8U9cZhgAAZgAAZgAAZgAAasDCBsENQSlMFA5BlYU/1MYHFjw5bJkbeftVHhM04GDMAADMAADMAADMDAgWYAYYOglqAMBiLPQFN7SWBhY3reKNWxrznyNjzQjRf3w2GCARiAARiAARiAARjQDCBsENQSkMEADHz6d7Wi8tHA4sbGbTOwIe8RDMAADMAADMAADMAADKSJAYSNNBleK0vsURlhIDMY2Nq2PrCwsaDkBtU/MEBDRn0KAzAAAzAAAzAAAzAAA2lgAGEjDUYnkM2MQJZyoBzsDCwtvyewuFGzcxmNGPUpDMAADMAADMAADMAADKSBAYSNNBjdHkzxnQAbBjKDgZqdywMLG8sq7qcRoz6FARiAARiAARiAARiAgTQwgLCRBqMTxGZGEEs5UA52BgYGP1cLS8cGFjdkElJ7mnyHMxiAARiAARiAARiAARhILQMIGwgbBGIwAAMWBiq2LwgsbKyreQFbWmxJA57aBhz7Yl8YgAEYgAEYgAEY2M8AwgZOOIEYDMCAhYGevn1qXvG1gcWN9r2N2NNiTxpbHC4YgAEYgAEYgAEYgIFUM4CwgQNOEAYDMGBjQJZvnZY7ItBW3DAVe9rsmeqGjPRxlmAABmAABmAABmAg2gwgbOCAE4TBAAzYGOjsblOzCi4JJGzMLR6jevq7sanNpjgb0XY2KH/KHwZgAAZgAAZgIJUMIGzgfBOAwQAMODBQuPXtQMKG9PSo2vExNnWwaSobM9LGWYIBGIABGIABGICB6DKAsIHzTQAGAzDgwED73m1qWu55gcSNJWV3Y1MHm+JsRNfZoOwpexiAARiAARiAgVQygLCB800ABgMwEIeBDVsmBxI2pNfGtl352DWOXVPZqJE2ThMMwAAMwAAMwAAMRI8BhA0cb4IvGICBOAzs3FMVWNhYUz0Ju8axK85G9JwNypwyhwEYgAEYgAEYSCUDCBs43gRfMAADLgysrp4UWNxo66rDti62TWXjRto4TzAAAzAAAzAAAzAQHQYQNnC6CbxgAAZcGGhsLw4sbOTVvYFtXWyLsxEdZ4OypqxhAAZgAAZgAAZSyQDCBk43gRcMwEACBj6pfDiQuDE97wK1e28T9k1g31Q2cqSNEwUDMAADMAADMAAD2c8AwgYON0EXDMBAAga2tq4NJGzIJKKFW/+GfRPYF2cj+50NypgyhgEYgAEYgAEYSCUDCBs43ARdMAADHhiQJVxFqPC7zSy4WO3pbsHGHmycysaOtHGmYAAGYAAGYAAGYCB7GUDYwNkm4IIBGPDAQM3O5b5FDS2CFDe8j4092BhnI3udDcqWsoUBGIABGIABGEglAwgbONsEXDAAAx4ZyCmfEEjcmF14hdrbsxs7e7RzKhs90sapggEYgAEYgAEYgIHsYwBhA0ebYAsGYMAjA1tb1wUSNqTnRum2mdjZo51xNrLP2aBMKVMYgAEYgAEYgIFUMoCwgaNNsAUDMOCDgRWVjwYSN+YWj1HdfXuxtQ9bp7LxI22cKxiAARiAARiAARjIHgYQNnCyCbRgAAZ8MNDYXhRI2JBeG+VNc7G1D1vjbGSPs0FZUpYwAAMwAAMwAAOpZABhAyebQAsGYMAnA2uqJwUSNxaU3Kj6+vuwt097p7IRJG2cLBiAARiAARiAARgIPwMIGzjYBFkwAAM+GWjuqAwkbEivjcodC7G3T3vjbITf2aAMKUMYgAEYgAEYgIFUMoCwgYNNkAUDMBCAgQ21kwOJGwtLx6qBwc+weQCbp7IxJG2cLRiAARiAARiAARgILwMIGzjXBFgwAAMBGGjr2qo+yD0/kLhR3bwUmwewOc5GeJ0Nyo6ygwEYgAEYgAEYSCUDCBs41wRYMAADARko2PpWIGHj4013YvOANk9lg0jaOFwwAAMwAAMwAAMwEE4GEDZwrgmwYAAGAjLQsa9ZzSq4JJC4UduyArsHtDsORzgdDsqNcoMBGIABGIABGEgVAwgbONYEVzAAA8NgoKRhWiBhY2n5vdh9GHZPVaNIujhcMAADMAADMAADMBA+BhA2cKwJrmAABobBwN7ePWpu0TWBxI2trWux/TBsj9MRPqeDMqPMYAAGYAAGYAAGUsEAwgZONYEVDMDAMBkoa5obSNhYXvEgth+m7VPRMJImDhcMwAAMwAAMwAAMhIsBhA2cagIrGICBYTLQ29+nPtp4SyBxo2FXHvYfpv1xPMLleFBelBcMwAAMwAAMwECyGUDYwKEmqIIBGEgCA1U7Pg4kbKyoegz7J8H+yW4cSQ+HCwZgAAZgAAZgAAbCwwDCBg41QRUMwEBSGPhSfbzprkDiBr02wtNo4uBQVjAAAzAAAzAAAzCQeQwgbCQloMm8guVlo0xg4MAzUNuyMpCwsazifsQl6mIYgAEYgAEYgAEYgAEYCMgAwkZAwxE0HvigEZtj8zAwsKzigUDiRs3O5TRk1McwAAMwAAMwAAMwAAMwEIABhI0ARgtDcEUeEQFgID0MNLTlBhI2FpWOU/0DAzRk1MkwAAMwAAMwAAMwAAMw4JMBhA2fBiNYTE+wiN2xe5gYWLX5iUDiRnnTXBox6mQYgAEYgAEYgAEYgAEY8MkAwoZPg4UpuCKviAEwkB4GWvZUBxI25hZdrfb27KYho16GARiAARiAARiAARiAAR8MIGz4MBZBYnqCROyO3cPIQHHD1EDiRlH9ezRi1MswAAMwAAMwAAMwAAMw4IMBhA0fxgpjcEWeEQVgID0M9PR1q4823uJb3JieN0rt2ttAQ0bdDAMwAAMwAAMwAAMwAAMeGUDY8GgogsP0BIfYHbuHmYGgy79u2DKZRoy6GQZgAAZgAAZgAAZgAAY8MoCw4dFQYQ6uyDviAAykj4HVm5/y3WtjWu4ItaOjnIaM+hkGYAAGYAAGYAAGYAAGPDCAsOHBSASF6QsKsT22DzsDrZ216oO8832LG6s2P0kjRv0MAzAAAzAAAzAAAzAAAx4YQNjwYKSwB1bkH3EABtLLQEnDNN/ChvTaqG/bQENGHQ0DMAADMAADMAADMAADCRhA2EhgIALC9AaE2B/7ZwMDvf29amHpWN/iRk75BBox6mgYgAEYgAEYgAEYgAEYSMAAwkYCA2VDUMUzIA7AQPoZ2NKy2rewIb02qptzaMiop2EABmAABmAABmAABmDAhQGEDRfjEAymPxikDCiDbGJgTfUk3+LGwo23qr7+fhoy6moYgAEYgAEYgAEYgAEYiMMAwkYcw2RTMMWzIA7AQGYw0NZZp6bnXeBb3ChrmkMjRl0NAzAAAzAAAzAAAzAAA3EYQNiIYxgCwcwIBCkHyiHbGNi4bbpvYWNO0VWqq2cXDRn1NQzAAAzAAAzAAAzAAAw4MICw4WCUbAukeB7EARjIHAb6+vvUotLbfIsbRfXv0IhRX8MADMAADMAADMAADMCAAwMIGw5GIQjMnCCQsqAsspGButa1voWN6Xkj1a6uehoy6mwYgAEYgAEYgAEYgAEYsDGAsGEzSDYGUTwT4gAMZB4Da6uf9S1uyOSjlGXmlSVlQpnAAAzAAAzAAAzAQHoZQNhA2CBQggEYSAMDbV1b1Yz80b7FjZqdyymvNJQXzkp6nRXsj/1hAAZgAAZgAAbcGEDYwEEmSIIBGEgTA6XbZvoWNuYVX8dEomkqL7fGlHM4WzAAAzAAAzAAAzCQPgYQNnCQCWphAAbSxED/wIBavOkO3+JG7pZXKbM0lRkOS/ocFmyP7WEABmAABmAABuIxgLCBc0yABAMwkEYGGtuLfAsb03JHqPq2XMotjeUWr1HlOA4XDMAADMAADMAADBx4BhA2cIwJjmAABtLMQEnD+77FjcWbbleydCwN54FvOLE5NocBGIABGIABGICBzGIAYSPNAQ0vRGa9EJQH5ZEOBgYHv1A55ff5FjeKG6YibFCHwwAMwAAMwAAMwAAMRJ4BhA1egsi/BOkIZLknAoqdgZ17qtQHeef7Fjd2dJTzDlOPwwAMwAAMwAAMwAAMRJoBhA1egEi/APbgku8IDulkoKxprm9hY3nFg7zD1OMwAAMwAAMwAAMwAAORZgBhgxcg0i9AOoNY7o2I4sTAyqqJvsWN8qZ5vMfU5TAAAzAAAzAAAzAAA5FlAGED+CMLv1NQyTHEhnQzsGtvg/qw8DJf4sbMgovVrq4G3mXqcxiAARiAARiAARiAgUgygLAB+JEEP93BK/dHQHFjYHPzUl/Chiz/uqZ6Eu8y9TkMwAAMwAAMwAAMwEAkGUDYAPxIgu8WVHIO0SETGFhX84JvcaNm53LeZ+p0GIABGIABGIABGICByDGAsAH0kYM+E4JW8oB4koiBzu42Nb/kel/ixrzi61RXzy7eaep1GIABGIABGIABGICBSDGAsAHwkQI+UTDJeQSHTGKgrnWNL2FDhqTkbnmVd5p6HQZgAAZgAAZgAAZgIFIMIGwAfKSAz6SglbwgonhhIL/uDd/iRn1bLu81dTsMwAAMwAAMwAAMwEBkGEDYAPbIwO4liOQaxIZMY6Cnr1stLr3dl7ixqPQ21d3XxbtN/Q4DMAADMAADMAADMBAJBhA2AD0SoGdasEp+EFD8MNDYXuRL2JAhKetrX+Ldpn6HARiAARiAARiAARiIBAMIG4AeCdD9BJFci+iQiQyUNLzvW9yo3LGQ95s6HgZgAAZgAAZgAAZgIOsZQNgA8qyHPBODVPKEeOKXgcHBL1RO+X2+xI3peSNVc0cF7zj1PAzAAAzAAAzAAAzAQFYzgLAB4FkNuN/gkesRHDKZgbbOOjW78Apf4sbHZXep3v4e3nPqehiAARiAARiAARiAgaxlAGEDuLMW7kwOUMkbAkpQBmTFE5lDw8/GErDwFpS3A/271rZO1dzS4bldWpe3Sa1ev1E17WhXg4Nfev6d3+fa3dGtNhSWq7enLVAz5y1L2X2c8rVv34Bq3919QO/plA+OUY/AAAzAAAxkMgMIGwgbOEswAAMhY6Bi+3xfwoaIIJubl1DOISvnVDoPnV19amNZbeCtp+fTlPD06DNvqv/86dHqpvETVV19c8J7nHPZWPV/vn+4sc1ZuCLh9UFteu7l48z7HPSrk1VPb2qeX+dPxIw5i1aqS2+coL512HHqgqvviHm2zbWNCcuuYnNDzG902uwJTGAABmAABrKRAYQNHF0cHxiAgRAykF/3pi9xY2b+haplTw1lHcKyToXzkbMq3wzUtTDgZy+BdbLzNTDwhTrsqLPMfE2dtTjhPY4/+wrz+rW5pQmvD5rnvKJK8z5ipw8XfJK0e0lPk5q67Uaa90+crM6+5BZDzLCXx9IVeeY9jzj1opj82K+V74ceeaZ5fdDn5ncEPzAAAzAAA2FhAGEDJxfHBwZgIKQMrKx63Je4kVM+QfUPDFLeIS3vZDoWwxU2HnzqNTX57Vmet0U56xJyt3Rlnhmsf+fnJxjDL559dapy277/m1PM34x/+IW4177/4cdD7i/DV7Zs3eF5s4ooZ1x4o+ffyT3kXk7lN2v+cvXtnx1vPoOTQCG2GHnVHUYPDp0GwgaBhmaBPSzAAAzAwH4GEDZwcB2dLV4QKkkYCAcDC0vH+hI38uum8M5T76vS8i3q4uvvMbZ/++ERZmB90XV3m8f1eR1s/8fBRxrnzrviNvN6fS7RXn6TqE6R++l0brnnSdWxp8f8ro8H3R975mVD7n/yeWOSln6ifMm9nJ7/1b99OCQPX//JH9VpF1yvnnjhbZVbWKH6+78Y8lursCGix9VjHzQ2Gbqi80KPjXDU4U5ccIyygwEYgAH/DCBs4OAOcZh4kfy/SNgMm6WLgc7uVjUz/yJf4kbNzuR1o0/Xc3Pf5L1zMqeFDoZlOIjdtvrc//ufPxnnpPeBPuZ1n0jYkElDv/7jP5rpFm7cHDlh49SR1ynpSSPza9jLwP7dKmxUVm8zr5dJRnWZIGwk7x2x25/v2BYGYAAGMo8BhA2EDdMh4gXNvBeUMqFMvDDQ1F7iS9j4sPAy1da1lXef+t9gwK+wsaezV018/i11yJFnGkH0//3BH9Rjz04xjslxvd189xNmkC09CdxYfvGN6ea1R552kXFtX//nSoawxNueeWWq+Zvfnjgy7nXye6f5N6w9Ng4/ZbTRS0J6SiRrkzS1yOClx8Z9Eye72shqv18eN8JMu76x1fwdwgZthpUTPsMDDMBAlBhA2MCxNR2iKIHPs1LRZxsDlTsW+hI3llc8qAYHh/47n2124XkSv+t+hQ1t08tvus8Mrp1WMJk+N8c8/9RL78Rta0TA+PWfzjOvfenN6XGv1feWvSy7qoUDyYv1nJfPVmFj/serff8+0T0kTZ2/ZAob25razHRlGJHYT+cFYSMx79pW7LEVDMAADGQXAwgbCBumQ8TLnV0vN+UZvfLMq3vDl7hRVB8/2ISf6PBjFTbk338JnK2bDs71UBTNhogV+pzT5KB3P/KieV4mBtW/s+9lLgmdjuxlmVPrNbV1O5T0ZrBvfxl9g/k7mdjTfl6+T35rZkxa1nQzTdg4acQ1Spa7ddpkaI7O+5tT55rPLT1V9HHZW4WNg359Ssw563V8js77TVlT1jAAA1FhAGEDYQPHBwZgIIsYkJ4Y03JHeN62tCT/n+qoNKDZ8pxWYcMqMNg/24UNETP0NZMmvzekHjl91FfCg8yh4WSvis0NSibL1OnI3i5sLF9dGHPeem2iz0edfrHjfSUvTsLGwpx16vV35wxr0yKO3x4bbs8ieZI8ywor1mEoT7/8bszz9fR+qv794K8mgx034Wn17oyFxlZUWh1zrVN5cIwACAZgAAZgIKwMIGxkUUATVgjJNxUoDCSXgfklN3gWNmbkj1bbd5cS8ES4LQgqbEjvDh2My6oc9vf4u7840Tgvc3HYz8l3maj0hHOuMtPQaaVT2LD2AtH58bsfPWa88bzJFjbW55cp6/K28rmldahgZJ3bw5p36cHiVA4cS279iz2xJwzAAAykhwGEjQg7s7x06XnpsDt2PxAMfJB7vmdxY27R1aq1cwtBT0TbA6uwccXN96srb3kgZtPBsb3HhnD8nZ+fYAgTR//l0hh+ZM4N/TtZjtSJ+ZenzDCv0dfK3k3YOPuSW1RxaY3rJj0mdHpuPTaWrSpQH8xZamwy9EbymExhQ9LU6cu9nGxgXe519DV3qbmLVjluYs+bxk80n0smbNU9Q+zprlpfog761cnmtdoWCBu0PXZW+A4TMAAD2cQAwkZEHdlsgphnoVKGgaEMdPW0exY2ZOjKwtKxal/v0H9/se1Q22abTazChpflXq3Pf+K5VxsB9DcOOUZ1dw+awfsMy8Shjz83xTyuf7u1Yaf65qHHmcH31350lPnZTdjwMkmodTlaN2FD58W69zsU5ZpxDysRGbR4IEvWilhhTdPts1XYSCQ89PZ9ps688CbDbh8ucF+yuWNPjxKBQyZYlbKQrbQc8dKtLDiX/XUdZUwZw0B2M4CwgbDh2QGjMsjuyoDyzb7ybe6o8CVu5JS7L8kJI9nHiJTpcIQN65KucxauMNsT6X2gg32niUVl7gd9XoajWFdYkV4LVtasc2x875cnqWPPvMx1O+LUi8y0/Qob1vu6fW7cvktddeuDMaLGn8+/VsmcIW6/s5/zI2zIb0Ww2FTJUs12O/I9O+smypVyhQEY8MMAwgbChi8nzA9cXEtlBAPpZ2D77k2+xI1Vm5+gTohYuzAcYeOjpWtNEeHCa+822Nnd0W1OCCo9MVp3dQ1h3GvhJgAAIABJREFU6v0PPzZ+d/DvTlPSw0J6Pmihw03Y0Nd43Sdb2JBnu3/iZCU9VHQeZPURmaAzSH1nFTbOuuhmo7eHHLNvZVX7xQzpsSHDZfxsbkvtBskzv0l/vU4ZUAYwAAMwMJQBhI2IObC8BENfAmyCTbKdgcb2Yl/ixvralwIFadlux2x9PquwUVO33Vh5Q1bf0JsO4J3m2Ojr/1z96PenG0G+BPudXX3qnekfmUH/qGvudGRp1+59hjiwZsNG47xXYePnx56jrr/zMdftshsnmPdPprAhE3Xa564Yc9sjjsKNV1aswoa2s9Ner4rybz/8asUTp+ucjsmcKV7zw3W0hzAAAzAAA2FlAGEDYQOHBwZgIAIMbNtV4EvcKNz6N7iIABfivFiFDafAWB9zEjbk9zI3hL5m2uwl6owLbzS/y5wV8RwkLWrIea/CRqrn2IiXVzluXQVGbLZ6/X5Rxu03ic4hbBBAJGKE8zACAzAAA94YQNiIiOPKC+HthcBO2CmbGahv2+BL3KjasThuUJrNdorasw1X2JBeHlrYOP7sK9S/H7y/V4H05Ojv/8ITQ16FjT+dfaUx7EOGfsTbXnxjupmfZPbYsAobMvwkGZxYhY0Rl49T781c7Lhtrm007tfa1qlkWIruuXH6qBuUHLNvF19/j2kD3dsjGfklDdrIqDDQ0/NpUt7xqNiL56RuyAQGEDYQNqi4YQAGIsRAXetaX+JG0+7h/yudCY0deYjvdFmFjVvueVLdeu9TMZsWLeL12BDbysSZ+jq9T7TKh7VMvAobOm2v+3jCRuHGzep3J13ga/vlcSPMZxTxxu/v1xeUD6lrrcKGH3v99dJbjbzIiiwiLFltKUOI/uPgI43zsvLMns7emPPWa/kc/73ANuGxjay89N1fnKieeWXqsFnPK6pUhx55pvrWYccZgmEmcbByXbGS4X0i3rrlSwTlT9YUDqkb5DeyepXMbSSbdSUrnV5RabWaPjdnWEPsdFp+95Mmv6cefOo1JUMc/f6W68PzvqayrBA2IhTQpBIk0qZCgYHwMLClZaUvcaOzuxUnI4vbCquw4Xe5V/3eT5212Az6tehQvaXJMzcHWtiQYTA6nwdqn7Mqf4g9ggobsiSuzvfYCU/HpHv12AfNczIfiS4j9uGpoykrf2UlE/rK++C0tHQQW55y/hgjvbsfeTHw+yO9pkaPGe9re3PqXNf7SY8uec5EQ/JkAma5TgRQ+/Pv2zdgnJPz8tl+Xp5dhNtEy0PLULxrb3/E15ZoImM9X5OT4GLPJ9/9vSNRsRfCRhY7q1GBmOekcoMB/wzU7FzuWdyYnjdyiPODzf3bPFNtlgxhQxzkb//seNNhPvm8Mb6Y8SpsXHTd3caSp7LsabytqqbRzEe8HhthETakt8Wq9SXq+demKetqMb19n5mTtkoQsja31LD3vMWrzWeXwKWgpMpXOWQqo+Qre+obXZZde/uMXgGyalK8TSYZ1te77b0KG5JeyabahJsWav/rkGPVurxNCa+XNHe27InJq+41Je+h1+2m8RONNERUuOvh59WMuTkxaXoVNsRWuhfdslUFMWm4CRvSy0PyKj333Owt56ZMnef5ufTznzTiGjPd7/z8BPXfvzjB/C5pImxk33ueiKNkn0fYQNiIqVSSDRjpUUnBQOYysLl5qWdxY3bhldQVWdpeeBU2ZNWT5157X8lcEOPumxTDw9IVeUqGRWgHVgQFCb69vv9ehY1E/1TK/WT5WGs+nPLQ0/up2tbU5mvLLaww0/3eL0/y9Vu5l3XMvvwj2dzSoR57doqZ5lkX36wefeZNYyJVCUoOO+qsGJvah6osWLLG/K10nZcu5BIo6GeXFVucnp1jmVsnR6lsbr77CZNVzax9L4GuF5t4FTb0MtP2+yTju30YzJJPctXHyzeY29F/udR43ideeNs8Zj0vn/Wyzh8u+MS49pqxD8U8vx9hY2NZrdHz4sjTLlLWnnjxhA0Rig/749nGkB6nJbrt5SAi0aaKOmOTukZsKPWXPib1kRwTwVsfk2FyOh1pd6RN0d9lj7BB3WTlIchnhI0sdVSDwMBvqFBgIHoMVO1Y5FncWFp+b4wTAi/ZwYtd2JDxzZsqtyoJAsY//ILhnNodfxnuoMt/x87d6ge//fOQ6x548lXzGn1tvL1XYUMc4R8ffrrr9sPfnmrmJV6PjXj5cDuezMlDL7z2bjOPdtvG+24XNiSv193xqJnO1350lPn5Z0f/lbk18O88v39u3KfqnIgRhxx5ZtxNJsgVcc/L/f0KGyIAnnDOVUndPpiz1DWv8qzybkt9meiZkiFsyD3uf+IVQyjd3txu3jOesFFZvU1dcsO9Kshkw/c8+qLxbG+9P9+8j4jH8rz2Xhn62RE2ssN/0OWZKXuEDRo+sxLKFCjJB5UdDBxYBiq2L/AsbiwpG0+dkSXthqykIZNofv3HfzQDYhECvv6Tr77HC7K1sCH/BFqXd7X22pAhEhsKh06Y6fR+exU24uUn3vFMFTYeevp10+bx8i6TtcoqM+MmPK3enblINTQOneums6tP/c8x58SkJQGhHpriZGuOHdj6FXv7t7f09pL6Qw9pk94ML7z+QdztL6NvMN6Bsy+5xbzGPgRDykH32HCaeyKV5dTS2mnk7yd/+Iun9jOIsCFD1j5aujbhNvuj/b1BpN6Rz15+I2m72Qdhwz/jbvbkXHB7ImxkiYPKSxD8JcB22A4G/q7KmuZ4FjcWlg6dkAwbhus9mvD4yzHBcLzg2npcxozf/sCzas7CFUocdSlz6XpsveblKTOUzIOhj8lKItLFOREfXoWNw08epR555g3X7c6HnjPvn6nChvy7K/9kfv83p5h5leEn0tV8fX7ZkPH68ewncwEc9KuTzTTE7rIUrcwLEO83HA/XuxrF8pLljYXlq27d3zPsipvvj2Fc1y9u+xvv2j9fhdV+6RI2FuasM/I/8qo7PL2XQYSNI069yLeN3OxnPSdpW+1o/4ywQZ1iZyJd3xE2EDZcK6t0gcl9qSRh4MAzUNo4y7O4Ma/4OtU/MEj9EdI2RDvaVudVf5ZhJaePusEQMaRrsT5uX+5VViDQ52QvwYe8tzL2+qdHnGGeO3XkdTHzSzi9216FjWTNseGUh0THkjkURd8r6KooW7e1KJmTw2p/62fptXHHg8+qvfv6eUdD+o5qRrJ1LxPjyuo+Ts+3eNl6g+2HJ71unJdJcSc+/1bcTa9iIvWWvk7SsKftRdiQXmgiPMqyo/bfW79b58yxHnf6fOUtDxjPI/NNyPAap03mpNC/DSJsPP3yu8bcRzL/kdMmw0ykjvjV8eeZ9YZMEup0rf2YpK3zJnuZg0PqbL2J4Cxpy/AefUxEKTkmPQL1Mdnr3mQMRTnwPp61DLP1M8IGDV5MZZWtoPNcVKAw4I2BLS2rPIsbswsvV/t69/9zj3292TdT7LS7o1vpoQ4yT8NLb05Xy1cXOvYU0AGzVdiwz73xhz9fGBNEr1hbpCS41r8ddc2dqr//i7jtjTi8+lpZ/UP+sZXgQjYZJ67PieOsj8fbv/L2LPN6CSD0dSvXFce9v5dysa6kIr0ivPwm0TV+hY3auh2GYPHNQ48zn1FsIz0/JC0pB20r2ctkgLJ6gYx3T5QXzofrHQ57eYkIIXWEDIWwP4vUR8LvuzMWDjlnv1a++51jI9FQlIN/d5qSHmpuvc3OvXyc+s0J5ytZ9tQpT/qYDBezv6/Wd1R/Xl/w1bC9IMKGvp/TXibt/MVx5xqTc8oy3PqeUp9Ofmumss7B4fR7+zERVnUafvfvTP/IsBfCBvWNnatkfEfYQNhwrZCTARlpUHnBQLgY2NVV71ncmJE/WnXs+2qmc8o6XGXtpby046qFDVmSUB+TvYgHdfXNQ9qSp156J+a6G+56fMg1+v52YUOGtFjvkYzP0sNB38/LXv75lV4P0s1aNhlWo/Nx3FmX+0or3v28Chs5q/KVBFJWsUjnRf6JlflS5B6y2srYCU+b+dTXSA8aCWDi5YPj2ffeZnqZyqo+wrME/cWlNTFs6n/7E83toJ8xqLAhvbBkZSLpwabTkv3oMeONd0h6iliP688ywbJe3rpic4PjNfraN96ba6R1wdV3GD3XpKeHdRPxUexgXYkkWcKG9D6RulTyKiuOiJ2tk4deeuMEJQKD3F+Gwkl9ZF+2Vj+HdS/5FyFGb4efMtp4RhEt9DERfKT++dZhx5nH5JwexoiwQZ1jZSpZnxE2EDZcK+RkgUY6VGAwEC4G9vXuUbMKLvUscLR21lKXZGl7ooNjLWy8+Mb+f1Pl+G9PHKkat++KW/bWJR2ff21a3OsyUdiQCVL1s9v3MpFhMuo0r8KGXUyS/EiX8nhd+SVotE8qKjZORp5JI1x1eSaXlxY/ZVJNXY+IaPDdX5xoBMQShOv8d+3tMz/rY3ofVNhYujLPeMftPTjk/ZZ3TIZq6HtY9xKgy/lEy9FKjw+9SpN1qIlOSy+JeswZl8XcZ7jChthw2uwlSg8RkUmIZRlsua9V2JDPbe17jQlXf/2n/UNUZOiIDJ0pKKmKyZPOs30vzygrMkn7IPfV51kVhXpCs3Ag9wgbWeqIHkiIuBeVFwxkJwODg1+onPL7PIsb23eXmk4NTGQPEzqo18KGlK1MInrsmZfF/MvoVOYy/GTE5ePUbfc/48qGXdiQ5WbfnDo3qZusrOCUx3jH9Hh8/fyylyEf19/5mPmvY7zfej3uVdiQ+QgOPfJMJavOyMoP8iyDg1+6Po8EFtJLQ/IsE4zqXh1e88Z12fMOZ3JZ6olBZaJfES8+WVNoiAbW+XRkdSXpGfbaO7MdmfcqbPztg4+MtKX3hNhEeh781yHHGoF5++5uM+28okrjup8fe455zGrDJ1542ziv5xWynrN+1pNqSh1oPa4/60mcJf/6mOyDChvSc07mPpJeIFJfSW+YJ196J2Yoml3YsN5XhhDKnEi6zpOhKrPmL48RLKzXW/OqbarPJxI2RDzRk8Pq34hQJPeWnmf6GHvqIT8MIGwgbFB5wAAMwIArA/l1b3gWN+rb/AWPfhosrk2PgyMrbMiWW1hhciJdnN3+QbWWlTjScr31mP2z/Dsoq63Ipv9ZtF9zoL+Lc11eVW9uldXbXOcJCZI/saE8r2xu4/klbfl3t6qm0dWOTnkQUcTrv69Ov+dYet67qNhd3jMZ2iUB7XlX3KZuvfcp47N17g0Z1iDLv8pS1E4sexU2ROiT++jlqsXG51w21jhmnc9DlpsVwUOulfkk7GVx2gXXG+dEKLGf099l8lLJs6QhQzXsw23kOt2ryj7/TxBhQ0QUvdy2zA8iooHuBaPzJHsRHGTlKtnks/Wc/ixD30S4lrx/45BjlMzto89Z9/J7ET/kOrvolEjYsKajP+sVnhA2qHM0E373CBsENI6VlV+QuJ5KCAaym4GK7fM9ixs1O5dTr9C2wAAMwAAMeGJAJq+U4SgSIEtwLksh24Nu6Xkg56U3gqy8ZPU5vAobOo1xE542fz/5fycbFoHDmqbuuTBz3rKY4xJ0i8AieXESPSSNkk21xlAauUbPzSNiw30TJ5u9EfQwFOlVYX/WIMKGiJ4y7EUEjobG1pg8W59LenrJvBsyQWsiAUHmGHl35qK4aeneNr8/aZSSSVKt90kkbDS3dBiCuQg+knexs9hLem0k6o1mvQ+fs9v39Fu+CBs0OjEVkV+AuJ4KBQaiw8CWlpWexY2K7QuoW2hfYAAGYAAGPDEgPTGkd4AEt05DPCTYlWFYcl4mvbT6Hl6FDb3Ckuz172vqthtpilghvcv0cVnuVe4lw+70MdnL6lFyXHpbWI9bP+s5OmSIneRbenbIUD75ncxlIT3g9DAU6Tlh/a18DiJsyO/cVp7S95CeZ5IPmcdEHwuy31RRZwg8ko5Tj45EwkZ+cZWRD8mLdZNVuoLkh99Exxd1K2uEDRocKhAYgAEY8MxAU3uxmp53gSeBo6j+XfXpp+7zALg1UJzDUYEBGICBaDAgq4LoiTZlXhin1TnkX/7v/fIkIxBeZFnJxKuwIUGzBNHPvfZ+TJsnS6HKcRmCoXlb8kmucUwm3tTHZK/FEbdVnkQgkXtZJ9OUXhSyMpPcR3qlyGohshqJzCdkTV8+BxU27Ok4fZeVSyQPZ1x445D7Ol3vdmxtbqlatqrAMR0ZfiiCjsxVJJO0yoTGVuFIhvvIkCAZMiPbNWMfMq61XuN2b85Fo17wW84IGwQ0jhWSX5C4ngoGBqLDQFtnnVpUepsncWN55UNqV5f7cniwEx12KGvKGgZgwIkB6bkgAbee22LkVfsn+LRfK3NhyHWHHHmmOc+PV2FDz41hX8ZVhqZImjJURN9vd0e3ITzIKiEyyag+LitBybUyh4Y+5mf/1vvzzWEqTj1TJC2/woYMKTnhr1d62vSQnx/89s+ertfpJhq24maDHx++f1JQWV7X7TrOUTcMlwGEDYQNKhkYgAEY8M1AV88utbziIU/ixuzCK1Rty0rf9xhuA8fvcZJgAAZgIPMZmD43xxALDvr1Kapic4M6+HenGd+tE3pay1EmGX3l7Vlmm+JV2JCVVUSUKKuK7SUhIoUclwkzrff5w58vNHpX6Ik/CzduNq6THiXW3hjW3yT6LCuu/OdPj1Yy54bTEA75vV9hY+++fiNf8gyp2uQeiZ4t3nmEjcx/B+OVXdiOI2wQ0ASuqMIGO/mlYoWB5DLQPzCgNtS+7EncmJY7QhVufVsNDH61zj3lkdzywJ7YEwZgIGwMyIpAeniJDFeQ/M9dtMoI0GVeCi//8nsRNqTHgQz9kGEg9uEOErTLHBuyiol12VcRQKwTlcqy1SIcjLVMPurH3rJKiV7S9Ma7Jsb1v/0KGzKPh0zA6raJnWX4ieT/p0ecYexlOdv1+WWuv9NpOk3oKUNJZDLXRJteHUbum+ha+/wpfuzLtdR/CBsIG3ErVioIKggYgAEvDNS1rlYLSm7yJHAsq3hAtXXVUe/Q9sAADMBAxBmQYPt3J11gBNn2QP/i6+8xjt/xYOzknU5tkhdhY9X6EjOYd0rjgqvvMAL/6i1NjlxKDw3pqSHCwPqCcsdrnNLVx0RMOeaM/UuoHn7yqBgBRV+j936FDf07t/3zr00z8i69YkSsGP/wC8Z3WYFGC0puv3c6d+7l45QM1Um06V4kX/vRUQmvTcbcH0555Vg0/FmEjYg3Krzo0XjRKWfKOdUM7O3do/LqXvckbnxYcKliSViYTDWTpA9jMJC5DNTVNxsri0jQK0M+7EMdWlo71egx4815NNzK0ouw8dizU4xA/trbH/EtSsi9F+asM37vthpKvDzKaiWX3HCv8XvptbCtqc01D7J0qqzWIpOlWtN8b+ZiI43Lb7ov5rj1Gvtnubes0iJDX8TWVhFDT6Yqx+9+5MXAw2vs97R/ZyhK5r6H9rIK+3eEDYQNz5Vj2GEn/1SsMJB6BurbNqhFpeM8CRz5W6eo/oFB6iDaIRiAARiIEAPlVfVKB7tHnnaRam3rHFb5exE29MShskpHEF9AT2760NOv+/q9CBQyAaeIB9I7wmkVFK/58Sts5BZWKLGv3Fu2ex97KSbvsnLJUy+9Y4oeJ5579bDyF+85dFl7GVYULw2Op95/ywYbI2xEqCHJBmB5Bio2GMh8Bnr6uo35NGRejURbTvkE1dJZE+NsUcaZX8aUEWUEAzAQlIGbxk80Au2j/3JpzBwWQdO7+e4njPQef26KY1siS63K/BoS3Ms8F3IfWYJ06qzFnrZ3Zy4yJvyU3z/yzBuOv3Gag+K1d2arbx56nHFfmS9EhsMEfUb5ne51Mua2+L1OZMjLR0vXqitvecB85m8ccoyS1Vji3XtDYbkx94UWQP54+iXqpTenOy65Gy8Nt+MIG9QVbnwk8xzCBsJG3IoumaCRFpUaDESPgW27CtXHm+5MKG7MLLhYVTfnUBfRHsEADMBABBiQCTlHXXOnkiVV/fgGMkRDxAFZWaS0fIuS+TDmLFppzn2x5JNcx/REjJCg/dSR15nnTzl/jHFMB/PD3cuQD/0ssjzs2ZfcYqZ/5oU3KRFX9Hkv+8rqbWrG3Bxj6MiyVQVqytR55qSfH8xZGpOW2FFWkJF5QvRyufI8IuaICKLFHLf7ylCg5157X8kysNoWMnxlxOXjjFVarMu9Sk8QsaXXTebgkDT/dPaVnn8j93DLL+ei51N6KXOEjQg0IF5A4BoqCBiAgVQw0DcwoIobpiYUN6Rnx5rqSaplTzXODO0SDMAADMDAEAb2dPaavRB08K33MilmvCVYZf4IuU6WldXtnATx0nMkWZu9x4aIGd/+2fHqzalzzXvqe3vZf7Km0BQY9DPK/qBfnaw69vTEpCnzlegeKXKNrDwivTsSzeXhlA8ROGSi0d+fNMq8v6xqYl0iVy+Pa81Xsj/LPZzyxzF8VTcGEDZoOKg4YAAGYCDlDGzfXaqWlt/rSeAo2PqW6uz29++WW0PHORwhGIABGMgOBqQHgvSG0NvIq+5Qk9+eZaz04VbGz746VUlPCrdrknmuqqZRbd3WEvh+XXv7jJVLZPUS2e559EVjAtPevs8c05zw+Mtq0uT31KaK5K06VrG5wRBI7EN8xI56GdhU7Q9kWSWz3EkrvfUMwgYBjWMFyYuZ3hcT+2P/bGRgcPALtXHbDE/ixuzCK1VZ0xwmF6WNoo2CARiAARiAARiAgYQMIGwASUJIsjHA4pkQDmAgfQy0ddWp3C2veBI4FpXepmpbVlJP0VbBAAzAAAzAAAzAAAzEZQBhAzjiwkHgl77AD9tj+ygw0NpZqzbUvuxJ4FhR+ahq2r2R+oo2CwZgAAZgAAZgAAZgYAgDCBtAMQSKKARUPCPCAQxkDgM792xW62pe8CRwiBDSvncb9RZtFwzAAAzAAAzAAAzAgMkAwgYwmDAQ6GVOoEdZUBZRZKC5o1KtrXkuocAxI3+0KmmYprp6dlF/0YbBAAzAAAzAAAzAAAwohA0goCKAARiAgYxiYEdHmbH0qywB67bNzL9IbdjyipIVV6IoBPHMCKAwAAMwAAMwAAMwsJ8BhA0CGgICGIABGMhIBkSwWL35KVdxQwsfOeUTVNWOxaq7tysjnwWnA8cTBmAABmAABmAABlLHAMIGAQ1BAAzAAAxkNAON7cVqZdVETwLH7MIrVH7dm2rnnqqMfiYcm9Q5NtgW28IADMAADMBA9BhA2CCgwfmHARiAgVAw0LGvWVVs/0gtq3jAk8ixvPIhVbNzuert7wvF8+GERc8Jo8wpcxiAARiAARhIDgMIGwQ0OPwwAAMwEDoGdu1tUGWNs9XSsnsSihzziseoovp3VcueGtU/8GnonhWHJzkOD3bEjjAAAzAAAzCQvQwgbBDQ4OTDAAzAQKgZaO2sVRu3TVeLN92RUOSYVXCJ0eOjsP5vakvLatWxb2eonx0HLXsdNMqWsoUBGIABGIAB7wwgbBDQ4NTDAAzAQNYwIEvGFtW/pxZuvDWhyKEnHpUeHas2P6E2NX6otu/epPoYupI1POAQencIsRW2ggEYgAEYCDMDCBsENDiwMAADMJCVDMiqKjIEZXnFg2pWwaWehQ4RPBaWjlW5W15R5dvnq9qWFaqxvUi1dNYomeeju69LDQ5+npU2C7NDQ95xyGEABmAABmAgugwgbBDQ4JzDAAzAQNYzIEKECBObm5cYgoWXYSu6R4fTfnreSDWn6Gq1qPQ2QzhZUz1J5W55VeWU3+tLQHFKm2MjsGEuNuA9gAEYgIHhMlC6bWbW+zcIOV8JOQgbBDS88DAAAzAQSQZkyMmOjnJV3jRPiTAxv+R6AmoCahiAARiAARjIEgYQNr4K+qMggCBsENBEMqCJwsvNM0arMqe8k1PeMsyksb1YiTNUsPUtta7mBbWi6jG1pGy8WlByo/qw8DIc3ixxeIf7TyC/599kGIABGMhsBhA2kuMbhcXHRNhA2EDYgAEYgAEY8MlA/8Cg2tvbodr3NqrmjgrVsCtP1excrpZXPITwgfABAzAAAzAAAxnAAMIGwgYOrk8HNywqFvmM1stNeVPeMAADMAADMAADMAADMAADUWCAHhuIGAhZMAADMAADMAADMAADMAADMAADMBBaBhA2gDe08EZBeeQZUdhhAAZgAAZgAAZgAAZgAAZgwJ0BhA2EDYQNGIABGIABGIABGIABGIABGIABGAgtAwgbwBtaeFEt3VVL7IN9YAAGYAAGYAAGYAAGYAAGosAAwgbCBsIGDMAADMAADMAADMAADMAADMAADISWAYQN4A0tvFFQHnlGFHYYgAEYgAEYgAEYgAEYgAEYcGcAYQNhA2EDBmAABmAABmAABmAABmAABmAABkLLAMIG8IYWXlRLd9US+2AfGIABGIABGIABGIABGICBKDCAsIGwgbABAzAAAzAAAzAAAzAAAzAAAzAAA6FlAGEDeEMLbxSUR54RhR0GYAAGYAAGYAAGYAAGYAAG3BlA2EDYQNiAARiAARiAARiAARiAARiAARiAgdAygLABvKGFF9XSXbXEPtgHBmAABmAABmAABmAABmAgCgwgbCBsIGzAAAzAAAzAAAzAAAzAAAzAAAzAQGgZQNgA3tDCGwXlkWdEYYcBGIABGIABGIABGIABGIABdwYQNhA2EDZgAAZgAAZgAAZgAAZgAAZgAAZgILQMIGwAb2jhRbV0Vy2xD/aBARiAARiAARiAARiAARiIAgMIGwgbCBswAAMwAAMwAAMwAAMwAAMwAAMwEFoGEDaAN7TwRkF55BlR2GEABmAABmAABmAABmAABmDAnQGEDYQNhA0YgAEYgAEYgAEYgAEYgAEYgAEYCC0DCBvAG1p4US3dVUvsg31gAAZgAAZgAAZgAAZgAAaiwADCBsIGwgYMwAAMwAAMwAAMwAAMwAAMwAAMhJYBhA3gDS28UVAeeUYUdhiAARh+7A7YAAABmElEQVSAARiAARiAARiAARhwZwBhA2EDYQMGYAAGYAAGYAAGYAAGYAAGYAAGQssAwgbwhhZeVEt31RL7YB8YgAEYgAEYgAEYgAEYgIEoMICwgbCBsAEDMAADMAADMAADMAADMAADMAADoWUAYQN4QwtvFJRHnhGFHQZgAAZgAAZgAAZgAAZgAAbcGUDYQNhA2IABGIABGIABGIABGIABGIABGICB0DKAsAG8oYUX1dJdtcQ+2AcGYAAGYAAGYAAGYAAGYCAKDCBsIGwgbMAADMAADMAADMAADMAADMAADMBAaBlA2ADe0MIbBeWRZ0RhhwEYgAEYgAEYgAEYgAEYgAF3BhA2EDYQNmAABmAABmAABmAABmAABmAABmAgtAwgbABvaOFFtXRXLbEP9oEBGIABGIABGIABGIABGIgCAwgbCBsIGzAAAzAAAzAAAzAAAzAAAzAAAzAQWgYQNoA3tPBGQXnkGVHYYQAGYAAGYAAGYAAGYAAGYMCdAYQNhA2EDRiAARiAARiAARiAARiAARiAARgILQP/H80i9bU8ChzpAAAAAElFTkSuQmCC;" vertex="1" parent="1">
          <mxGeometry x="670" y="513.14" width="358" height="306.86" as="geometry" />
        </mxCell>
      </root>
    </mxGraphModel>
  </diagram>
</mxfile>
